Oxanium-Medium.ufo
<glyph name="exclam" format="2">
  <advance width="265.1967213114754"/>
  <unicode hex="0021"/>
  <outline>
    <contour>
      <point x="76.65573770491804" y="0.0" type="line"/>
      <point x="76.65573770491804" y="117.96721311475409" type="line"/>
      <point x="189.11475409836066" y="117.96721311475409" type="line"/>
      <point x="189.11475409836066" y="0.0" type="line"/>
    </contour>
    <contour>
      <point x="81.81967213114754" y="213.65573770491804" type="line"/>
      <point x="81.81967213114754" y="690.0" type="line"/>
      <point x="183.52459016393442" y="690.0" type="line"/>
      <point x="183.52459016393442" y="213.65573770491804" type="line"/>
    </contour>
  </outline>
</glyph>
<glyph name="numbersign" format="2">
  <advance width="672.2459016393443"/>
  <unicode hex="0023"/>
  <outline>
    <contour>
      <point x="50.0" y="182.68852459016392" type="line"/>
      <point x="50.0" y="267.3114754098361" type="line"/>
      <point x="177.81967213114754" y="267.3114754098361" type="line"/>
      <point x="177.81967213114754" y="422.6885245901639" type="line"/>
      <point x="50.0" y="422.6885245901639" type="line"/>
      <point x="50.0" y="507.3114754098361" type="line"/>
      <point x="177.81967213114754" y="507.3114754098361" type="line"/>
      <point x="177.81967213114754" y="690.0" type="line"/>
      <point x="267.0" y="690.0" type="line"/>
      <point x="267.0" y="507.3114754098361" type="line"/>
      <point x="405.8196721311475" y="507.3114754098361" type="line"/>
      <point x="405.8196721311475" y="690.0" type="line"/>
      <point x="495.0" y="690.0" type="line"/>
      <point x="495.0" y="507.3114754098361" type="line"/>
      <point x="622.2459016393443" y="507.3114754098361" type="line"/>
      <point x="622.2459016393443" y="422.6885245901639" type="line"/>
      <point x="495.0" y="422.6885245901639" type="line"/>
      <point x="495.0" y="267.3114754098361" type="line"/>
      <point x="622.2459016393443" y="267.3114754098361" type="line"/>
      <point x="622.2459016393443" y="182.68852459016392" type="line"/>
      <point x="495.0" y="182.68852459016392" type="line"/>
      <point x="495.0" y="0.0" type="line"/>
      <point x="405.8196721311475" y="0.0" type="line"/>
      <point x="405.8196721311475" y="182.68852459016392" type="line"/>
      <point x="267.0" y="182.68852459016392" type="line"/>
      <point x="267.0" y="0.0" type="line"/>
      <point x="177.81967213114754" y="0.0" type="line"/>
      <point x="177.81967213114754" y="182.68852459016392" type="line"/>
    </contour>
    <contour>
      <point x="267.0" y="267.3114754098361" type="line"/>
      <point x="405.8196721311475" y="267.3114754098361" type="line"/>
      <point x="405.8196721311475" y="422.6885245901639" type="line"/>
      <point x="267.0" y="422.6885245901639" type="line"/>
    </contour>
  </outline>
</glyph>
<glyph name="dollar" format="2">
  <advance width="578.0"/>
  <unicode hex="0024"/>
  <outline>
    <contour>
      <point x="65.34426229508196" y="39.91803278688525" type="line"/>
      <point x="65.34426229508196" y="92.1639344262295" type="line"/>
      <point x="354.04918032786884" y="92.1639344262295" type="line" smooth="yes"/>
      <point x="410.95081967213116" y="92.1639344262295"/>
      <point x="410.95081967213116" y="148.49180327868854" type="qcurve" smooth="yes"/>
      <point x="410.95081967213116" y="213.39344262295083" type="line" smooth="yes"/>
      <point x="410.95081967213116" y="261.8196721311475"/>
      <point x="367.39344262295083" y="270.1311475409836" type="qcurve" smooth="yes"/>
      <point x="178.29508196721312" y="307.8688524590164" type="line" smooth="yes"/>
      <point x="65.34426229508196" y="329.57377049180326"/>
      <point x="65.34426229508196" y="459.8032786885246" type="qcurve" smooth="yes"/>
      <point x="65.34426229508196" y="498.0983606557377" type="line" smooth="yes"/>
      <point x="65.34426229508196" y="660.0"/>
      <point x="216.59016393442624" y="660.0" type="qcurve" smooth="yes"/>
      <point x="246.40983606557376" y="660.0" type="line"/>
      <point x="246.40983606557376" y="780.0" type="line"/>
      <point x="331.59016393442624" y="780.0" type="line"/>
      <point x="331.59016393442624" y="660.0" type="line"/>
      <point x="441.04918032786884" y="660.0" type="line"/>
      <point x="492.655737704918" y="620.0819672131148" type="line"/>
      <point x="492.655737704918" y="567.8360655737705" type="line"/>
      <point x="223.95081967213116" y="567.8360655737705" type="line" smooth="yes"/>
      <point x="167.04918032786884" y="567.8360655737705"/>
      <point x="167.04918032786884" y="511.5081967213115" type="qcurve" smooth="yes"/>
      <point x="167.04918032786884" y="455.4918032786885" type="line" smooth="yes"/>
      <point x="167.04918032786884" y="406.4918032786885"/>
      <point x="210.60655737704917" y="398.1803278688525" type="qcurve" smooth="yes"/>
      <point x="399.7049180327869" y="360.1639344262295" type="line" smooth="yes"/>
      <point x="512.655737704918" y="337.0327868852459"/>
      <point x="512.655737704918" y="208.65573770491804" type="qcurve" smooth="yes"/>
      <point x="512.655737704918" y="161.9016393442623" type="line" smooth="yes"/>
      <point x="512.655737704918" y="0.0"/>
      <point x="361.40983606557376" y="0.0" type="qcurve" smooth="yes"/>
      <point x="331.59016393442624" y="0.0" type="line"/>
      <point x="331.59016393442624" y="-120.0" type="line"/>
      <point x="246.40983606557376" y="-120.0" type="line"/>
      <point x="246.40983606557376" y="0.0" type="line"/>
      <point x="116.95081967213115" y="0.0" type="line"/>
    </contour>
  </outline>
</glyph>
<glyph name="ampersand" format="2">
  <advance width="664.4918032786885"/>
  <unicode hex="0026"/>
  <outline>
    <contour>
      <point x="67.75409836065573" y="153.65573770491804" type="qcurve" smooth="yes"/>
      <point x="67.75409836065573" y="253.75409836065575" type="line" smooth="yes"/>
      <point x="67.75409836065573" y="305.75409836065575"/>
      <point x="100.75409836065573" y="333.75409836065575" type="qcurve" smooth="yes"/>
      <point x="142.75409836065575" y="368.75409836065575" type="line"/>
      <point x="107.75409836065573" y="410.75409836065575" type="line" smooth="yes"/>
      <point x="87.75409836065573" y="434.75409836065575"/>
      <point x="87.75409836065573" y="468.75409836065575" type="qcurve" smooth="yes"/>
      <point x="87.75409836065573" y="536.344262295082" type="line" smooth="yes"/>
      <point x="87.75409836065573" y="690.0"/>
      <point x="241.40983606557376" y="690.0" type="qcurve" smooth="yes"/>
      <point x="428.59016393442624" y="690.0" type="line"/>
      <point x="474.4918032786885" y="655.7868852459017" type="line"/>
      <point x="474.4918032786885" y="605.2459016393443" type="line"/>
      <point x="243.65573770491804" y="605.2459016393443" type="line" smooth="yes"/>
      <point x="184.75409836065575" y="605.2459016393443"/>
      <point x="184.75409836065575" y="546.344262295082" type="qcurve" smooth="yes"/>
      <point x="184.75409836065575" y="464.8032786885246" type="line" smooth="yes"/>
      <point x="184.75409836065575" y="405.9016393442623"/>
      <point x="243.65573770491804" y="405.9016393442623" type="qcurve" smooth="yes"/>
      <point x="624.4918032786885" y="405.9016393442623" type="line"/>
      <point x="624.4918032786885" y="321.1475409836066" type="line"/>
      <point x="524.4918032786885" y="321.1475409836066" type="line"/>
      <point x="524.4918032786885" y="0.0" type="line"/>
      <point x="221.40983606557376" y="0.0" type="line" smooth="yes"/>
      <point x="67.75409836065573" y="0.0"/>
    </contour>
    <contour>
      <point x="164.75409836065575" y="143.65573770491804" type="line" smooth="yes"/>
      <point x="164.75409836065575" y="84.75409836065573"/>
      <point x="223.65573770491804" y="84.75409836065573" type="qcurve" smooth="yes"/>
      <point x="427.4918032786885" y="84.75409836065573" type="line"/>
      <point x="427.4918032786885" y="321.1475409836066" type="line"/>
      <point x="223.65573770491804" y="321.1475409836066" type="line" smooth="yes"/>
      <point x="164.75409836065575" y="321.1475409836066"/>
      <point x="164.75409836065575" y="262.24590163934425" type="qcurve" smooth="yes"/>
    </contour>
  </outline>
</glyph>
<glyph name="quotesingle" format="2">
  <advance width="224.2622950819672"/>
  <unicode hex="0027"/>
  <outline>
    <contour>
      <point x="67.75409836065573" y="484.0983606557377" type="line"/>
      <point x="67.75409836065573" y="740.0" type="line"/>
      <point x="156.50819672131146" y="740.0" type="line"/>
      <point x="156.50819672131146" y="484.0983606557377" type="line"/>
    </contour>
  </outline>
</glyph>
<glyph name="parenleft" format="2">
  <advance width="321.672131147541"/>
  <unicode hex="0028"/>
  <outline>
    <contour>
      <point x="228.31147540983608" y="772.9508196721312" type="qcurve"/>
      <point x="301.8032786885246" y="717.5409836065573" type="line"/>
      <point x="166.60655737704917" y="529.4918032786885"/>
      <point x="166.60655737704917" y="50.50819672131148"/>
      <point x="301.8032786885246" y="-137.54098360655738" type="qcurve"/>
      <point x="228.31147540983608" y="-192.95081967213116" type="line"/>
      <point x="69.60655737704919" y="21.737704918032787"/>
      <point x="69.60655737704919" y="558.2622950819672"/>
    </contour>
  </outline>
</glyph>
<glyph name="parenright" format="2">
  <advance width="321.672131147541"/>
  <unicode hex="0029"/>
  <outline>
    <contour>
      <point x="19.868852459016395" y="-137.54098360655738" type="line"/>
      <point x="155.0655737704918" y="50.50819672131148"/>
      <point x="155.0655737704918" y="529.4918032786885"/>
      <point x="19.868852459016395" y="717.5409836065573" type="qcurve"/>
      <point x="92.9344262295082" y="772.9508196721312" type="line"/>
      <point x="252.0655737704918" y="558.2622950819672"/>
      <point x="252.0655737704918" y="21.737704918032787"/>
      <point x="92.9344262295082" y="-192.95081967213116" type="qcurve"/>
    </contour>
  </outline>
</glyph>
<glyph name="asterisk" format="2">
  <advance width="504.3606557377049"/>
  <unicode hex="002A"/>
  <outline>
    <contour>
      <point x="41.0" y="509.8196721311475" type="line"/>
      <point x="63.9344262295082" y="578.7540983606557" type="line"/>
      <point x="213.78688524590163" y="533.8524590163935" type="line"/>
      <point x="213.78688524590163" y="690.0" type="line"/>
      <point x="291.0" y="690.0" type="line"/>
      <point x="291.0" y="533.8524590163935" type="line"/>
      <point x="440.27868852459017" y="578.7540983606557" type="line"/>
      <point x="463.3606557377049" y="509.8196721311475" type="line"/>
      <point x="315.5081967213115" y="459.344262295082" type="line"/>
      <point x="405.59016393442624" y="331.655737704918" type="line"/>
      <point x="346.04918032786884" y="288.6393442622951" type="line"/>
      <point x="251.9672131147541" y="412.60655737704917" type="line"/>
      <point x="158.31147540983608" y="288.6393442622951" type="line"/>
      <point x="99.19672131147541" y="331.655737704918" type="line"/>
      <point x="188.85245901639345" y="459.344262295082" type="line"/>
    </contour>
  </outline>
</glyph>
<glyph name="plus" format="2">
  <advance width="578.0"/>
  <unicode hex="002B"/>
  <outline>
    <contour>
      <point x="62.59016393442623" y="292.6885245901639" type="line"/>
      <point x="62.59016393442623" y="377.3114754098361" type="line"/>
      <point x="244.40983606557376" y="377.3114754098361" type="line"/>
      <point x="244.40983606557376" y="570.0" type="line"/>
      <point x="333.59016393442624" y="570.0" type="line"/>
      <point x="333.59016393442624" y="377.3114754098361" type="line"/>
      <point x="515.4098360655738" y="377.3114754098361" type="line"/>
      <point x="515.4098360655738" y="292.6885245901639" type="line"/>
      <point x="333.59016393442624" y="292.6885245901639" type="line"/>
      <point x="333.59016393442624" y="100.0" type="line"/>
      <point x="244.40983606557376" y="100.0" type="line"/>
      <point x="244.40983606557376" y="292.6885245901639" type="line"/>
    </contour>
  </outline>
</glyph>
<glyph name="comma" format="2">
  <advance width="265.1967213114754"/>
  <unicode hex="002C"/>
  <outline>
    <contour>
      <point x="29.049180327868854" y="-125.14754098360656" type="line"/>
      <point x="86.0327868852459" y="117.96721311475409" type="line"/>
      <point x="181.78688524590163" y="117.96721311475409" type="line"/>
      <point x="192.47540983606558" y="101.57377049180327" type="line"/>
      <point x="102.70491803278688" y="-142.95081967213116" type="line"/>
    </contour>
  </outline>
</glyph>
<glyph name="hyphen" format="2">
  <advance width="365.9016393442623"/>
  <unicode hex="002D"/>
  <outline>
    <contour>
      <point x="40.0" y="262.6885245901639" type="line"/>
      <point x="40.0" y="347.3114754098361" type="line"/>
      <point x="325.9016393442623" y="347.3114754098361" type="line"/>
      <point x="325.9016393442623" y="262.6885245901639" type="line"/>
    </contour>
  </outline>
</glyph>
<glyph name="period" format="2">
  <advance width="265.1967213114754"/>
  <unicode hex="002E"/>
  <outline>
    <contour>
      <point x="76.65573770491804" y="0.0" type="line"/>
      <point x="76.65573770491804" y="117.96721311475409" type="line"/>
      <point x="189.11475409836066" y="117.96721311475409" type="line"/>
      <point x="189.11475409836066" y="0.0" type="line"/>
    </contour>
  </outline>
</glyph>
<glyph name="zero" format="2">
  <advance width="578.0"/>
  <unicode hex="0030"/>
  <outline>
    <contour>
      <point x="60.34426229508197" y="157.63934426229508" type="qcurve" smooth="yes"/>
      <point x="60.34426229508197" y="532.360655737705" type="line" smooth="yes"/>
      <point x="60.34426229508197" y="690.0"/>
      <point x="217.98360655737704" y="690.0" type="qcurve" smooth="yes"/>
      <point x="360.0163934426229" y="690.0" type="line" smooth="yes"/>
      <point x="517.655737704918" y="690.0"/>
      <point x="517.655737704918" y="532.360655737705" type="qcurve" smooth="yes"/>
      <point x="517.655737704918" y="157.63934426229508" type="line" smooth="yes"/>
      <point x="517.655737704918" y="0.0"/>
      <point x="360.0163934426229" y="0.0" type="qcurve" smooth="yes"/>
      <point x="217.98360655737704" y="0.0" type="line" smooth="yes"/>
      <point x="60.34426229508197" y="0.0"/>
    </contour>
    <contour>
      <point x="162.04918032786884" y="148.49180327868854" type="line" smooth="yes"/>
      <point x="162.04918032786884" y="92.1639344262295"/>
      <point x="218.95081967213116" y="92.1639344262295" type="qcurve" smooth="yes"/>
      <point x="359.04918032786884" y="92.1639344262295" type="line" smooth="yes"/>
      <point x="415.95081967213116" y="92.1639344262295"/>
      <point x="415.95081967213116" y="148.49180327868854" type="qcurve" smooth="yes"/>
      <point x="415.95081967213116" y="541.5081967213115" type="line" smooth="yes"/>
      <point x="415.95081967213116" y="597.8360655737705"/>
      <point x="359.04918032786884" y="597.8360655737705" type="qcurve" smooth="yes"/>
      <point x="218.95081967213116" y="597.8360655737705" type="line" smooth="yes"/>
      <point x="162.04918032786884" y="597.8360655737705"/>
      <point x="162.04918032786884" y="541.5081967213115" type="qcurve" smooth="yes"/>
    </contour>
  </outline>
</glyph>
<glyph name="one" format="2">
  <advance width="578.0"/>
  <unicode hex="0031"/>
  <outline>
    <contour>
      <point x="88.34426229508196" y="0.0" type="line"/>
      <point x="88.34426229508196" y="92.1639344262295" type="line"/>
      <point x="254.14754098360655" y="92.1639344262295" type="line"/>
      <point x="254.14754098360655" y="597.8360655737705" type="line"/>
      <point x="120.39344262295083" y="597.8360655737705" type="line"/>
      <point x="120.39344262295083" y="650.0819672131148" type="line"/>
      <point x="172.0" y="690.0" type="line"/>
      <point x="355.8524590163934" y="690.0" type="line"/>
      <point x="355.8524590163934" y="92.1639344262295" type="line"/>
      <point x="505.655737704918" y="92.1639344262295" type="line"/>
      <point x="505.655737704918" y="0.0" type="line"/>
    </contour>
  </outline>
</glyph>
<glyph name="two" format="2">
  <advance width="578.0"/>
  <unicode hex="0032"/>
  <outline>
    <contour>
      <point x="60.34426229508197" y="0.0" type="line"/>
      <point x="60.34426229508197" y="214.21311475409837" type="line" smooth="yes"/>
      <point x="60.34426229508197" y="343.44262295081967"/>
      <point x="173.29508196721312" y="366.1475409836066" type="qcurve" smooth="yes"/>
      <point x="372.39344262295083" y="406.3114754098361" type="line" smooth="yes"/>
      <point x="415.95081967213116" y="415.04918032786884"/>
      <point x="415.95081967213116" y="463.04918032786884" type="qcurve" smooth="yes"/>
      <point x="415.95081967213116" y="541.5081967213115" type="line" smooth="yes"/>
      <point x="415.95081967213116" y="597.8360655737705"/>
      <point x="359.04918032786884" y="597.8360655737705" type="qcurve" smooth="yes"/>
      <point x="80.34426229508196" y="597.8360655737705" type="line"/>
      <point x="80.34426229508196" y="650.0819672131148" type="line"/>
      <point x="131.95081967213116" y="690.0" type="line"/>
      <point x="360.0163934426229" y="690.0" type="line" smooth="yes"/>
      <point x="517.655737704918" y="690.0"/>
      <point x="517.655737704918" y="532.360655737705" type="qcurve" smooth="yes"/>
      <point x="517.655737704918" y="467.78688524590166" type="line" smooth="yes"/>
      <point x="517.655737704918" y="338.55737704918033"/>
      <point x="404.7049180327869" y="315.8524590163934" type="qcurve" smooth="yes"/>
      <point x="205.60655737704917" y="275.6885245901639" type="line" smooth="yes"/>
      <point x="162.04918032786884" y="266.95081967213116"/>
      <point x="162.04918032786884" y="218.95081967213116" type="qcurve" smooth="yes"/>
      <point x="162.04918032786884" y="92.1639344262295" type="line"/>
      <point x="517.655737704918" y="92.1639344262295" type="line"/>
      <point x="517.655737704918" y="0.0" type="line"/>
    </contour>
  </outline>
</glyph>
<glyph name="three" format="2">
  <advance width="578.0"/>
  <unicode hex="0033"/>
  <outline>
    <contour>
      <point x="70.34426229508196" y="39.91803278688525" type="line"/>
      <point x="70.34426229508196" y="92.1639344262295" type="line"/>
      <point x="359.04918032786884" y="92.1639344262295" type="line" smooth="yes"/>
      <point x="415.95081967213116" y="92.1639344262295"/>
      <point x="415.95081967213116" y="148.49180327868854" type="qcurve" smooth="yes"/>
      <point x="415.95081967213116" y="257.40983606557376" type="line" smooth="yes"/>
      <point x="415.95081967213116" y="313.7377049180328"/>
      <point x="359.04918032786884" y="313.7377049180328" type="qcurve" smooth="yes"/>
      <point x="144.34426229508196" y="313.7377049180328" type="line"/>
      <point x="144.34426229508196" y="405.9016393442623" type="line"/>
      <point x="359.04918032786884" y="405.9016393442623" type="line" smooth="yes"/>
      <point x="415.95081967213116" y="405.9016393442623"/>
      <point x="415.95081967213116" y="462.8032786885246" type="qcurve" smooth="yes"/>
      <point x="415.95081967213116" y="541.5081967213115" type="line" smooth="yes"/>
      <point x="415.95081967213116" y="597.8360655737705"/>
      <point x="359.04918032786884" y="597.8360655737705" type="qcurve" smooth="yes"/>
      <point x="80.34426229508196" y="597.8360655737705" type="line"/>
      <point x="80.34426229508196" y="650.0819672131148" type="line"/>
      <point x="131.95081967213116" y="690.0" type="line"/>
      <point x="360.0163934426229" y="690.0" type="line" smooth="yes"/>
      <point x="517.655737704918" y="690.0"/>
      <point x="517.655737704918" y="532.360655737705" type="qcurve" smooth="yes"/>
      <point x="517.655737704918" y="462.4590163934426" type="line" smooth="yes"/>
      <point x="517.655737704918" y="422.4590163934426"/>
      <point x="492.655737704918" y="397.4590163934426" type="qcurve" smooth="yes"/>
      <point x="457.655737704918" y="362.4590163934426" type="line"/>
      <point x="492.655737704918" y="327.4590163934426" type="line" smooth="yes"/>
      <point x="517.655737704918" y="302.4590163934426"/>
      <point x="517.655737704918" y="262.4590163934426" type="qcurve" smooth="yes"/>
      <point x="517.655737704918" y="157.63934426229508" type="line" smooth="yes"/>
      <point x="517.655737704918" y="0.0"/>
      <point x="360.0163934426229" y="0.0" type="qcurve" smooth="yes"/>
      <point x="121.95081967213115" y="0.0" type="line"/>
    </contour>
  </outline>
</glyph>
<glyph name="four" format="2">
  <advance width="578.0"/>
  <unicode hex="0034"/>
  <outline>
    <contour>
      <point x="60.34426229508197" y="120.70491803278688" type="line"/>
      <point x="60.34426229508197" y="204.75409836065575" type="line"/>
      <point x="285.44262295081967" y="690.0" type="line"/>
      <point x="370.9016393442623" y="690.0" type="line"/>
      <point x="383.44262295081967" y="667.0491803278688" type="line"/>
      <point x="172.31147540983608" y="213.29508196721312" type="line"/>
      <point x="415.95081967213116" y="213.29508196721312" type="line"/>
      <point x="415.95081967213116" y="430.0" type="line"/>
      <point x="517.655737704918" y="430.0" type="line"/>
      <point x="517.655737704918" y="0.0" type="line"/>
      <point x="415.95081967213116" y="0.0" type="line"/>
      <point x="415.95081967213116" y="120.70491803278688" type="line"/>
    </contour>
  </outline>
</glyph>
<glyph name="five" format="2">
  <advance width="578.0"/>
  <unicode hex="0035"/>
  <outline>
    <contour>
      <point x="50.34426229508197" y="39.91803278688525" type="line"/>
      <point x="50.34426229508197" y="92.1639344262295" type="line"/>
      <point x="359.04918032786884" y="92.1639344262295" type="line" smooth="yes"/>
      <point x="415.95081967213116" y="92.1639344262295"/>
      <point x="415.95081967213116" y="148.49180327868854" type="qcurve" smooth="yes"/>
      <point x="415.95081967213116" y="267.40983606557376" type="line" smooth="yes"/>
      <point x="415.95081967213116" y="323.7377049180328"/>
      <point x="359.04918032786884" y="323.7377049180328" type="qcurve" smooth="yes"/>
      <point x="60.34426229508197" y="323.7377049180328" type="line"/>
      <point x="60.34426229508197" y="690.0" type="line"/>
      <point x="487.655737704918" y="690.0" type="line"/>
      <point x="487.655737704918" y="597.8360655737705" type="line"/>
      <point x="162.04918032786884" y="597.8360655737705" type="line"/>
      <point x="162.04918032786884" y="415.9016393442623" type="line"/>
      <point x="360.0163934426229" y="415.9016393442623" type="line" smooth="yes"/>
      <point x="517.655737704918" y="415.9016393442623"/>
      <point x="517.655737704918" y="258.26229508196724" type="qcurve" smooth="yes"/>
      <point x="517.655737704918" y="157.63934426229508" type="line" smooth="yes"/>
      <point x="517.655737704918" y="0.0"/>
      <point x="360.0163934426229" y="0.0" type="qcurve" smooth="yes"/>
      <point x="101.95081967213115" y="0.0" type="line"/>
    </contour>
  </outline>
</glyph>
<glyph name="six" format="2">
  <advance width="578.0"/>
  <unicode hex="0036"/>
  <outline>
    <contour>
      <point x="60.34426229508197" y="157.63934426229508" type="qcurve" smooth="yes"/>
      <point x="60.34426229508197" y="500.8032786885246" type="line" smooth="yes"/>
      <point x="60.34426229508197" y="690.0"/>
      <point x="249.54098360655738" y="690.0" type="qcurve" smooth="yes"/>
      <point x="426.04918032786884" y="690.0" type="line"/>
      <point x="477.655737704918" y="650.0819672131148" type="line"/>
      <point x="477.655737704918" y="597.8360655737705" type="line"/>
      <point x="245.54098360655738" y="597.8360655737705" type="line" smooth="yes"/>
      <point x="162.04918032786884" y="597.8360655737705"/>
      <point x="162.04918032786884" y="514.344262295082" type="qcurve" smooth="yes"/>
      <point x="162.04918032786884" y="415.9016393442623" type="line"/>
      <point x="360.0163934426229" y="415.9016393442623" type="line" smooth="yes"/>
      <point x="517.655737704918" y="415.9016393442623"/>
      <point x="517.655737704918" y="258.26229508196724" type="qcurve" smooth="yes"/>
      <point x="517.655737704918" y="157.63934426229508" type="line" smooth="yes"/>
      <point x="517.655737704918" y="0.0"/>
      <point x="360.0163934426229" y="0.0" type="qcurve" smooth="yes"/>
      <point x="217.98360655737704" y="0.0" type="line" smooth="yes"/>
      <point x="60.34426229508197" y="0.0"/>
    </contour>
    <contour>
      <point x="162.04918032786884" y="148.49180327868854" type="line" smooth="yes"/>
      <point x="162.04918032786884" y="92.1639344262295"/>
      <point x="218.95081967213116" y="92.1639344262295" type="qcurve" smooth="yes"/>
      <point x="359.04918032786884" y="92.1639344262295" type="line" smooth="yes"/>
      <point x="415.95081967213116" y="92.1639344262295"/>
      <point x="415.95081967213116" y="148.49180327868854" type="qcurve" smooth="yes"/>
      <point x="415.95081967213116" y="267.40983606557376" type="line" smooth="yes"/>
      <point x="415.95081967213116" y="323.7377049180328"/>
      <point x="359.04918032786884" y="323.7377049180328" type="qcurve" smooth="yes"/>
      <point x="162.04918032786884" y="323.7377049180328" type="line"/>
    </contour>
  </outline>
</glyph>
<glyph name="seven" format="2">
  <advance width="578.0"/>
  <unicode hex="0037"/>
  <outline>
    <contour>
      <point x="60.34426229508197" y="597.8360655737705" type="line"/>
      <point x="60.34426229508197" y="690.0" type="line"/>
      <point x="517.655737704918" y="690.0" type="line"/>
      <point x="517.655737704918" y="503.1967213114754" type="line"/>
      <point x="253.8360655737705" y="0.0" type="line"/>
      <point x="163.24590163934425" y="0.0" type="line"/>
      <point x="150.13114754098362" y="22.950819672131146" type="line"/>
      <point x="415.95081967213116" y="525.0" type="line"/>
      <point x="415.95081967213116" y="597.8360655737705" type="line"/>
    </contour>
  </outline>
</glyph>
<glyph name="eight" format="2">
  <advance width="578.0"/>
  <unicode hex="0038"/>
  <outline>
    <contour>
      <point x="60.34426229508197" y="157.63934426229508" type="qcurve" smooth="yes"/>
      <point x="60.34426229508197" y="262.0327868852459" type="line" smooth="yes"/>
      <point x="60.34426229508197" y="302.0327868852459"/>
      <point x="85.34426229508196" y="326.60655737704917" type="qcurve" smooth="yes"/>
      <point x="120.34426229508196" y="362.0327868852459" type="line"/>
      <point x="85.34426229508196" y="396.60655737704917" type="line" smooth="yes"/>
      <point x="60.34426229508197" y="422.0327868852459"/>
      <point x="60.34426229508197" y="462.0327868852459" type="qcurve" smooth="yes"/>
      <point x="60.34426229508197" y="532.360655737705" type="line" smooth="yes"/>
      <point x="60.34426229508197" y="690.0"/>
      <point x="217.98360655737704" y="690.0" type="qcurve" smooth="yes"/>
      <point x="360.0163934426229" y="690.0" type="line" smooth="yes"/>
      <point x="517.655737704918" y="690.0"/>
      <point x="517.655737704918" y="532.360655737705" type="qcurve" smooth="yes"/>
      <point x="517.655737704918" y="462.0327868852459" type="line" smooth="yes"/>
      <point x="517.655737704918" y="422.0327868852459"/>
      <point x="492.655737704918" y="396.60655737704917" type="qcurve" smooth="yes"/>
      <point x="457.655737704918" y="362.0327868852459" type="line"/>
      <point x="492.655737704918" y="326.60655737704917" type="line" smooth="yes"/>
      <point x="517.655737704918" y="302.0327868852459"/>
      <point x="517.655737704918" y="262.0327868852459" type="qcurve" smooth="yes"/>
      <point x="517.655737704918" y="157.63934426229508" type="line" smooth="yes"/>
      <point x="517.655737704918" y="0.0"/>
      <point x="360.0163934426229" y="0.0" type="qcurve" smooth="yes"/>
      <point x="217.98360655737704" y="0.0" type="line" smooth="yes"/>
      <point x="60.34426229508197" y="0.0"/>
    </contour>
    <contour>
      <point x="162.04918032786884" y="148.49180327868854" type="line" smooth="yes"/>
      <point x="162.04918032786884" y="92.1639344262295"/>
      <point x="218.95081967213116" y="92.1639344262295" type="qcurve" smooth="yes"/>
      <point x="359.04918032786884" y="92.1639344262295" type="line" smooth="yes"/>
      <point x="415.95081967213116" y="92.1639344262295"/>
      <point x="415.95081967213116" y="148.49180327868854" type="qcurve" smooth="yes"/>
      <point x="415.95081967213116" y="257.40983606557376" type="line" smooth="yes"/>
      <point x="415.95081967213116" y="313.7377049180328"/>
      <point x="359.04918032786884" y="313.7377049180328" type="qcurve" smooth="yes"/>
      <point x="218.95081967213116" y="313.7377049180328" type="line" smooth="yes"/>
      <point x="162.04918032786884" y="313.7377049180328"/>
      <point x="162.04918032786884" y="257.40983606557376" type="qcurve" smooth="yes"/>
    </contour>
    <contour>
      <point x="162.04918032786884" y="462.8032786885246" type="line" smooth="yes"/>
      <point x="162.04918032786884" y="405.9016393442623"/>
      <point x="218.95081967213116" y="405.9016393442623" type="qcurve" smooth="yes"/>
      <point x="359.04918032786884" y="405.9016393442623" type="line" smooth="yes"/>
      <point x="415.95081967213116" y="405.9016393442623"/>
      <point x="415.95081967213116" y="462.8032786885246" type="qcurve" smooth="yes"/>
      <point x="415.95081967213116" y="541.5081967213115" type="line" smooth="yes"/>
      <point x="415.95081967213116" y="597.8360655737705"/>
      <point x="359.04918032786884" y="597.8360655737705" type="qcurve" smooth="yes"/>
      <point x="218.95081967213116" y="597.8360655737705" type="line" smooth="yes"/>
      <point x="162.04918032786884" y="597.8360655737705"/>
      <point x="162.04918032786884" y="541.5081967213115" type="qcurve" smooth="yes"/>
    </contour>
  </outline>
</glyph>
<glyph name="nine" format="2">
  <advance width="578.0"/>
  <unicode hex="0039"/>
  <outline>
    <contour>
      <point x="60.34426229508197" y="431.3114754098361" type="qcurve" smooth="yes"/>
      <point x="60.34426229508197" y="532.360655737705" type="line" smooth="yes"/>
      <point x="60.34426229508197" y="690.0"/>
      <point x="217.98360655737704" y="690.0" type="qcurve" smooth="yes"/>
      <point x="360.0163934426229" y="690.0" type="line" smooth="yes"/>
      <point x="517.655737704918" y="690.0"/>
      <point x="517.655737704918" y="532.360655737705" type="qcurve" smooth="yes"/>
      <point x="517.655737704918" y="189.19672131147541" type="line" smooth="yes"/>
      <point x="517.655737704918" y="0.0"/>
      <point x="328.4590163934426" y="0.0" type="qcurve" smooth="yes"/>
      <point x="141.95081967213116" y="0.0" type="line"/>
      <point x="90.34426229508196" y="39.91803278688525" type="line"/>
      <point x="90.34426229508196" y="92.1639344262295" type="line"/>
      <point x="332.4590163934426" y="92.1639344262295" type="line" smooth="yes"/>
      <point x="415.95081967213116" y="92.1639344262295"/>
      <point x="415.95081967213116" y="175.65573770491804" type="qcurve" smooth="yes"/>
      <point x="415.95081967213116" y="274.0983606557377" type="line"/>
      <point x="217.98360655737704" y="274.0983606557377" type="line" smooth="yes"/>
      <point x="60.34426229508197" y="274.0983606557377"/>
    </contour>
    <contour>
      <point x="162.04918032786884" y="423.1639344262295" type="line" smooth="yes"/>
      <point x="162.04918032786884" y="366.2622950819672"/>
      <point x="218.95081967213116" y="366.2622950819672" type="qcurve" smooth="yes"/>
      <point x="415.95081967213116" y="366.2622950819672" type="line"/>
      <point x="415.95081967213116" y="541.5081967213115" type="line" smooth="yes"/>
      <point x="415.95081967213116" y="597.8360655737705"/>
      <point x="359.04918032786884" y="597.8360655737705" type="qcurve" smooth="yes"/>
      <point x="218.95081967213116" y="597.8360655737705" type="line" smooth="yes"/>
      <point x="162.04918032786884" y="597.8360655737705"/>
      <point x="162.04918032786884" y="541.5081967213115" type="qcurve" smooth="yes"/>
    </contour>
  </outline>
</glyph>
<glyph name="less" format="2">
  <advance width="578.0"/>
  <unicode hex="003C"/>
  <outline>
    <contour>
      <point x="64.0" y="288.55737704918033" type="line"/>
      <point x="64.0" y="381.44262295081967" type="line"/>
      <point x="481.04918032786884" y="580.7540983606557" type="line"/>
      <point x="516.9508196721312" y="505.8196721311475" type="line"/>
      <point x="152.01639344262296" y="335.0" type="line"/>
      <point x="516.9508196721312" y="164.18032786885246" type="line"/>
      <point x="481.04918032786884" y="89.24590163934427" type="line"/>
    </contour>
  </outline>
</glyph>
<glyph name="equal" format="2">
  <advance width="578.0"/>
  <unicode hex="003D"/>
  <outline>
    <contour>
      <point x="62.59016393442623" y="182.68852459016392" type="line"/>
      <point x="62.59016393442623" y="267.3114754098361" type="line"/>
      <point x="515.4098360655738" y="267.3114754098361" type="line"/>
      <point x="515.4098360655738" y="182.68852459016392" type="line"/>
    </contour>
    <contour>
      <point x="62.59016393442623" y="402.6885245901639" type="line"/>
      <point x="62.59016393442623" y="487.3114754098361" type="line"/>
      <point x="515.4098360655738" y="487.3114754098361" type="line"/>
      <point x="515.4098360655738" y="402.6885245901639" type="line"/>
    </contour>
  </outline>
</glyph>
<glyph name="greater" format="2">
  <advance width="578.0"/>
  <unicode hex="003E"/>
  <outline>
    <contour>
      <point x="61.049180327868854" y="164.18032786885246" type="line"/>
      <point x="425.9836065573771" y="335.0" type="line"/>
      <point x="61.049180327868854" y="505.8196721311475" type="line"/>
      <point x="96.95081967213115" y="580.7540983606557" type="line"/>
      <point x="514.0" y="381.44262295081967" type="line"/>
      <point x="514.0" y="288.55737704918033" type="line"/>
      <point x="96.95081967213115" y="89.24590163934427" type="line"/>
    </contour>
  </outline>
</glyph>
<glyph name="question" format="2">
  <advance width="507.3114754098361"/>
  <unicode hex="003F"/>
  <outline>
    <contour>
      <point x="40.0" y="597.8360655737705" type="line"/>
      <point x="40.0" y="650.0819672131148" type="line"/>
      <point x="91.60655737704917" y="690.0" type="line"/>
      <point x="299.672131147541" y="690.0" type="line" smooth="yes"/>
      <point x="457.3114754098361" y="690.0"/>
      <point x="457.3114754098361" y="532.360655737705" type="qcurve" smooth="yes"/>
      <point x="457.3114754098361" y="448.59016393442624" type="line" smooth="yes"/>
      <point x="457.3114754098361" y="286.6885245901639"/>
      <point x="304.3606557377049" y="286.6885245901639" type="qcurve" smooth="yes"/>
      <point x="266.5081967213115" y="286.6885245901639" type="line"/>
      <point x="266.5081967213115" y="213.65573770491804" type="line"/>
      <point x="164.80327868852459" y="213.65573770491804" type="line"/>
      <point x="164.80327868852459" y="378.8524590163934" type="line"/>
      <point x="298.7049180327869" y="378.8524590163934" type="line" smooth="yes"/>
      <point x="355.60655737704917" y="378.8524590163934"/>
      <point x="355.60655737704917" y="435.75409836065575" type="qcurve" smooth="yes"/>
      <point x="355.60655737704917" y="541.5081967213115" type="line" smooth="yes"/>
      <point x="355.60655737704917" y="597.8360655737705"/>
      <point x="298.7049180327869" y="597.8360655737705" type="qcurve" smooth="yes"/>
    </contour>
    <contour>
      <point x="159.21311475409837" y="0.0" type="line"/>
      <point x="159.21311475409837" y="117.96721311475409" type="line"/>
      <point x="272.0983606557377" y="117.96721311475409" type="line"/>
      <point x="272.0983606557377" y="0.0" type="line"/>
    </contour>
  </outline>
</glyph>
<glyph name="at" format="2">
  <advance width="802.2459016393443"/>
  <unicode hex="0040"/>
  <outline>
    <contour>
      <point x="87.75409836065573" y="9.672131147540984" type="qcurve" smooth="yes"/>
      <point x="87.75409836065573" y="540.327868852459" type="line" smooth="yes"/>
      <point x="87.75409836065573" y="690.0"/>
      <point x="236.85245901639345" y="690.0" type="qcurve" smooth="yes"/>
      <point x="714.4918032786885" y="690.0" type="line"/>
      <point x="714.4918032786885" y="60.0" type="line"/>
      <point x="461.40983606557376" y="60.0" type="line" smooth="yes"/>
      <point x="307.75409836065575" y="60.0"/>
      <point x="307.75409836065575" y="213.65573770491804" type="qcurve" smooth="yes"/>
      <point x="307.75409836065575" y="336.344262295082" type="line" smooth="yes"/>
      <point x="307.75409836065575" y="490.0"/>
      <point x="461.40983606557376" y="490.0" type="qcurve" smooth="yes"/>
      <point x="625.7377049180328" y="490.0" type="line"/>
      <point x="625.7377049180328" y="612.7868852459017" type="line"/>
      <point x="238.2622950819672" y="612.7868852459017" type="line" smooth="yes"/>
      <point x="176.50819672131146" y="612.7868852459017"/>
      <point x="176.50819672131146" y="550.6065573770492" type="qcurve" smooth="yes"/>
      <point x="176.50819672131146" y="-0.6065573770491808" type="line" smooth="yes"/>
      <point x="176.50819672131146" y="-62.786885245901644"/>
      <point x="238.2622950819672" y="-62.786885245901644" type="qcurve" smooth="yes"/>
      <point x="694.4918032786885" y="-62.786885245901644" type="line"/>
      <point x="694.4918032786885" y="-105.78688524590164" type="line"/>
      <point x="648.5901639344262" y="-140.0" type="line"/>
      <point x="236.85245901639345" y="-140.0" type="line" smooth="yes"/>
      <point x="87.75409836065573" y="-140.0"/>
    </contour>
    <contour>
      <point x="404.75409836065575" y="203.65573770491804" type="line" smooth="yes"/>
      <point x="404.75409836065575" y="144.75409836065575"/>
      <point x="463.655737704918" y="144.75409836065575" type="qcurve" smooth="yes"/>
      <point x="617.4918032786885" y="144.75409836065575" type="line"/>
      <point x="617.4918032786885" y="405.24590163934425" type="line"/>
      <point x="463.655737704918" y="405.24590163934425" type="line" smooth="yes"/>
      <point x="404.75409836065575" y="405.24590163934425"/>
      <point x="404.75409836065575" y="346.344262295082" type="qcurve" smooth="yes"/>
    </contour>
  </outline>
</glyph>
<glyph name="A" format="2">
  <advance width="640.3934426229508"/>
  <unicode hex="0041"/>
  <outline>
    <contour>
      <point x="19.295081967213115" y="21.098360655737704" type="line"/>
      <point x="239.54098360655738" y="690.0" type="line"/>
      <point x="401.42622950819674" y="690.0" type="line"/>
      <point x="621.0983606557377" y="21.098360655737704" type="line"/>
      <point x="607.5573770491803" y="0.0" type="line"/>
      <point x="522.9508196721312" y="0.0" type="line"/>
      <point x="470.59016393442624" y="163.7377049180328" type="line"/>
      <point x="169.80327868852459" y="163.7377049180328" type="line"/>
      <point x="117.44262295081967" y="0.0" type="line"/>
      <point x="33.40983606557377" y="0.0" type="line"/>
    </contour>
    <contour>
      <point x="199.1639344262295" y="255.9016393442623" type="line"/>
      <point x="441.8032786885246" y="255.9016393442623" type="line"/>
      <point x="331.3606557377049" y="597.8360655737705" type="line"/>
      <point x="309.60655737704917" y="597.8360655737705" type="line"/>
    </contour>
  </outline>
</glyph>
<glyph name="B" format="2">
  <advance width="646.2459016393443"/>
  <unicode hex="0042"/>
  <outline>
    <contour>
      <point x="87.75409836065573" y="0.0" type="line"/>
      <point x="87.75409836065573" y="690.0" type="line"/>
      <point x="406.8524590163934" y="690.0" type="line" smooth="yes"/>
      <point x="564.4918032786885" y="690.0"/>
      <point x="564.4918032786885" y="532.360655737705" type="qcurve" smooth="yes"/>
      <point x="564.4918032786885" y="466.4590163934426" type="line" smooth="yes"/>
      <point x="564.4918032786885" y="432.4590163934426"/>
      <point x="544.4918032786885" y="408.4590163934426" type="qcurve" smooth="yes"/>
      <point x="509.4918032786885" y="366.4590163934426" type="line"/>
      <point x="551.4918032786885" y="331.4590163934426" type="line" smooth="yes"/>
      <point x="584.4918032786885" y="304.4590163934426"/>
      <point x="584.4918032786885" y="251.45901639344262" type="qcurve" smooth="yes"/>
      <point x="584.4918032786885" y="157.63934426229508" type="line" smooth="yes"/>
      <point x="584.4918032786885" y="0.0"/>
      <point x="426.8524590163934" y="0.0" type="qcurve" smooth="yes"/>
    </contour>
    <contour>
      <point x="189.45901639344262" y="92.1639344262295" type="line"/>
      <point x="426.4590163934426" y="92.1639344262295" type="line" smooth="yes"/>
      <point x="482.78688524590166" y="92.1639344262295"/>
      <point x="482.78688524590166" y="148.49180327868854" type="qcurve" smooth="yes"/>
      <point x="482.78688524590166" y="257.40983606557376" type="line" smooth="yes"/>
      <point x="482.78688524590166" y="313.7377049180328"/>
      <point x="426.4590163934426" y="313.7377049180328" type="qcurve" smooth="yes"/>
      <point x="189.45901639344262" y="313.7377049180328" type="line"/>
    </contour>
    <contour>
      <point x="189.45901639344262" y="405.9016393442623" type="line"/>
      <point x="406.4590163934426" y="405.9016393442623" type="line" smooth="yes"/>
      <point x="462.78688524590166" y="405.9016393442623"/>
      <point x="462.78688524590166" y="462.8032786885246" type="qcurve" smooth="yes"/>
      <point x="462.78688524590166" y="541.5081967213115" type="line" smooth="yes"/>
      <point x="462.78688524590166" y="597.8360655737705"/>
      <point x="406.4590163934426" y="597.8360655737705" type="qcurve" smooth="yes"/>
      <point x="189.45901639344262" y="597.8360655737705" type="line"/>
    </contour>
  </outline>
</glyph>
<glyph name="C" format="2">
  <advance width="614.360655737705"/>
  <unicode hex="0043"/>
  <outline>
    <contour>
      <point x="77.75409836065573" y="157.63934426229508" type="qcurve" smooth="yes"/>
      <point x="77.75409836065573" y="532.360655737705" type="line" smooth="yes"/>
      <point x="77.75409836065573" y="690.0"/>
      <point x="235.39344262295083" y="690.0" type="qcurve" smooth="yes"/>
      <point x="512.7540983606557" y="690.0" type="line"/>
      <point x="564.360655737705" y="650.0819672131148" type="line"/>
      <point x="564.360655737705" y="597.8360655737705" type="line"/>
      <point x="236.36065573770492" y="597.8360655737705" type="line" smooth="yes"/>
      <point x="179.45901639344262" y="597.8360655737705"/>
      <point x="179.45901639344262" y="541.5081967213115" type="qcurve" smooth="yes"/>
      <point x="179.45901639344262" y="148.49180327868854" type="line" smooth="yes"/>
      <point x="179.45901639344262" y="92.1639344262295"/>
      <point x="236.36065573770492" y="92.1639344262295" type="qcurve" smooth="yes"/>
      <point x="564.360655737705" y="92.1639344262295" type="line"/>
      <point x="564.360655737705" y="39.91803278688525" type="line"/>
      <point x="512.7540983606557" y="0.0" type="line"/>
      <point x="235.39344262295083" y="0.0" type="line" smooth="yes"/>
      <point x="77.75409836065573" y="0.0"/>
    </contour>
  </outline>
</glyph>
<glyph name="D" format="2">
  <advance width="682.2459016393443"/>
  <unicode hex="0044"/>
  <outline>
    <contour>
      <point x="87.75409836065573" y="0.0" type="line"/>
      <point x="87.75409836065573" y="690.0" type="line"/>
      <point x="355.5081967213115" y="690.0" type="line" smooth="yes"/>
      <point x="614.4918032786885" y="690.0"/>
      <point x="614.4918032786885" y="430.44262295081967" type="qcurve" smooth="yes"/>
      <point x="614.4918032786885" y="259.55737704918033" type="line" smooth="yes"/>
      <point x="614.4918032786885" y="0.0"/>
      <point x="355.5081967213115" y="0.0" type="qcurve" smooth="yes"/>
    </contour>
    <contour>
      <point x="189.45901639344262" y="92.1639344262295" type="line"/>
      <point x="361.4918032786885" y="92.1639344262295" type="line" smooth="yes"/>
      <point x="512.7868852459017" y="92.1639344262295"/>
      <point x="512.7868852459017" y="243.88524590163934" type="qcurve" smooth="yes"/>
      <point x="512.7868852459017" y="446.11475409836066" type="line" smooth="yes"/>
      <point x="512.7868852459017" y="597.8360655737705"/>
      <point x="361.4918032786885" y="597.8360655737705" type="qcurve" smooth="yes"/>
      <point x="189.45901639344262" y="597.8360655737705" type="line"/>
    </contour>
  </outline>
</glyph>
<glyph name="E" format="2">
  <advance width="594.360655737705"/>
  <unicode hex="0045"/>
  <outline>
    <contour>
      <point x="87.75409836065573" y="0.0" type="line"/>
      <point x="87.75409836065573" y="690.0" type="line"/>
      <point x="544.360655737705" y="690.0" type="line"/>
      <point x="544.360655737705" y="597.8360655737705" type="line"/>
      <point x="189.45901639344262" y="597.8360655737705" type="line"/>
      <point x="189.45901639344262" y="405.9016393442623" type="line"/>
      <point x="514.360655737705" y="405.9016393442623" type="line"/>
      <point x="514.360655737705" y="313.7377049180328" type="line"/>
      <point x="189.45901639344262" y="313.7377049180328" type="line"/>
      <point x="189.45901639344262" y="92.1639344262295" type="line"/>
      <point x="544.360655737705" y="92.1639344262295" type="line"/>
      <point x="544.360655737705" y="0.0" type="line"/>
    </contour>
  </outline>
</glyph>
<glyph name="F" format="2">
  <advance width="574.360655737705"/>
  <unicode hex="0046"/>
  <outline>
    <contour>
      <point x="87.75409836065573" y="0.0" type="line"/>
      <point x="87.75409836065573" y="690.0" type="line"/>
      <point x="544.360655737705" y="690.0" type="line"/>
      <point x="544.360655737705" y="597.8360655737705" type="line"/>
      <point x="189.45901639344262" y="597.8360655737705" type="line"/>
      <point x="189.45901639344262" y="375.9016393442623" type="line"/>
      <point x="514.360655737705" y="375.9016393442623" type="line"/>
      <point x="514.360655737705" y="283.7377049180328" type="line"/>
      <point x="189.45901639344262" y="283.7377049180328" type="line"/>
      <point x="189.45901639344262" y="0.0" type="line"/>
    </contour>
  </outline>
</glyph>
<glyph name="G" format="2">
  <advance width="672.2459016393443"/>
  <unicode hex="0047"/>
  <outline>
    <contour>
      <point x="77.75409836065573" y="157.63934426229508" type="qcurve" smooth="yes"/>
      <point x="77.75409836065573" y="532.360655737705" type="line" smooth="yes"/>
      <point x="77.75409836065573" y="690.0"/>
      <point x="235.39344262295083" y="690.0" type="qcurve" smooth="yes"/>
      <point x="533.4590163934427" y="690.0" type="line"/>
      <point x="584.4918032786885" y="650.0819672131148" type="line"/>
      <point x="584.4918032786885" y="597.8360655737705" type="line"/>
      <point x="236.36065573770492" y="597.8360655737705" type="line" smooth="yes"/>
      <point x="179.45901639344262" y="597.8360655737705"/>
      <point x="179.45901639344262" y="541.5081967213115" type="qcurve" smooth="yes"/>
      <point x="179.45901639344262" y="148.49180327868854" type="line" smooth="yes"/>
      <point x="179.45901639344262" y="92.1639344262295"/>
      <point x="236.36065573770492" y="92.1639344262295" type="qcurve" smooth="yes"/>
      <point x="502.78688524590166" y="92.1639344262295" type="line"/>
      <point x="502.78688524590166" y="313.7377049180328" type="line"/>
      <point x="344.4590163934426" y="313.7377049180328" type="line"/>
      <point x="344.4590163934426" y="405.9016393442623" type="line"/>
      <point x="604.4918032786885" y="405.9016393442623" type="line"/>
      <point x="604.4918032786885" y="0.0" type="line"/>
      <point x="235.39344262295083" y="0.0" type="line" smooth="yes"/>
      <point x="77.75409836065573" y="0.0"/>
    </contour>
  </outline>
</glyph>
<glyph name="H" format="2">
  <advance width="702.2459016393443"/>
  <unicode hex="0048"/>
  <outline>
    <contour>
      <point x="87.75409836065573" y="0.0" type="line"/>
      <point x="87.75409836065573" y="690.0" type="line"/>
      <point x="189.45901639344262" y="690.0" type="line"/>
      <point x="189.45901639344262" y="405.9016393442623" type="line"/>
      <point x="512.7868852459017" y="405.9016393442623" type="line"/>
      <point x="512.7868852459017" y="690.0" type="line"/>
      <point x="614.4918032786885" y="690.0" type="line"/>
      <point x="614.4918032786885" y="0.0" type="line"/>
      <point x="512.7868852459017" y="0.0" type="line"/>
      <point x="512.7868852459017" y="313.7377049180328" type="line"/>
      <point x="189.45901639344262" y="313.7377049180328" type="line"/>
      <point x="189.45901639344262" y="0.0" type="line"/>
    </contour>
  </outline>
</glyph>
<glyph name="I" format="2">
  <advance width="277.21311475409834"/>
  <unicode hex="0049"/>
  <outline>
    <contour>
      <point x="87.75409836065573" y="0.0" type="line"/>
      <point x="87.75409836065573" y="690.0" type="line"/>
      <point x="189.45901639344262" y="690.0" type="line"/>
      <point x="189.45901639344262" y="0.0" type="line"/>
    </contour>
  </outline>
</glyph>
<glyph name="J" format="2">
  <advance width="606.2459016393443"/>
  <unicode hex="004A"/>
  <outline>
    <contour>
      <point x="57.75409836065574" y="157.63934426229508" type="qcurve" smooth="yes"/>
      <point x="57.75409836065574" y="271.8032786885246" type="line"/>
      <point x="159.45901639344262" y="271.8032786885246" type="line"/>
      <point x="159.45901639344262" y="148.49180327868854" type="line" smooth="yes"/>
      <point x="159.45901639344262" y="92.1639344262295"/>
      <point x="216.36065573770492" y="92.1639344262295" type="qcurve" smooth="yes"/>
      <point x="366.4590163934426" y="92.1639344262295" type="line" smooth="yes"/>
      <point x="422.78688524590166" y="92.1639344262295"/>
      <point x="422.78688524590166" y="148.49180327868854" type="qcurve" smooth="yes"/>
      <point x="422.78688524590166" y="597.8360655737705" type="line"/>
      <point x="208.45901639344262" y="597.8360655737705" type="line"/>
      <point x="208.45901639344262" y="690.0" type="line"/>
      <point x="524.4918032786885" y="690.0" type="line"/>
      <point x="524.4918032786885" y="157.63934426229508" type="line" smooth="yes"/>
      <point x="524.4918032786885" y="0.0"/>
      <point x="366.8524590163934" y="0.0" type="qcurve" smooth="yes"/>
      <point x="215.39344262295083" y="0.0" type="line" smooth="yes"/>
      <point x="57.75409836065574" y="0.0"/>
    </contour>
  </outline>
</glyph>
<glyph name="K" format="2">
  <advance width="642.5081967213115"/>
  <unicode hex="004B"/>
  <outline>
    <contour>
      <point x="87.75409836065573" y="0.0" type="line"/>
      <point x="87.75409836065573" y="690.0" type="line"/>
      <point x="189.45901639344262" y="690.0" type="line"/>
      <point x="189.45901639344262" y="359.88524590163934" type="line"/>
      <point x="485.24590163934425" y="690.0" type="line"/>
      <point x="579.2459016393443" y="690.0" type="line"/>
      <point x="589.5081967213115" y="668.0491803278688" type="line"/>
      <point x="354.0327868852459" y="406.0" type="line"/>
      <point x="613.2131147540983" y="21.950819672131146" type="line"/>
      <point x="602.9508196721312" y="0.0" type="line"/>
      <point x="509.5081967213115" y="0.0" type="line"/>
      <point x="287.9344262295082" y="332.21311475409834" type="line"/>
      <point x="189.45901639344262" y="224.27868852459017" type="line"/>
      <point x="189.45901639344262" y="0.0" type="line"/>
    </contour>
  </outline>
</glyph>
<glyph name="L" format="2">
  <advance width="538.360655737705"/>
  <unicode hex="004C"/>
  <outline>
    <contour>
      <point x="87.75409836065573" y="0.0" type="line"/>
      <point x="87.75409836065573" y="690.0" type="line"/>
      <point x="189.45901639344262" y="690.0" type="line"/>
      <point x="189.45901639344262" y="92.1639344262295" type="line"/>
      <point x="514.360655737705" y="92.1639344262295" type="line"/>
      <point x="514.360655737705" y="0.0" type="line"/>
    </contour>
  </outline>
</glyph>
<glyph name="M" format="2">
  <advance width="872.4098360655738"/>
  <unicode hex="004D"/>
  <outline>
    <contour>
      <point x="87.75409836065573" y="0.0" type="line"/>
      <point x="87.75409836065573" y="690.0" type="line"/>
      <point x="216.31147540983608" y="690.0" type="line"/>
      <point x="436.4918032786885" y="222.19672131147541" type="line"/>
      <point x="656.0983606557377" y="690.0" type="line"/>
      <point x="784.655737704918" y="690.0" type="line"/>
      <point x="784.655737704918" y="0.0" type="line"/>
      <point x="682.9508196721312" y="0.0" type="line"/>
      <point x="682.9508196721312" y="526.344262295082" type="line"/>
      <point x="481.8196721311475" y="97.04918032786885" type="line"/>
      <point x="390.59016393442624" y="97.04918032786885" type="line"/>
      <point x="189.45901639344262" y="526.344262295082" type="line"/>
      <point x="189.45901639344262" y="0.0" type="line"/>
    </contour>
  </outline>
</glyph>
<glyph name="N" format="2">
  <advance width="725.1967213114754"/>
  <unicode hex="004E"/>
  <outline>
    <contour>
      <point x="87.75409836065573" y="0.0" type="line"/>
      <point x="87.75409836065573" y="690.0" type="line"/>
      <point x="199.44262295081967" y="690.0" type="line"/>
      <point x="535.7377049180328" y="161.47540983606558" type="line"/>
      <point x="535.7377049180328" y="690.0" type="line"/>
      <point x="637.4426229508197" y="690.0" type="line"/>
      <point x="637.4426229508197" y="0.0" type="line"/>
      <point x="526.1803278688525" y="0.0" type="line"/>
      <point x="189.45901639344262" y="528.5245901639345" type="line"/>
      <point x="189.45901639344262" y="0.0" type="line"/>
    </contour>
  </outline>
</glyph>
<glyph name="O" format="2">
  <advance width="702.2459016393443"/>
  <unicode hex="004F"/>
  <outline>
    <contour>
      <point x="77.75409836065573" y="157.63934426229508" type="qcurve" smooth="yes"/>
      <point x="77.75409836065573" y="532.360655737705" type="line" smooth="yes"/>
      <point x="77.75409836065573" y="690.0"/>
      <point x="235.39344262295083" y="690.0" type="qcurve" smooth="yes"/>
      <point x="466.8524590163934" y="690.0" type="line" smooth="yes"/>
      <point x="624.4918032786885" y="690.0"/>
      <point x="624.4918032786885" y="532.360655737705" type="qcurve" smooth="yes"/>
      <point x="624.4918032786885" y="157.63934426229508" type="line" smooth="yes"/>
      <point x="624.4918032786885" y="0.0"/>
      <point x="466.8524590163934" y="0.0" type="qcurve" smooth="yes"/>
      <point x="235.39344262295083" y="0.0" type="line" smooth="yes"/>
      <point x="77.75409836065573" y="0.0"/>
    </contour>
    <contour>
      <point x="179.45901639344262" y="148.49180327868854" type="line" smooth="yes"/>
      <point x="179.45901639344262" y="92.1639344262295"/>
      <point x="236.36065573770492" y="92.1639344262295" type="qcurve" smooth="yes"/>
      <point x="466.4590163934426" y="92.1639344262295" type="line" smooth="yes"/>
      <point x="522.7868852459017" y="92.1639344262295"/>
      <point x="522.7868852459017" y="148.49180327868854" type="qcurve" smooth="yes"/>
      <point x="522.7868852459017" y="541.5081967213115" type="line" smooth="yes"/>
      <point x="522.7868852459017" y="597.8360655737705"/>
      <point x="466.4590163934426" y="597.8360655737705" type="qcurve" smooth="yes"/>
      <point x="236.36065573770492" y="597.8360655737705" type="line" smooth="yes"/>
      <point x="179.45901639344262" y="597.8360655737705"/>
      <point x="179.45901639344262" y="541.5081967213115" type="qcurve" smooth="yes"/>
    </contour>
  </outline>
</glyph>
<glyph name="P" format="2">
  <advance width="632.2459016393443"/>
  <unicode hex="0050"/>
  <outline>
    <contour>
      <point x="87.75409836065573" y="0.0" type="line"/>
      <point x="87.75409836065573" y="690.0" type="line"/>
      <point x="416.8524590163934" y="690.0" type="line" smooth="yes"/>
      <point x="574.4918032786885" y="690.0"/>
      <point x="574.4918032786885" y="532.360655737705" type="qcurve" smooth="yes"/>
      <point x="574.4918032786885" y="400.95081967213116" type="line" smooth="yes"/>
      <point x="574.4918032786885" y="243.7377049180328"/>
      <point x="416.8524590163934" y="243.7377049180328" type="qcurve" smooth="yes"/>
      <point x="189.45901639344262" y="243.7377049180328" type="line"/>
      <point x="189.45901639344262" y="0.0" type="line"/>
    </contour>
    <contour>
      <point x="189.45901639344262" y="335.9016393442623" type="line"/>
      <point x="416.4590163934426" y="335.9016393442623" type="line" smooth="yes"/>
      <point x="472.78688524590166" y="335.9016393442623"/>
      <point x="472.78688524590166" y="392.8032786885246" type="qcurve" smooth="yes"/>
      <point x="472.78688524590166" y="541.5081967213115" type="line" smooth="yes"/>
      <point x="472.78688524590166" y="597.8360655737705"/>
      <point x="416.4590163934426" y="597.8360655737705" type="qcurve" smooth="yes"/>
      <point x="189.45901639344262" y="597.8360655737705" type="line"/>
    </contour>
  </outline>
</glyph>
<glyph name="R" format="2">
  <advance width="642.2459016393443"/>
  <unicode hex="0052"/>
  <outline>
    <contour>
      <point x="87.75409836065573" y="0.0" type="line"/>
      <point x="87.75409836065573" y="690.0" type="line"/>
      <point x="416.8524590163934" y="690.0" type="line" smooth="yes"/>
      <point x="574.4918032786885" y="690.0"/>
      <point x="574.4918032786885" y="532.360655737705" type="qcurve" smooth="yes"/>
      <point x="574.4918032786885" y="420.95081967213116" type="line" smooth="yes"/>
      <point x="574.4918032786885" y="292.6393442622951"/>
      <point x="468.6885245901639" y="270.7049180327869" type="qcurve"/>
      <point x="594.4918032786885" y="22.950819672131146" type="line"/>
      <point x="581.9508196721312" y="0.0" type="line"/>
      <point x="495.6393442622951" y="0.0" type="line"/>
      <point x="361.55737704918033" y="263.7377049180328" type="line"/>
      <point x="189.45901639344262" y="263.7377049180328" type="line"/>
      <point x="189.45901639344262" y="0.0" type="line"/>
    </contour>
    <contour>
      <point x="189.45901639344262" y="355.9016393442623" type="line"/>
      <point x="416.4590163934426" y="355.9016393442623" type="line" smooth="yes"/>
      <point x="472.78688524590166" y="355.9016393442623"/>
      <point x="472.78688524590166" y="412.8032786885246" type="qcurve" smooth="yes"/>
      <point x="472.78688524590166" y="541.5081967213115" type="line" smooth="yes"/>
      <point x="472.78688524590166" y="597.8360655737705"/>
      <point x="416.4590163934426" y="597.8360655737705" type="qcurve" smooth="yes"/>
      <point x="189.45901639344262" y="597.8360655737705" type="line"/>
    </contour>
  </outline>
</glyph>
<glyph name="S" format="2">
  <advance width="582.2459016393443"/>
  <unicode hex="0053"/>
  <outline>
    <contour>
      <point x="57.75409836065574" y="39.91803278688525" type="line"/>
      <point x="57.75409836065574" y="92.1639344262295" type="line"/>
      <point x="366.4590163934426" y="92.1639344262295" type="line" smooth="yes"/>
      <point x="422.78688524590166" y="92.1639344262295"/>
      <point x="422.78688524590166" y="148.49180327868854" type="qcurve" smooth="yes"/>
      <point x="422.78688524590166" y="227.39344262295083" type="line" smooth="yes"/>
      <point x="422.78688524590166" y="275.8196721311475"/>
      <point x="379.8032786885246" y="284.1311475409836" type="qcurve" smooth="yes"/>
      <point x="170.70491803278688" y="326.72131147540983" type="line" smooth="yes"/>
      <point x="57.75409836065574" y="349.0"/>
      <point x="57.75409836065574" y="478.2295081967213" type="qcurve" smooth="yes"/>
      <point x="57.75409836065574" y="532.360655737705" type="line" smooth="yes"/>
      <point x="57.75409836065574" y="690.0"/>
      <point x="215.39344262295083" y="690.0" type="qcurve" smooth="yes"/>
      <point x="453.4590163934426" y="690.0" type="line"/>
      <point x="504.4918032786885" y="650.0819672131148" type="line"/>
      <point x="504.4918032786885" y="597.8360655737705" type="line"/>
      <point x="216.36065573770492" y="597.8360655737705" type="line" smooth="yes"/>
      <point x="159.45901639344262" y="597.8360655737705"/>
      <point x="159.45901639344262" y="541.5081967213115" type="qcurve" smooth="yes"/>
      <point x="159.45901639344262" y="474.0655737704918" type="line" smooth="yes"/>
      <point x="159.45901639344262" y="425.4918032786885"/>
      <point x="202.44262295081967" y="416.75409836065575" type="qcurve" smooth="yes"/>
      <point x="411.5409836065574" y="375.59016393442624" type="line" smooth="yes"/>
      <point x="524.4918032786885" y="352.4590163934426"/>
      <point x="524.4918032786885" y="223.65573770491804" type="qcurve" smooth="yes"/>
      <point x="524.4918032786885" y="157.63934426229508" type="line" smooth="yes"/>
      <point x="524.4918032786885" y="0.0"/>
      <point x="366.8524590163934" y="0.0" type="qcurve" smooth="yes"/>
      <point x="109.36065573770492" y="0.0" type="line"/>
    </contour>
  </outline>
</glyph>
<glyph name="T" format="2">
  <advance width="597.9016393442623"/>
  <unicode hex="0054"/>
  <outline>
    <contour>
      <point x="24.0" y="597.8360655737705" type="line"/>
      <point x="24.0" y="690.0" type="line"/>
      <point x="573.9016393442623" y="690.0" type="line"/>
      <point x="573.9016393442623" y="597.8360655737705" type="line"/>
      <point x="349.8032786885246" y="597.8360655737705" type="line"/>
      <point x="349.8032786885246" y="0.0" type="line"/>
      <point x="248.0983606557377" y="0.0" type="line"/>
      <point x="248.0983606557377" y="597.8360655737705" type="line"/>
    </contour>
  </outline>
</glyph>
<glyph name="U" format="2">
  <advance width="690.2459016393443"/>
  <unicode hex="0055"/>
  <outline>
    <contour>
      <point x="81.75409836065573" y="157.63934426229508" type="qcurve" smooth="yes"/>
      <point x="81.75409836065573" y="690.0" type="line"/>
      <point x="183.45901639344262" y="690.0" type="line"/>
      <point x="183.45901639344262" y="148.49180327868854" type="line" smooth="yes"/>
      <point x="183.45901639344262" y="92.1639344262295"/>
      <point x="240.36065573770492" y="92.1639344262295" type="qcurve" smooth="yes"/>
      <point x="450.4590163934426" y="92.1639344262295" type="line" smooth="yes"/>
      <point x="506.78688524590166" y="92.1639344262295"/>
      <point x="506.78688524590166" y="148.49180327868854" type="qcurve" smooth="yes"/>
      <point x="506.78688524590166" y="690.0" type="line"/>
      <point x="608.4918032786885" y="690.0" type="line"/>
      <point x="608.4918032786885" y="157.63934426229508" type="line" smooth="yes"/>
      <point x="608.4918032786885" y="0.0"/>
      <point x="450.8524590163934" y="0.0" type="qcurve" smooth="yes"/>
      <point x="239.39344262295083" y="0.0" type="line" smooth="yes"/>
      <point x="81.75409836065573" y="0.0"/>
    </contour>
  </outline>
</glyph>
<glyph name="V" format="2">
  <advance width="630.3934426229508"/>
  <unicode hex="0056"/>
  <outline>
    <contour>
      <point x="19.295081967213115" y="668.9016393442623" type="line"/>
      <point x="33.40983606557377" y="690.0" type="line"/>
      <point x="120.85245901639344" y="690.0" type="line"/>
      <point x="304.60655737704917" y="92.1639344262295" type="line"/>
      <point x="326.3606557377049" y="92.1639344262295" type="line"/>
      <point x="510.11475409836066" y="690.0" type="line"/>
      <point x="597.5573770491803" y="690.0" type="line"/>
      <point x="611.0983606557377" y="668.9016393442623" type="line"/>
      <point x="399.7049180327869" y="0.0" type="line"/>
      <point x="230.68852459016392" y="0.0" type="line"/>
    </contour>
  </outline>
</glyph>
<glyph name="W" format="2">
  <advance width="930.3934426229508"/>
  <unicode hex="0057"/>
  <outline>
    <contour>
      <point x="29.295081967213115" y="668.9016393442623" type="line"/>
      <point x="44.26229508196721" y="690.0" type="line"/>
      <point x="126.29508196721312" y="690.0" type="line"/>
      <point x="260.88524590163934" y="92.1639344262295" type="line"/>
      <point x="273.327868852459" y="92.1639344262295" type="line"/>
      <point x="415.1967213114754" y="616.9508196721312" type="line"/>
      <point x="515.7704918032787" y="616.9508196721312" type="line"/>
      <point x="657.0655737704918" y="92.1639344262295" type="line"/>
      <point x="670.0819672131148" y="92.1639344262295" type="line"/>
      <point x="804.0983606557377" y="690.0" type="line"/>
      <point x="886.1311475409836" y="690.0" type="line"/>
      <point x="901.0983606557377" y="668.9016393442623" type="line"/>
      <point x="749.4098360655738" y="0.0" type="line"/>
      <point x="583.8524590163935" y="0.0" type="line"/>
      <point x="465.1967213114754" y="445.13114754098365" type="line"/>
      <point x="346.54098360655735" y="0.0" type="line"/>
      <point x="181.55737704918033" y="0.0" type="line"/>
    </contour>
  </outline>
</glyph>
<glyph name="X" format="2">
  <advance width="620.3934426229508"/>
  <unicode hex="0058"/>
  <outline>
    <contour>
      <point x="29.295081967213115" y="21.950819672131146" type="line"/>
      <point x="253.63934426229508" y="355.0" type="line"/>
      <point x="42.295081967213115" y="668.0491803278688" type="line"/>
      <point x="52.557377049180324" y="690.0" type="line"/>
      <point x="141.29508196721312" y="690.0" type="line"/>
      <point x="310.1967213114754" y="434.75409836065575" type="line"/>
      <point x="479.0983606557377" y="690.0" type="line"/>
      <point x="567.8360655737705" y="690.0" type="line"/>
      <point x="578.0983606557377" y="668.0491803278688" type="line"/>
      <point x="366.75409836065575" y="355.0" type="line"/>
      <point x="591.0983606557377" y="21.950819672131146" type="line"/>
      <point x="580.4098360655738" y="0.0" type="line"/>
      <point x="492.0983606557377" y="0.0" type="line"/>
      <point x="310.1967213114754" y="275.39344262295083" type="line"/>
      <point x="128.29508196721312" y="0.0" type="line"/>
      <point x="39.98360655737705" y="0.0" type="line"/>
    </contour>
  </outline>
</glyph>
<glyph name="Y" format="2">
  <advance width="590.3934426229508"/>
  <unicode hex="0059"/>
  <outline>
    <contour>
      <point x="19.295081967213115" y="668.9016393442623" type="line"/>
      <point x="32.40983606557377" y="690.0" type="line"/>
      <point x="118.29508196721312" y="690.0" type="line"/>
      <point x="295.1967213114754" y="357.2950819672131" type="line"/>
      <point x="472.0983606557377" y="690.0" type="line"/>
      <point x="558.5573770491803" y="690.0" type="line"/>
      <point x="571.0983606557377" y="668.9016393442623" type="line"/>
      <point x="346.04918032786884" y="252.34426229508196" type="line"/>
      <point x="346.04918032786884" y="0.0" type="line"/>
      <point x="244.34426229508196" y="0.0" type="line"/>
      <point x="244.34426229508196" y="252.34426229508196" type="line"/>
    </contour>
  </outline>
</glyph>
<glyph name="Z" format="2">
  <advance width="602.2459016393443"/>
  <unicode hex="005A"/>
  <outline>
    <contour>
      <point x="47.75409836065574" y="0.0" type="line"/>
      <point x="47.75409836065574" y="80.0655737704918" type="line"/>
      <point x="417.59016393442624" y="597.8360655737705" type="line"/>
      <point x="57.75409836065574" y="597.8360655737705" type="line"/>
      <point x="57.75409836065574" y="690.0" type="line"/>
      <point x="544.4918032786885" y="690.0" type="line"/>
      <point x="544.4918032786885" y="609.9344262295082" type="line"/>
      <point x="174.65573770491804" y="92.1639344262295" type="line"/>
      <point x="554.4918032786885" y="92.1639344262295" type="line"/>
      <point x="554.4918032786885" y="0.0" type="line"/>
    </contour>
  </outline>
</glyph>
<glyph name="bracketleft" format="2">
  <advance width="352.5081967213115"/>
  <unicode hex="005B"/>
  <outline>
    <contour>
      <point x="87.75409836065573" y="-180.0" type="line"/>
      <point x="87.75409836065573" y="760.0" type="line"/>
      <point x="322.5081967213115" y="760.0" type="line"/>
      <point x="322.5081967213115" y="675.2459016393443" type="line"/>
      <point x="184.75409836065575" y="675.2459016393443" type="line"/>
      <point x="184.75409836065575" y="-95.24590163934427" type="line"/>
      <point x="322.5081967213115" y="-95.24590163934427" type="line"/>
      <point x="322.5081967213115" y="-180.0" type="line"/>
    </contour>
  </outline>
</glyph>
<glyph name="backslash" format="2">
  <advance width="403.344262295082"/>
  <unicode hex="005C"/>
  <outline>
    <contour>
      <point x="20.0" y="712.327868852459" type="line"/>
      <point x="103.19672131147541" y="742.2459016393443" type="line"/>
      <point x="383.344262295082" y="-22.327868852459016" type="line"/>
      <point x="301.1475409836066" y="-52.24590163934426" type="line"/>
    </contour>
  </outline>
</glyph>
<glyph name="bracketright" format="2">
  <advance width="352.5081967213115"/>
  <unicode hex="005D"/>
  <outline>
    <contour>
      <point x="30.0" y="-95.24590163934427" type="line"/>
      <point x="167.75409836065575" y="-95.24590163934427" type="line"/>
      <point x="167.75409836065575" y="675.2459016393443" type="line"/>
      <point x="30.0" y="675.2459016393443" type="line"/>
      <point x="30.0" y="760.0" type="line"/>
      <point x="264.75409836065575" y="760.0" type="line"/>
      <point x="264.75409836065575" y="-180.0" type="line"/>
      <point x="30.0" y="-180.0" type="line"/>
    </contour>
  </outline>
</glyph>
<glyph name="asciicircum" format="2">
  <advance width="547.311475409836"/>
  <unicode hex="005E"/>
  <outline>
    <contour>
      <point x="37.75409836065574" y="348.2295081967213" type="line"/>
      <point x="226.36065573770492" y="690.0" type="line"/>
      <point x="320.95081967213116" y="690.0" type="line"/>
      <point x="509.55737704918033" y="348.2295081967213" type="line"/>
      <point x="434.04918032786884" y="306.344262295082" type="line"/>
      <point x="273.655737704918" y="599.9672131147541" type="line"/>
      <point x="113.26229508196721" y="306.344262295082" type="line"/>
    </contour>
  </outline>
</glyph>
<glyph name="a" format="2">
  <advance width="544.2459016393443"/>
  <unicode hex="0061"/>
  <outline>
    <contour>
      <point x="203.98360655737704" y="0.0" type="line" smooth="yes"/>
      <point x="49.75409836065574" y="0.0"/>
      <point x="49.75409836065574" y="306.4918032786885"/>
      <point x="203.98360655737704" y="306.4918032786885" type="qcurve" smooth="yes"/>
      <point x="373.4918032786885" y="306.4918032786885" type="line"/>
      <point x="373.4918032786885" y="378.59016393442624" type="line" smooth="yes"/>
      <point x="373.4918032786885" y="437.4918032786885"/>
      <point x="314.59016393442624" y="437.4918032786885" type="qcurve" smooth="yes"/>
      <point x="101.29508196721312" y="437.4918032786885" type="line"/>
      <point x="101.29508196721312" y="488.0327868852459" type="line"/>
      <point x="147.19672131147541" y="522.2459016393443" type="line"/>
      <point x="317.40983606557376" y="522.2459016393443" type="line" smooth="yes"/>
      <point x="470.4918032786885" y="522.2459016393443"/>
      <point x="470.4918032786885" y="368.59016393442624" type="qcurve" smooth="yes"/>
      <point x="470.4918032786885" y="0.0" type="line"/>
    </contour>
    <contour>
      <point x="146.75409836065575" y="143.65573770491804" type="line" smooth="yes"/>
      <point x="146.75409836065575" y="84.75409836065573"/>
      <point x="205.65573770491804" y="84.75409836065573" type="qcurve" smooth="yes"/>
      <point x="373.4918032786885" y="84.75409836065573" type="line"/>
      <point x="373.4918032786885" y="229.8360655737705" type="line"/>
      <point x="205.65573770491804" y="229.8360655737705" type="line" smooth="yes"/>
      <point x="146.75409836065575" y="229.8360655737705"/>
      <point x="146.75409836065575" y="170.9344262295082" type="qcurve" smooth="yes"/>
    </contour>
  </outline>
</glyph>
<glyph name="b" format="2">
  <advance width="584.2459016393443"/>
  <unicode hex="0062"/>
  <outline>
    <contour>
      <point x="77.75409836065573" y="0.0" type="line"/>
      <point x="77.75409836065573" y="740.0" type="line"/>
      <point x="174.75409836065575" y="740.0" type="line"/>
      <point x="174.75409836065575" y="522.2459016393443" type="line"/>
      <point x="361.40983606557376" y="522.2459016393443" type="line" smooth="yes"/>
      <point x="514.4918032786885" y="522.2459016393443"/>
      <point x="514.4918032786885" y="368.59016393442624" type="qcurve" smooth="yes"/>
      <point x="514.4918032786885" y="153.65573770491804" type="line" smooth="yes"/>
      <point x="514.4918032786885" y="0.0"/>
      <point x="361.40983606557376" y="0.0" type="qcurve" smooth="yes"/>
    </contour>
    <contour>
      <point x="174.75409836065575" y="84.75409836065573" type="line"/>
      <point x="358.59016393442624" y="84.75409836065573" type="line" smooth="yes"/>
      <point x="417.4918032786885" y="84.75409836065573"/>
      <point x="417.4918032786885" y="143.65573770491804" type="qcurve" smooth="yes"/>
      <point x="417.4918032786885" y="378.59016393442624" type="line" smooth="yes"/>
      <point x="417.4918032786885" y="437.4918032786885"/>
      <point x="358.59016393442624" y="437.4918032786885" type="qcurve" smooth="yes"/>
      <point x="174.75409836065575" y="437.4918032786885" type="line"/>
    </contour>
  </outline>
</glyph>
<glyph name="c" format="2">
  <advance width="508.3606557377049"/>
  <unicode hex="0063"/>
  <outline>
    <contour>
      <point x="69.75409836065573" y="153.65573770491804" type="qcurve" smooth="yes"/>
      <point x="69.75409836065573" y="368.59016393442624" type="line" smooth="yes"/>
      <point x="69.75409836065573" y="522.2459016393443"/>
      <point x="223.40983606557376" y="522.2459016393443" type="qcurve" smooth="yes"/>
      <point x="416.4590163934426" y="522.2459016393443" type="line"/>
      <point x="462.3606557377049" y="488.0327868852459" type="line"/>
      <point x="462.3606557377049" y="437.4918032786885" type="line"/>
      <point x="225.65573770491804" y="437.4918032786885" type="line" smooth="yes"/>
      <point x="166.75409836065575" y="437.4918032786885"/>
      <point x="166.75409836065575" y="378.59016393442624" type="qcurve" smooth="yes"/>
      <point x="166.75409836065575" y="143.65573770491804" type="line" smooth="yes"/>
      <point x="166.75409836065575" y="84.75409836065573"/>
      <point x="225.65573770491804" y="84.75409836065573" type="qcurve" smooth="yes"/>
      <point x="462.3606557377049" y="84.75409836065573" type="line"/>
      <point x="462.3606557377049" y="34.213114754098356" type="line"/>
      <point x="416.4590163934426" y="0.0" type="line"/>
      <point x="223.40983606557376" y="0.0" type="line" smooth="yes"/>
      <point x="69.75409836065573" y="0.0"/>
    </contour>
  </outline>
</glyph>
<glyph name="e" format="2">
  <advance width="576.2459016393443"/>
  <unicode hex="0065"/>
  <outline>
    <contour>
      <point x="69.75409836065573" y="153.65573770491804" type="qcurve" smooth="yes"/>
      <point x="69.75409836065573" y="368.59016393442624" type="line" smooth="yes"/>
      <point x="69.75409836065573" y="522.2459016393443"/>
      <point x="223.40983606557376" y="522.2459016393443" type="qcurve" smooth="yes"/>
      <point x="353.40983606557376" y="522.2459016393443" type="line" smooth="yes"/>
      <point x="506.4918032786885" y="522.2459016393443"/>
      <point x="506.4918032786885" y="368.59016393442624" type="qcurve" smooth="yes"/>
      <point x="506.4918032786885" y="224.50819672131146" type="line"/>
      <point x="166.75409836065575" y="224.50819672131146" type="line"/>
      <point x="166.75409836065575" y="143.65573770491804" type="line" smooth="yes"/>
      <point x="166.75409836065575" y="84.75409836065573"/>
      <point x="225.65573770491804" y="84.75409836065573" type="qcurve" smooth="yes"/>
      <point x="486.4918032786885" y="84.75409836065573" type="line"/>
      <point x="486.4918032786885" y="34.213114754098356" type="line"/>
      <point x="440.59016393442624" y="0.0" type="line"/>
      <point x="223.40983606557376" y="0.0" type="line" smooth="yes"/>
      <point x="69.75409836065573" y="0.0"/>
    </contour>
    <contour>
      <point x="166.75409836065575" y="301.1639344262295" type="line"/>
      <point x="409.4918032786885" y="301.1639344262295" type="line"/>
      <point x="409.4918032786885" y="378.59016393442624" type="line" smooth="yes"/>
      <point x="409.4918032786885" y="437.4918032786885"/>
      <point x="350.59016393442624" y="437.4918032786885" type="qcurve" smooth="yes"/>
      <point x="225.65573770491804" y="437.4918032786885" type="line" smooth="yes"/>
      <point x="166.75409836065575" y="437.4918032786885"/>
      <point x="166.75409836065575" y="378.59016393442624" type="qcurve" smooth="yes"/>
    </contour>
  </outline>
</glyph>
<glyph name="f" format="2">
  <advance width="389.55737704918033"/>
  <unicode hex="0066"/>
  <outline>
    <contour>
      <point x="77.75409836065573" y="0.0" type="line"/>
      <point x="77.75409836065573" y="586.344262295082" type="line" smooth="yes"/>
      <point x="77.75409836065573" y="740.0"/>
      <point x="231.40983606557376" y="740.0" type="qcurve" smooth="yes"/>
      <point x="323.655737704918" y="740.0" type="line"/>
      <point x="369.55737704918033" y="705.7868852459017" type="line"/>
      <point x="369.55737704918033" y="655.2459016393443" type="line"/>
      <point x="233.65573770491804" y="655.2459016393443" type="line" smooth="yes"/>
      <point x="174.75409836065575" y="655.2459016393443"/>
      <point x="174.75409836065575" y="596.344262295082" type="qcurve" smooth="yes"/>
      <point x="174.75409836065575" y="522.2459016393443" type="line"/>
      <point x="359.55737704918033" y="522.2459016393443" type="line"/>
      <point x="359.55737704918033" y="437.4918032786885" type="line"/>
      <point x="174.75409836065575" y="437.4918032786885" type="line"/>
      <point x="174.75409836065575" y="0.0" type="line"/>
    </contour>
  </outline>
</glyph>
<glyph name="g" format="2">
  <advance width="582.0"/>
  <unicode hex="0067"/>
  <outline>
    <contour>
      <point x="68.34426229508196" y="153.65573770491804" type="qcurve" smooth="yes"/>
      <point x="68.34426229508196" y="368.59016393442624" type="line" smooth="yes"/>
      <point x="68.34426229508196" y="522.2459016393443"/>
      <point x="222.0" y="522.2459016393443" type="qcurve" smooth="yes"/>
      <point x="505.655737704918" y="522.2459016393443" type="line"/>
      <point x="505.655737704918" y="-46.34426229508197" type="line" smooth="yes"/>
      <point x="505.655737704918" y="-200.0"/>
      <point x="352.0" y="-200.0" type="qcurve" smooth="yes"/>
      <point x="155.9344262295082" y="-200.0" type="line"/>
      <point x="110.0327868852459" y="-165.78688524590163" type="line"/>
      <point x="110.0327868852459" y="-115.24590163934427" type="line"/>
      <point x="349.75409836065575" y="-115.24590163934427" type="line" smooth="yes"/>
      <point x="408.655737704918" y="-115.24590163934427"/>
      <point x="408.655737704918" y="-56.34426229508197" type="qcurve" smooth="yes"/>
      <point x="408.655737704918" y="0.0" type="line"/>
      <point x="222.0" y="0.0" type="line" smooth="yes"/>
      <point x="68.34426229508196" y="0.0"/>
    </contour>
    <contour>
      <point x="165.34426229508196" y="143.65573770491804" type="line" smooth="yes"/>
      <point x="165.34426229508196" y="84.75409836065573"/>
      <point x="224.24590163934425" y="84.75409836065573" type="qcurve" smooth="yes"/>
      <point x="408.655737704918" y="84.75409836065573" type="line"/>
      <point x="408.655737704918" y="437.4918032786885" type="line"/>
      <point x="224.24590163934425" y="437.4918032786885" type="line" smooth="yes"/>
      <point x="165.34426229508196" y="437.4918032786885"/>
      <point x="165.34426229508196" y="378.59016393442624" type="qcurve" smooth="yes"/>
    </contour>
  </outline>
</glyph>
<glyph name="h" format="2">
  <advance width="588.2459016393443"/>
  <unicode hex="0068"/>
  <outline>
    <contour>
      <point x="77.75409836065573" y="0.0" type="line"/>
      <point x="77.75409836065573" y="740.0" type="line"/>
      <point x="174.75409836065575" y="740.0" type="line"/>
      <point x="174.75409836065575" y="522.2459016393443" type="line"/>
      <point x="361.40983606557376" y="522.2459016393443" type="line" smooth="yes"/>
      <point x="514.4918032786885" y="522.2459016393443"/>
      <point x="514.4918032786885" y="368.59016393442624" type="qcurve" smooth="yes"/>
      <point x="514.4918032786885" y="0.0" type="line"/>
      <point x="417.4918032786885" y="0.0" type="line"/>
      <point x="417.4918032786885" y="378.59016393442624" type="line" smooth="yes"/>
      <point x="417.4918032786885" y="437.4918032786885"/>
      <point x="358.59016393442624" y="437.4918032786885" type="qcurve" smooth="yes"/>
      <point x="174.75409836065575" y="437.4918032786885" type="line"/>
      <point x="174.75409836065575" y="0.0" type="line"/>
    </contour>
  </outline>
</glyph>
<glyph name="i" format="2">
  <advance width="252.50819672131146"/>
  <unicode hex="0069"/>
  <outline>
    <contour>
      <point x="74.0327868852459" y="616.2950819672132" type="line"/>
      <point x="74.0327868852459" y="721.9508196721312" type="line"/>
      <point x="178.47540983606558" y="721.9508196721312" type="line"/>
      <point x="178.47540983606558" y="616.2950819672132" type="line"/>
    </contour>
    <contour>
      <point x="77.75409836065573" y="0.0" type="line"/>
      <point x="77.75409836065573" y="522.2459016393443" type="line"/>
      <point x="174.75409836065575" y="522.2459016393443" type="line"/>
      <point x="174.75409836065575" y="0.0" type="line"/>
    </contour>
  </outline>
</glyph>
<glyph name="j" format="2">
  <advance width="252.50819672131146"/>
  <unicode hex="006A"/>
  <outline>
    <contour>
      <point x="-8.704918032786885" y="-126.22950819672131" type="line"/>
      <point x="77.75409836065573" y="-122.52459016393442"/>
      <point x="77.75409836065573" y="-36.49180327868853" type="qcurve" smooth="yes"/>
      <point x="77.75409836065573" y="522.2459016393443" type="line"/>
      <point x="174.75409836065575" y="522.2459016393443" type="line"/>
      <point x="174.75409836065575" y="-25.245901639344268" type="line" smooth="yes"/>
      <point x="174.75409836065575" y="-208.70491803278688"/>
      <point x="-8.704918032786885" y="-208.70491803278688" type="qcurve"/>
    </contour>
    <contour>
      <point x="74.0327868852459" y="616.2950819672132" type="line"/>
      <point x="74.0327868852459" y="721.9508196721312" type="line"/>
      <point x="178.47540983606558" y="721.9508196721312" type="line"/>
      <point x="178.47540983606558" y="616.2950819672132" type="line"/>
    </contour>
  </outline>
</glyph>
<glyph name="k" format="2">
  <advance width="543.4590163934427"/>
  <unicode hex="006B"/>
  <outline>
    <contour>
      <point x="77.75409836065573" y="0.0" type="line"/>
      <point x="77.75409836065573" y="740.0" type="line"/>
      <point x="174.75409836065575" y="740.0" type="line"/>
      <point x="174.75409836065575" y="277.0655737704918" type="line"/>
      <point x="398.75409836065575" y="522.2459016393443" type="line"/>
      <point x="493.75409836065575" y="522.2459016393443" type="line"/>
      <point x="502.1639344262295" y="505.0" type="line"/>
      <point x="317.1475409836066" y="303.5409836065574" type="line"/>
      <point x="516.1639344262295" y="17.24590163934426" type="line"/>
      <point x="507.75409836065575" y="0.0" type="line"/>
      <point x="412.60655737704917" y="0.0" type="line"/>
      <point x="253.04918032786884" y="233.88524590163934" type="line"/>
      <point x="174.75409836065575" y="149.29508196721312" type="line"/>
      <point x="174.75409836065575" y="0.0" type="line"/>
    </contour>
  </outline>
</glyph>
<glyph name="l" format="2">
  <advance width="274.75409836065575"/>
  <unicode hex="006C"/>
  <outline>
    <contour>
      <point x="73.75409836065573" y="156.75409836065575" type="qcurve" smooth="yes"/>
      <point x="73.75409836065573" y="740.0" type="line"/>
      <point x="170.75409836065575" y="740.0" type="line"/>
      <point x="170.75409836065575" y="147.21311475409834" type="line" smooth="yes"/>
      <point x="170.75409836065575" y="79.60655737704917"/>
      <point x="239.21311475409834" y="75.47540983606558" type="qcurve"/>
      <point x="239.21311475409834" y="-8.704918032786885" type="line"/>
      <point x="73.75409836065573" y="-8.704918032786885"/>
    </contour>
  </outline>
</glyph>
<glyph name="m" format="2">
  <advance width="898.2459016393443"/>
  <unicode hex="006D"/>
  <outline>
    <contour>
      <point x="77.75409836065573" y="0.0" type="line"/>
      <point x="77.75409836065573" y="522.2459016393443" type="line"/>
      <point x="671.4098360655738" y="522.2459016393443" type="line" smooth="yes"/>
      <point x="824.4918032786885" y="522.2459016393443"/>
      <point x="824.4918032786885" y="368.59016393442624" type="qcurve" smooth="yes"/>
      <point x="824.4918032786885" y="0.0" type="line"/>
      <point x="727.4918032786885" y="0.0" type="line"/>
      <point x="727.4918032786885" y="378.59016393442624" type="line" smooth="yes"/>
      <point x="727.4918032786885" y="437.4918032786885"/>
      <point x="668.5901639344262" y="437.4918032786885" type="qcurve" smooth="yes"/>
      <point x="499.8360655737705" y="437.4918032786885" type="line"/>
      <point x="499.8360655737705" y="0.0" type="line"/>
      <point x="402.40983606557376" y="0.0" type="line"/>
      <point x="402.40983606557376" y="437.4918032786885" type="line"/>
      <point x="174.75409836065575" y="437.4918032786885" type="line"/>
      <point x="174.75409836065575" y="0.0" type="line"/>
    </contour>
  </outline>
</glyph>
<glyph name="o" format="2">
  <advance width="586.2459016393443"/>
  <unicode hex="006F"/>
  <outline>
    <contour>
      <point x="69.75409836065573" y="153.65573770491804" type="qcurve" smooth="yes"/>
      <point x="69.75409836065573" y="368.59016393442624" type="line" smooth="yes"/>
      <point x="69.75409836065573" y="522.2459016393443"/>
      <point x="223.40983606557376" y="522.2459016393443" type="qcurve" smooth="yes"/>
      <point x="363.40983606557376" y="522.2459016393443" type="line" smooth="yes"/>
      <point x="516.4918032786885" y="522.2459016393443"/>
      <point x="516.4918032786885" y="368.59016393442624" type="qcurve" smooth="yes"/>
      <point x="516.4918032786885" y="153.65573770491804" type="line" smooth="yes"/>
      <point x="516.4918032786885" y="0.0"/>
      <point x="363.40983606557376" y="0.0" type="qcurve" smooth="yes"/>
      <point x="223.40983606557376" y="0.0" type="line" smooth="yes"/>
      <point x="69.75409836065573" y="0.0"/>
    </contour>
    <contour>
      <point x="166.75409836065575" y="143.65573770491804" type="line" smooth="yes"/>
      <point x="166.75409836065575" y="84.75409836065573"/>
      <point x="225.65573770491804" y="84.75409836065573" type="qcurve" smooth="yes"/>
      <point x="360.59016393442624" y="84.75409836065573" type="line" smooth="yes"/>
      <point x="419.4918032786885" y="84.75409836065573"/>
      <point x="419.4918032786885" y="143.65573770491804" type="qcurve" smooth="yes"/>
      <point x="419.4918032786885" y="378.59016393442624" type="line" smooth="yes"/>
      <point x="419.4918032786885" y="437.4918032786885"/>
      <point x="360.59016393442624" y="437.4918032786885" type="qcurve" smooth="yes"/>
      <point x="225.65573770491804" y="437.4918032786885" type="line" smooth="yes"/>
      <point x="166.75409836065575" y="437.4918032786885"/>
      <point x="166.75409836065575" y="378.59016393442624" type="qcurve" smooth="yes"/>
    </contour>
  </outline>
</glyph>
<glyph name="p" format="2">
  <advance width="584.2459016393443"/>
  <unicode hex="0070"/>
  <outline>
    <contour>
      <point x="77.75409836065573" y="-200.0" type="line"/>
      <point x="77.75409836065573" y="522.2459016393443" type="line"/>
      <point x="361.40983606557376" y="522.2459016393443" type="line" smooth="yes"/>
      <point x="514.4918032786885" y="522.2459016393443"/>
      <point x="514.4918032786885" y="368.59016393442624" type="qcurve" smooth="yes"/>
      <point x="514.4918032786885" y="153.65573770491804" type="line" smooth="yes"/>
      <point x="514.4918032786885" y="0.0"/>
      <point x="361.40983606557376" y="0.0" type="qcurve" smooth="yes"/>
      <point x="174.75409836065575" y="0.0" type="line"/>
      <point x="174.75409836065575" y="-200.0" type="line"/>
    </contour>
    <contour>
      <point x="174.75409836065575" y="84.75409836065573" type="line"/>
      <point x="358.59016393442624" y="84.75409836065573" type="line" smooth="yes"/>
      <point x="417.4918032786885" y="84.75409836065573"/>
      <point x="417.4918032786885" y="143.65573770491804" type="qcurve" smooth="yes"/>
      <point x="417.4918032786885" y="378.59016393442624" type="line" smooth="yes"/>
      <point x="417.4918032786885" y="437.4918032786885"/>
      <point x="358.59016393442624" y="437.4918032786885" type="qcurve" smooth="yes"/>
      <point x="174.75409836065575" y="437.4918032786885" type="line"/>
    </contour>
  </outline>
</glyph>
<glyph name="q" format="2">
  <advance width="584.2459016393443"/>
  <unicode hex="0071"/>
  <outline>
    <contour>
      <point x="69.75409836065573" y="153.65573770491804" type="qcurve" smooth="yes"/>
      <point x="69.75409836065573" y="368.59016393442624" type="line" smooth="yes"/>
      <point x="69.75409836065573" y="522.2459016393443"/>
      <point x="223.40983606557376" y="522.2459016393443" type="qcurve" smooth="yes"/>
      <point x="506.4918032786885" y="522.2459016393443" type="line"/>
      <point x="506.4918032786885" y="-200.0" type="line"/>
      <point x="409.4918032786885" y="-200.0" type="line"/>
      <point x="409.4918032786885" y="0.0" type="line"/>
      <point x="223.40983606557376" y="0.0" type="line" smooth="yes"/>
      <point x="69.75409836065573" y="0.0"/>
    </contour>
    <contour>
      <point x="166.75409836065575" y="143.65573770491804" type="line" smooth="yes"/>
      <point x="166.75409836065575" y="84.75409836065573"/>
      <point x="225.65573770491804" y="84.75409836065573" type="qcurve" smooth="yes"/>
      <point x="409.4918032786885" y="84.75409836065573" type="line"/>
      <point x="409.4918032786885" y="437.4918032786885" type="line"/>
      <point x="225.65573770491804" y="437.4918032786885" type="line" smooth="yes"/>
      <point x="166.75409836065575" y="437.4918032786885"/>
      <point x="166.75409836065575" y="378.59016393442624" type="qcurve" smooth="yes"/>
    </contour>
  </outline>
</glyph>
<glyph name="r" format="2">
  <advance width="381.55737704918033"/>
  <unicode hex="0072"/>
  <outline>
    <contour>
      <point x="73.75409836065573" y="0.0" type="line"/>
      <point x="73.75409836065573" y="460.0" type="line"/>
      <point x="109.45901639344262" y="522.2459016393443"/>
      <point x="207.40983606557376" y="522.2459016393443" type="qcurve" smooth="yes"/>
      <point x="309.655737704918" y="522.2459016393443" type="line"/>
      <point x="355.55737704918033" y="488.0327868852459" type="line"/>
      <point x="355.55737704918033" y="437.4918032786885" type="line"/>
      <point x="225.85245901639345" y="437.4918032786885" type="line" smooth="yes"/>
      <point x="186.9344262295082" y="437.4918032786885"/>
      <point x="170.75409836065575" y="417.3114754098361" type="qcurve"/>
      <point x="170.75409836065575" y="0.0" type="line"/>
    </contour>
  </outline>
</glyph>
<glyph name="s" format="2">
  <advance width="502.24590163934425"/>
  <unicode hex="0073"/>
  <outline>
    <contour>
      <point x="57.885245901639344" y="34.213114754098356" type="line"/>
      <point x="57.885245901639344" y="84.75409836065573" type="line"/>
      <point x="289.0327868852459" y="84.75409836065573" type="line" smooth="yes"/>
      <point x="348.0655737704918" y="84.75409836065573"/>
      <point x="348.0655737704918" y="145.19672131147541" type="qcurve" smooth="yes"/>
      <point x="348.0655737704918" y="206.63934426229508"/>
      <point x="300.3606557377049" y="214.80327868852459" type="qcurve" smooth="yes"/>
      <point x="184.59016393442624" y="234.0983606557377" type="line" smooth="yes"/>
      <point x="57.885245901639344" y="255.52459016393442"/>
      <point x="57.885245901639344" y="373.9016393442623" type="qcurve" smooth="yes"/>
      <point x="57.885245901639344" y="522.2459016393443"/>
      <point x="212.11475409836066" y="522.2459016393443" type="qcurve" smooth="yes"/>
      <point x="374.88524590163934" y="522.2459016393443" type="line"/>
      <point x="420.78688524590166" y="488.0327868852459" type="line"/>
      <point x="420.78688524590166" y="437.4918032786885" type="line"/>
      <point x="213.63934426229508" y="437.4918032786885" type="line" smooth="yes"/>
      <point x="154.0327868852459" y="437.4918032786885"/>
      <point x="154.0327868852459" y="377.04918032786884" type="qcurve" smooth="yes"/>
      <point x="154.0327868852459" y="320.5081967213115"/>
      <point x="204.45901639344262" y="312.1967213114754" type="qcurve" smooth="yes"/>
      <point x="320.2295081967213" y="292.9016393442623" type="line" smooth="yes"/>
      <point x="444.78688524590166" y="272.4754098360656"/>
      <point x="444.78688524590166" y="148.91803278688525" type="qcurve" smooth="yes"/>
      <point x="444.78688524590166" y="0.0"/>
      <point x="289.9836065573771" y="0.0" type="qcurve" smooth="yes"/>
      <point x="103.78688524590164" y="0.0" type="line"/>
    </contour>
  </outline>
</glyph>
<glyph name="t" format="2">
  <advance width="401.55737704918033"/>
  <unicode hex="0074"/>
  <outline>
    <contour>
      <point x="73.75409836065573" y="153.65573770491804" type="qcurve" smooth="yes"/>
      <point x="73.75409836065573" y="690.0" type="line"/>
      <point x="170.75409836065575" y="690.0" type="line"/>
      <point x="170.75409836065575" y="522.2459016393443" type="line"/>
      <point x="355.55737704918033" y="522.2459016393443" type="line"/>
      <point x="355.55737704918033" y="437.4918032786885" type="line"/>
      <point x="170.75409836065575" y="437.4918032786885" type="line"/>
      <point x="170.75409836065575" y="143.65573770491804" type="line" smooth="yes"/>
      <point x="170.75409836065575" y="84.75409836065573"/>
      <point x="229.65573770491804" y="84.75409836065573" type="qcurve" smooth="yes"/>
      <point x="365.55737704918033" y="84.75409836065573" type="line"/>
      <point x="365.55737704918033" y="34.213114754098356" type="line"/>
      <point x="319.655737704918" y="0.0" type="line"/>
      <point x="227.40983606557376" y="0.0" type="line" smooth="yes"/>
      <point x="73.75409836065573" y="0.0"/>
    </contour>
  </outline>
</glyph>
<glyph name="u" format="2">
  <advance width="588.2459016393443"/>
  <unicode hex="0075"/>
  <outline>
    <contour>
      <point x="73.75409836065573" y="153.65573770491804" type="qcurve" smooth="yes"/>
      <point x="73.75409836065573" y="522.2459016393443" type="line"/>
      <point x="170.75409836065575" y="522.2459016393443" type="line"/>
      <point x="170.75409836065575" y="143.65573770491804" type="line" smooth="yes"/>
      <point x="170.75409836065575" y="84.75409836065573"/>
      <point x="229.65573770491804" y="84.75409836065573" type="qcurve" smooth="yes"/>
      <point x="413.4918032786885" y="84.75409836065573" type="line"/>
      <point x="413.4918032786885" y="522.2459016393443" type="line"/>
      <point x="510.4918032786885" y="522.2459016393443" type="line"/>
      <point x="510.4918032786885" y="0.0" type="line"/>
      <point x="227.40983606557376" y="0.0" type="line" smooth="yes"/>
      <point x="73.75409836065573" y="0.0"/>
    </contour>
  </outline>
</glyph>
<glyph name="v" format="2">
  <advance width="530.3934426229508"/>
  <unicode hex="0076"/>
  <outline>
    <contour>
      <point x="19.295081967213115" y="506.27868852459017" type="line"/>
      <point x="29.983606557377048" y="522.2459016393443" type="line"/>
      <point x="113.73770491803279" y="522.2459016393443" type="line"/>
      <point x="256.4590163934426" y="84.75409836065573" type="line"/>
      <point x="273.9344262295082" y="84.75409836065573" type="line"/>
      <point x="416.655737704918" y="522.2459016393443" type="line"/>
      <point x="500.40983606557376" y="522.2459016393443" type="line"/>
      <point x="511.0983606557377" y="506.27868852459017" type="line"/>
      <point x="341.1639344262295" y="0.0" type="line"/>
      <point x="189.80327868852459" y="0.0" type="line"/>
    </contour>
  </outline>
</glyph>
<glyph name="w" format="2">
  <advance width="796.655737704918"/>
  <unicode hex="0077"/>
  <outline>
    <contour>
      <point x="23.295081967213115" y="506.27868852459017" type="line"/>
      <point x="34.557377049180324" y="522.2459016393443" type="line"/>
      <point x="115.31147540983606" y="522.2459016393443" type="line"/>
      <point x="213.86885245901638" y="84.75409836065573" type="line"/>
      <point x="225.9016393442623" y="84.75409836065573" type="line"/>
      <point x="343.62295081967216" y="522.2459016393443" type="line"/>
      <point x="453.0327868852459" y="522.2459016393443" type="line"/>
      <point x="570.7540983606557" y="84.75409836065573" type="line"/>
      <point x="583.360655737705" y="84.75409836065573" type="line"/>
      <point x="681.9180327868852" y="522.2459016393443" type="line"/>
      <point x="762.0983606557377" y="522.2459016393443" type="line"/>
      <point x="773.360655737705" y="506.27868852459017" type="line"/>
      <point x="656.4262295081967" y="0.0" type="line"/>
      <point x="504.95081967213116" y="0.0" type="line"/>
      <point x="398.327868852459" y="409.1803278688525" type="line"/>
      <point x="291.7049180327869" y="0.0" type="line"/>
      <point x="140.80327868852459" y="0.0" type="line"/>
    </contour>
  </outline>
</glyph>
<glyph name="x" format="2">
  <advance width="530.3934426229508"/>
  <unicode hex="0078"/>
  <outline>
    <contour>
      <point x="29.295081967213115" y="17.24590163934426" type="line"/>
      <point x="210.0655737704918" y="265.7049180327869" type="line"/>
      <point x="35.59016393442623" y="505.0" type="line"/>
      <point x="44.0" y="522.2459016393443" type="line"/>
      <point x="133.7377049180328" y="522.2459016393443" type="line"/>
      <point x="265.1967213114754" y="337.1967213114754" type="line"/>
      <point x="396.655737704918" y="522.2459016393443" type="line"/>
      <point x="486.39344262295083" y="522.2459016393443" type="line"/>
      <point x="494.8032786885246" y="505.0" type="line"/>
      <point x="320.9016393442623" y="265.7049180327869" type="line"/>
      <point x="501.0983606557377" y="17.24590163934426" type="line"/>
      <point x="493.2622950819672" y="0.0" type="line"/>
      <point x="402.95081967213116" y="0.0" type="line"/>
      <point x="265.1967213114754" y="193.78688524590166" type="line"/>
      <point x="127.44262295081967" y="0.0" type="line"/>
      <point x="37.704918032786885" y="0.0" type="line"/>
    </contour>
  </outline>
</glyph>
<glyph name="y" format="2">
  <advance width="530.3934426229508"/>
  <unicode hex="0079"/>
  <outline>
    <contour>
      <point x="19.295081967213115" y="506.27868852459017" type="line"/>
      <point x="29.983606557377048" y="522.2459016393443" type="line"/>
      <point x="113.73770491803279" y="522.2459016393443" type="line"/>
      <point x="256.4590163934426" y="84.75409836065573" type="line"/>
      <point x="273.9344262295082" y="84.75409836065573" type="line"/>
      <point x="416.655737704918" y="522.2459016393443" type="line"/>
      <point x="500.40983606557376" y="522.2459016393443" type="line"/>
      <point x="511.0983606557377" y="506.27868852459017" type="line"/>
      <point x="273.983606557377" y="-200.0" type="line"/>
      <point x="190.2295081967213" y="-200.0" type="line"/>
      <point x="179.54098360655738" y="-184.0327868852459" type="line"/>
      <point x="245.14754098360655" y="0.0" type="line"/>
      <point x="189.80327868852459" y="0.0" type="line"/>
    </contour>
  </outline>
</glyph>
<glyph name="z" format="2">
  <advance width="512.2459016393443"/>
  <unicode hex="007A"/>
  <outline>
    <contour>
      <point x="47.75409836065574" y="0.0" type="line"/>
      <point x="47.75409836065574" y="74.50819672131146" type="line"/>
      <point x="331.2950819672131" y="437.4918032786885" type="line"/>
      <point x="57.75409836065574" y="437.4918032786885" type="line"/>
      <point x="57.75409836065574" y="522.2459016393443" type="line"/>
      <point x="454.4918032786885" y="522.2459016393443" type="line"/>
      <point x="454.4918032786885" y="447.7377049180328" type="line"/>
      <point x="171.37704918032787" y="84.75409836065573" type="line"/>
      <point x="464.4918032786885" y="84.75409836065573" type="line"/>
      <point x="464.4918032786885" y="0.0" type="line"/>
    </contour>
  </outline>
</glyph>
<glyph name="braceleft" format="2">
  <advance width="391.8032786885246"/>
  <unicode hex="007B"/>
  <outline>
    <contour>
      <point x="50.0" y="264.37704918032784" type="line"/>
      <point x="50.0" y="313.0983606557377" type="line"/>
      <point x="137.04918032786884" y="399.72131147540983" type="line"/>
      <point x="137.04918032786884" y="606.344262295082" type="line" smooth="yes"/>
      <point x="137.04918032786884" y="760.0"/>
      <point x="290.7049180327869" y="760.0" type="qcurve" smooth="yes"/>
      <point x="361.8032786885246" y="760.0" type="line"/>
      <point x="361.8032786885246" y="675.2459016393443" type="line"/>
      <point x="292.95081967213116" y="675.2459016393443" type="line" smooth="yes"/>
      <point x="234.04918032786884" y="675.2459016393443"/>
      <point x="234.04918032786884" y="616.344262295082" type="qcurve" smooth="yes"/>
      <point x="234.04918032786884" y="376.0655737704918" type="line"/>
      <point x="145.14754098360655" y="288.3114754098361" type="line"/>
      <point x="234.04918032786884" y="200.55737704918033" type="line"/>
      <point x="234.04918032786884" y="-36.34426229508197" type="line" smooth="yes"/>
      <point x="234.04918032786884" y="-95.24590163934427"/>
      <point x="292.95081967213116" y="-95.24590163934427" type="qcurve" smooth="yes"/>
      <point x="361.8032786885246" y="-95.24590163934427" type="line"/>
      <point x="361.8032786885246" y="-180.0" type="line"/>
      <point x="290.7049180327869" y="-180.0" type="line" smooth="yes"/>
      <point x="137.04918032786884" y="-180.0"/>
      <point x="137.04918032786884" y="-26.34426229508197" type="qcurve" smooth="yes"/>
      <point x="137.04918032786884" y="176.9016393442623" type="line"/>
    </contour>
  </outline>
</glyph>
<glyph name="braceright" format="2">
  <advance width="391.8032786885246"/>
  <unicode hex="007D"/>
  <outline>
    <contour>
      <point x="30.0" y="-95.24590163934427" type="line"/>
      <point x="98.85245901639344" y="-95.24590163934427" type="line" smooth="yes"/>
      <point x="157.75409836065575" y="-95.24590163934427"/>
      <point x="157.75409836065575" y="-36.34426229508197" type="qcurve" smooth="yes"/>
      <point x="157.75409836065575" y="200.55737704918033" type="line"/>
      <point x="246.65573770491804" y="288.3114754098361" type="line"/>
      <point x="157.75409836065575" y="376.0655737704918" type="line"/>
      <point x="157.75409836065575" y="616.344262295082" type="line" smooth="yes"/>
      <point x="157.75409836065575" y="675.2459016393443"/>
      <point x="98.85245901639344" y="675.2459016393443" type="qcurve" smooth="yes"/>
      <point x="30.0" y="675.2459016393443" type="line"/>
      <point x="30.0" y="760.0" type="line"/>
      <point x="101.09836065573771" y="760.0" type="line" smooth="yes"/>
      <point x="254.75409836065575" y="760.0"/>
      <point x="254.75409836065575" y="606.344262295082" type="qcurve" smooth="yes"/>
      <point x="254.75409836065575" y="399.72131147540983" type="line"/>
      <point x="341.8032786885246" y="313.0983606557377" type="line"/>
      <point x="341.8032786885246" y="264.37704918032784" type="line"/>
      <point x="254.75409836065575" y="176.9016393442623" type="line"/>
      <point x="254.75409836065575" y="-26.34426229508197" type="line" smooth="yes"/>
      <point x="254.75409836065575" y="-180.0"/>
      <point x="101.09836065573771" y="-180.0" type="qcurve" smooth="yes"/>
      <point x="30.0" y="-180.0" type="line"/>
    </contour>
  </outline>
</glyph>
<glyph name="asciitilde" format="2">
  <advance width="578.0"/>
  <unicode hex="007E"/>
  <outline>
    <contour>
      <point x="44.08196721311475" y="309.91803278688525" type="line"/>
      <point x="134.91803278688525" y="400.1803278688525" type="line" smooth="yes"/>
      <point x="166.327868852459" y="432.1639344262295"/>
      <point x="251.672131147541" y="432.1639344262295"/>
      <point x="283.08196721311475" y="400.1803278688525" type="qcurve" smooth="yes"/>
      <point x="343.3606557377049" y="340.4754098360656" type="line" smooth="yes"/>
      <point x="356.9672131147541" y="326.8688524590164"/>
      <point x="381.0327868852459" y="326.8688524590164"/>
      <point x="394.6393442622951" y="340.4754098360656" type="qcurve" smooth="yes"/>
      <point x="474.08196721311475" y="419.91803278688525" type="line"/>
      <point x="533.9180327868852" y="360.08196721311475" type="line"/>
      <point x="443.08196721311475" y="269.8196721311475" type="line" smooth="yes"/>
      <point x="411.672131147541" y="237.8360655737705"/>
      <point x="326.327868852459" y="237.8360655737705"/>
      <point x="294.91803278688525" y="269.8196721311475" type="qcurve" smooth="yes"/>
      <point x="234.63934426229508" y="329.5245901639344" type="line" smooth="yes"/>
      <point x="221.0327868852459" y="343.1311475409836"/>
      <point x="196.9672131147541" y="343.1311475409836"/>
      <point x="183.36065573770492" y="329.5245901639344" type="qcurve" smooth="yes"/>
      <point x="103.91803278688525" y="250.08196721311475" type="line"/>
    </contour>
  </outline>
</glyph>
<glyph name="exclamdown" format="2">
  <advance width="265.1967213114754"/>
  <unicode hex="00A1"/>
  <outline>
    <contour>
      <point x="76.65573770491804" y="404.8524590163934" type="line"/>
      <point x="76.65573770491804" y="522.2459016393443" type="line"/>
      <point x="189.11475409836066" y="522.2459016393443" type="line"/>
      <point x="189.11475409836066" y="404.8524590163934" type="line"/>
    </contour>
    <contour>
      <point x="81.81967213114754" y="-167.75409836065575" type="line"/>
      <point x="81.81967213114754" y="308.59016393442624" type="line"/>
      <point x="183.52459016393442" y="308.59016393442624" type="line"/>
      <point x="183.52459016393442" y="-167.75409836065575" type="line"/>
    </contour>
  </outline>
</glyph>
<glyph name="cent" format="2">
  <advance width="578.0"/>
  <unicode hex="00A2"/>
  <outline>
    <contour>
      <point x="90.34426229508196" y="153.65573770491804" type="qcurve" smooth="yes"/>
      <point x="90.34426229508196" y="368.59016393442624" type="line" smooth="yes"/>
      <point x="90.34426229508196" y="522.2459016393443"/>
      <point x="244.0" y="522.2459016393443" type="qcurve" smooth="yes"/>
      <point x="275.6885245901639" y="522.2459016393443" type="line"/>
      <point x="275.6885245901639" y="632.2459016393443" type="line"/>
      <point x="356.3114754098361" y="632.2459016393443" type="line"/>
      <point x="356.3114754098361" y="522.2459016393443" type="line"/>
      <point x="437.04918032786884" y="522.2459016393443" type="line"/>
      <point x="482.95081967213116" y="488.0327868852459" type="line"/>
      <point x="482.95081967213116" y="437.4918032786885" type="line"/>
      <point x="246.24590163934425" y="437.4918032786885" type="line" smooth="yes"/>
      <point x="187.34426229508196" y="437.4918032786885"/>
      <point x="187.34426229508196" y="378.59016393442624" type="qcurve" smooth="yes"/>
      <point x="187.34426229508196" y="143.65573770491804" type="line" smooth="yes"/>
      <point x="187.34426229508196" y="84.75409836065573"/>
      <point x="246.24590163934425" y="84.75409836065573" type="qcurve" smooth="yes"/>
      <point x="482.95081967213116" y="84.75409836065573" type="line"/>
      <point x="482.95081967213116" y="34.213114754098356" type="line"/>
      <point x="437.04918032786884" y="0.0" type="line"/>
      <point x="356.3114754098361" y="0.0" type="line"/>
      <point x="356.3114754098361" y="-110.0" type="line"/>
      <point x="275.6885245901639" y="-110.0" type="line"/>
      <point x="275.6885245901639" y="0.0" type="line"/>
      <point x="244.0" y="0.0" type="line" smooth="yes"/>
      <point x="90.34426229508196" y="0.0"/>
    </contour>
  </outline>
</glyph>
<glyph name="sterling" format="2">
  <advance width="578.0"/>
  <unicode hex="00A3"/>
  <outline>
    <contour>
      <point x="61.049180327868854" y="0.0" type="line"/>
      <point x="61.049180327868854" y="92.1639344262295" type="line"/>
      <point x="150.34426229508196" y="92.1639344262295" type="line"/>
      <point x="150.34426229508196" y="304.6885245901639" type="line"/>
      <point x="61.049180327868854" y="304.6885245901639" type="line"/>
      <point x="61.049180327868854" y="385.3114754098361" type="line"/>
      <point x="150.34426229508196" y="385.3114754098361" type="line"/>
      <point x="150.34426229508196" y="532.360655737705" type="line" smooth="yes"/>
      <point x="150.34426229508196" y="690.0"/>
      <point x="307.9836065573771" y="690.0" type="qcurve" smooth="yes"/>
      <point x="455.344262295082" y="690.0" type="line"/>
      <point x="506.95081967213116" y="650.0819672131148" type="line"/>
      <point x="506.95081967213116" y="597.8360655737705" type="line"/>
      <point x="308.95081967213116" y="597.8360655737705" type="line" smooth="yes"/>
      <point x="252.04918032786884" y="597.8360655737705"/>
      <point x="252.04918032786884" y="541.5081967213115" type="qcurve" smooth="yes"/>
      <point x="252.04918032786884" y="385.3114754098361" type="line"/>
      <point x="420.95081967213116" y="385.3114754098361" type="line"/>
      <point x="420.95081967213116" y="304.6885245901639" type="line"/>
      <point x="252.04918032786884" y="304.6885245901639" type="line"/>
      <point x="252.04918032786884" y="92.1639344262295" type="line"/>
      <point x="526.9508196721312" y="92.1639344262295" type="line"/>
      <point x="526.9508196721312" y="0.0" type="line"/>
    </contour>
  </outline>
</glyph>
<glyph name="currency" format="2">
  <advance width="578.0"/>
  <unicode hex="00A4"/>
  <outline>
    <contour>
      <point x="53.786885245901644" y="161.63934426229508" type="line"/>
      <point x="132.45901639344262" y="240.31147540983608" type="line"/>
      <point x="132.45901639344262" y="459.6885245901639" type="line"/>
      <point x="53.786885245901644" y="538.360655737705" type="line"/>
      <point x="105.63934426229508" y="590.2131147540983" type="line"/>
      <point x="184.31147540983608" y="511.5409836065574" type="line"/>
      <point x="393.6885245901639" y="511.5409836065574" type="line"/>
      <point x="472.3606557377049" y="590.2131147540983" type="line"/>
      <point x="524.2131147540983" y="538.360655737705" type="line"/>
      <point x="445.5409836065574" y="459.6885245901639" type="line"/>
      <point x="445.5409836065574" y="240.31147540983608" type="line"/>
      <point x="524.2131147540983" y="161.63934426229508" type="line"/>
      <point x="472.3606557377049" y="109.78688524590164" type="line"/>
      <point x="393.6885245901639" y="188.45901639344262" type="line"/>
      <point x="184.31147540983608" y="188.45901639344262" type="line"/>
      <point x="105.63934426229508" y="109.78688524590164" type="line"/>
    </contour>
    <contour>
      <point x="209.0983606557377" y="286.4754098360656" type="line" smooth="yes"/>
      <point x="209.0983606557377" y="259.5245901639344"/>
      <point x="236.04918032786884" y="259.5245901639344" type="qcurve" smooth="yes"/>
      <point x="341.95081967213116" y="259.5245901639344" type="line" smooth="yes"/>
      <point x="368.9016393442623" y="259.5245901639344"/>
      <point x="368.9016393442623" y="286.4754098360656" type="qcurve" smooth="yes"/>
      <point x="368.9016393442623" y="413.5245901639344" type="line" smooth="yes"/>
      <point x="368.9016393442623" y="440.4754098360656"/>
      <point x="341.95081967213116" y="440.4754098360656" type="qcurve" smooth="yes"/>
      <point x="236.04918032786884" y="440.4754098360656" type="line" smooth="yes"/>
      <point x="209.0983606557377" y="440.4754098360656"/>
      <point x="209.0983606557377" y="413.5245901639344" type="qcurve" smooth="yes"/>
    </contour>
  </outline>
</glyph>
<glyph name="yen" format="2">
  <advance width="578.0"/>
  <unicode hex="00A5"/>
  <outline>
    <contour>
      <point x="23.81967213114754" y="668.9016393442623" type="line"/>
      <point x="36.36065573770492" y="690.0" type="line"/>
      <point x="122.81967213114754" y="690.0" type="line"/>
      <point x="289.0" y="377.2950819672131" type="line"/>
      <point x="455.1803278688525" y="690.0" type="line"/>
      <point x="541.639344262295" y="690.0" type="line"/>
      <point x="554.1803278688525" y="668.9016393442623" type="line"/>
      <point x="364.3606557377049" y="318.78688524590166" type="line"/>
      <point x="483.95081967213116" y="318.78688524590166" type="line"/>
      <point x="483.95081967213116" y="256.04918032786884" type="line"/>
      <point x="339.8524590163934" y="256.04918032786884" type="line"/>
      <point x="339.8524590163934" y="178.8360655737705" type="line"/>
      <point x="483.95081967213116" y="178.8360655737705" type="line"/>
      <point x="483.95081967213116" y="116.09836065573771" type="line"/>
      <point x="339.8524590163934" y="116.09836065573771" type="line"/>
      <point x="339.8524590163934" y="0.0" type="line"/>
      <point x="238.14754098360655" y="0.0" type="line"/>
      <point x="238.14754098360655" y="116.09836065573771" type="line"/>
      <point x="94.04918032786885" y="116.09836065573771" type="line"/>
      <point x="94.04918032786885" y="178.8360655737705" type="line"/>
      <point x="238.14754098360655" y="178.8360655737705" type="line"/>
      <point x="238.14754098360655" y="256.04918032786884" type="line"/>
      <point x="94.04918032786885" y="256.04918032786884" type="line"/>
      <point x="94.04918032786885" y="318.78688524590166" type="line"/>
      <point x="213.63934426229508" y="318.78688524590166" type="line"/>
    </contour>
  </outline>
</glyph>
<glyph name="brokenbar" format="2">
  <advance width="285.0983606557377"/>
  <unicode hex="00A6"/>
  <outline>
    <contour>
      <point x="98.45901639344262" y="171.54098360655738" type="line"/>
      <point x="187.21311475409834" y="171.54098360655738" type="line"/>
      <point x="187.21311475409834" y="-200.0" type="line"/>
      <point x="98.45901639344262" y="-200.0" type="line"/>
    </contour>
    <contour>
      <point x="98.45901639344262" y="368.4590163934426" type="line"/>
      <point x="98.45901639344262" y="740.0" type="line"/>
      <point x="187.21311475409834" y="740.0" type="line"/>
      <point x="187.21311475409834" y="368.4590163934426" type="line"/>
    </contour>
  </outline>
</glyph>
<glyph name="section" format="2">
  <advance width="541.4098360655738"/>
  <unicode hex="00A7"/>
  <outline>
    <contour>
      <point x="78.32786885245902" y="-15.245901639344268" type="line"/>
      <point x="306.0327868852459" y="-15.245901639344268" type="line" smooth="yes"/>
      <point x="366.78688524590166" y="-15.245901639344268"/>
      <point x="366.78688524590166" y="45.19672131147541" type="qcurve" smooth="yes"/>
      <point x="366.78688524590166" y="94.01639344262296"/>
      <point x="337.44262295081967" y="101.0327868852459" type="qcurve" smooth="yes"/>
      <point x="186.0983606557377" y="135.24590163934425" type="line" smooth="yes"/>
      <point x="78.32786885245902" y="157.81967213114754"/>
      <point x="78.32786885245902" y="273.9016393442623" type="qcurve" smooth="yes"/>
      <point x="78.32786885245902" y="402.1803278688525" type="line"/>
      <point x="115.42622950819673" y="439.27868852459017" type="line"/>
      <point x="78.32786885245902" y="473.26229508196724"/>
      <point x="78.32786885245902" y="540.5081967213115" type="qcurve" smooth="yes"/>
      <point x="78.32786885245902" y="690.0"/>
      <point x="229.68852459016392" y="690.0" type="qcurve" smooth="yes"/>
      <point x="394.60655737704917" y="690.0" type="line"/>
      <point x="440.5081967213115" y="655.7868852459017" type="line"/>
      <point x="440.5081967213115" y="605.2459016393443" type="line"/>
      <point x="236.2295081967213" y="605.2459016393443" type="line" smooth="yes"/>
      <point x="175.47540983606558" y="605.2459016393443"/>
      <point x="175.47540983606558" y="544.8032786885246" type="qcurve" smooth="yes"/>
      <point x="175.47540983606558" y="495.9836065573771"/>
      <point x="204.39344262295083" y="488.9672131147541" type="qcurve" smooth="yes"/>
      <point x="355.73770491803276" y="454.75409836065575" type="line" smooth="yes"/>
      <point x="463.9344262295082" y="432.1803278688525"/>
      <point x="463.9344262295082" y="316.0983606557377" type="qcurve" smooth="yes"/>
      <point x="463.9344262295082" y="187.81967213114754" type="line"/>
      <point x="426.8360655737705" y="150.72131147540983" type="line"/>
      <point x="463.9344262295082" y="116.73770491803279"/>
      <point x="463.9344262295082" y="49.49180327868852" type="qcurve" smooth="yes"/>
      <point x="463.9344262295082" y="-100.0"/>
      <point x="312.57377049180326" y="-100.0" type="qcurve" smooth="yes"/>
      <point x="124.22950819672131" y="-100.0" type="line"/>
      <point x="78.32786885245902" y="-65.78688524590164" type="line"/>
    </contour>
    <contour>
      <point x="175.47540983606558" y="276.4754098360656" type="line" smooth="yes"/>
      <point x="175.47540983606558" y="222.80327868852459"/>
      <point x="217.01639344262296" y="212.77049180327867" type="qcurve" smooth="yes"/>
      <point x="366.78688524590166" y="178.0983606557377" type="line"/>
      <point x="366.78688524590166" y="313.5245901639344" type="line" smooth="yes"/>
      <point x="366.78688524590166" y="367.1967213114754"/>
      <point x="324.8196721311475" y="377.2295081967213" type="qcurve" smooth="yes"/>
      <point x="175.47540983606558" y="411.9016393442623" type="line"/>
    </contour>
  </outline>
</glyph>
<glyph name="copyright" format="2">
  <advance width="841.4098360655738"/>
  <unicode hex="00A9"/>
  <outline>
    <contour>
      <point x="77.75409836065573" y="102.04918032786885" type="qcurve" smooth="yes"/>
      <point x="77.75409836065573" y="587.9508196721312" type="line" smooth="yes"/>
      <point x="77.75409836065573" y="690.0"/>
      <point x="179.80327868852459" y="690.0" type="qcurve" smooth="yes"/>
      <point x="661.6065573770492" y="690.0" type="line" smooth="yes"/>
      <point x="763.655737704918" y="690.0"/>
      <point x="763.655737704918" y="587.9508196721312" type="qcurve" smooth="yes"/>
      <point x="763.655737704918" y="102.04918032786885" type="line" smooth="yes"/>
      <point x="763.655737704918" y="0.0"/>
      <point x="661.6065573770492" y="0.0" type="qcurve" smooth="yes"/>
      <point x="179.80327868852459" y="0.0" type="line" smooth="yes"/>
      <point x="77.75409836065573" y="0.0"/>
    </contour>
    <contour>
      <point x="150.2622950819672" y="94.34426229508196" type="line" smooth="yes"/>
      <point x="150.2622950819672" y="65.09836065573771"/>
      <point x="178.9344262295082" y="65.09836065573771" type="qcurve" smooth="yes"/>
      <point x="661.9016393442623" y="65.09836065573771" type="line" smooth="yes"/>
      <point x="691.1475409836065" y="65.09836065573771"/>
      <point x="691.1475409836065" y="94.34426229508196" type="qcurve" smooth="yes"/>
      <point x="691.1475409836065" y="595.655737704918" type="line" smooth="yes"/>
      <point x="691.1475409836065" y="624.9016393442623"/>
      <point x="661.9016393442623" y="624.9016393442623" type="qcurve" smooth="yes"/>
      <point x="178.9344262295082" y="624.9016393442623" type="line" smooth="yes"/>
      <point x="150.2622950819672" y="624.9016393442623"/>
      <point x="150.2622950819672" y="595.655737704918" type="qcurve" smooth="yes"/>
    </contour>
    <contour>
      <point x="259.44262295081967" y="258.27868852459017" type="qcurve" smooth="yes"/>
      <point x="259.44262295081967" y="431.72131147540983" type="line" smooth="yes"/>
      <point x="259.44262295081967" y="537.7540983606557"/>
      <point x="365.04918032786884" y="537.7540983606557" type="qcurve" smooth="yes"/>
      <point x="515.7540983606557" y="537.7540983606557" type="line"/>
      <point x="551.9672131147541" y="509.0983606557377" type="line"/>
      <point x="551.9672131147541" y="467.95081967213116" type="line"/>
      <point x="364.1803278688525" y="467.95081967213116" type="line" smooth="yes"/>
      <point x="336.08196721311475" y="467.95081967213116"/>
      <point x="336.08196721311475" y="439.8524590163934" type="qcurve" smooth="yes"/>
      <point x="336.08196721311475" y="250.14754098360655" type="line" smooth="yes"/>
      <point x="336.08196721311475" y="222.04918032786884"/>
      <point x="364.1803278688525" y="222.04918032786884" type="qcurve" smooth="yes"/>
      <point x="551.9672131147541" y="222.04918032786884" type="line"/>
      <point x="551.9672131147541" y="180.9016393442623" type="line"/>
      <point x="515.7540983606557" y="152.24590163934425" type="line"/>
      <point x="365.04918032786884" y="152.24590163934425" type="line" smooth="yes"/>
      <point x="259.44262295081967" y="152.24590163934425"/>
    </contour>
  </outline>
</glyph>
<glyph name="ordfeminine" format="2">
  <advance width="401.40983606557376"/>
  <unicode hex="00AA"/>
  <outline>
    <contour>
      <point x="38.459016393442624" y="400.3606557377049" type="qcurve" smooth="yes"/>
      <point x="38.459016393442624" y="430.4754098360656" type="line" smooth="yes"/>
      <point x="38.459016393442624" y="532.2459016393443"/>
      <point x="148.75409836065575" y="532.2459016393443" type="qcurve" smooth="yes"/>
      <point x="275.7377049180328" y="532.2459016393443" type="line"/>
      <point x="275.7377049180328" y="592.0983606557377" type="line" smooth="yes"/>
      <point x="275.7377049180328" y="620.1967213114754"/>
      <point x="247.63934426229508" y="620.1967213114754" type="qcurve" smooth="yes"/>
      <point x="70.70491803278688" y="620.1967213114754" type="line"/>
      <point x="70.70491803278688" y="661.344262295082" type="line"/>
      <point x="107.34426229508196" y="690.0" type="line"/>
      <point x="246.91803278688525" y="690.0" type="line" smooth="yes"/>
      <point x="352.95081967213116" y="690.0"/>
      <point x="352.95081967213116" y="583.9672131147541" type="qcurve" smooth="yes"/>
      <point x="352.95081967213116" y="298.59016393442624" type="line"/>
      <point x="148.75409836065575" y="298.59016393442624" type="line" smooth="yes"/>
      <point x="38.459016393442624" y="298.59016393442624"/>
    </contour>
    <contour>
      <point x="115.09836065573771" y="396.4918032786885" type="line" smooth="yes"/>
      <point x="115.09836065573771" y="368.39344262295083"/>
      <point x="143.19672131147541" y="368.39344262295083" type="qcurve" smooth="yes"/>
      <point x="275.7377049180328" y="368.39344262295083" type="line"/>
      <point x="275.7377049180328" y="470.11475409836066" type="line"/>
      <point x="143.19672131147541" y="470.11475409836066" type="line" smooth="yes"/>
      <point x="115.09836065573771" y="470.11475409836066"/>
      <point x="115.09836065573771" y="442.0163934426229" type="qcurve" smooth="yes"/>
    </contour>
  </outline>
</glyph>
<glyph name="logicalnot" format="2">
  <advance width="578.0"/>
  <unicode hex="00AC"/>
  <outline>
    <contour>
      <point x="62.59016393442623" y="342.6885245901639" type="line"/>
      <point x="62.59016393442623" y="427.3114754098361" type="line"/>
      <point x="515.4098360655738" y="427.3114754098361" type="line"/>
      <point x="515.4098360655738" y="148.59016393442624" type="line"/>
      <point x="426.655737704918" y="148.59016393442624" type="line"/>
      <point x="426.655737704918" y="342.6885245901639" type="line"/>
    </contour>
  </outline>
</glyph>
<glyph name="registered" format="2">
  <advance width="841.4098360655738"/>
  <unicode hex="00AE"/>
  <outline>
    <contour>
      <point x="77.75409836065573" y="102.04918032786885" type="qcurve" smooth="yes"/>
      <point x="77.75409836065573" y="587.9508196721312" type="line" smooth="yes"/>
      <point x="77.75409836065573" y="690.0"/>
      <point x="179.80327868852459" y="690.0" type="qcurve" smooth="yes"/>
      <point x="661.6065573770492" y="690.0" type="line" smooth="yes"/>
      <point x="763.655737704918" y="690.0"/>
      <point x="763.655737704918" y="587.9508196721312" type="qcurve" smooth="yes"/>
      <point x="763.655737704918" y="102.04918032786885" type="line" smooth="yes"/>
      <point x="763.655737704918" y="0.0"/>
      <point x="661.6065573770492" y="0.0" type="qcurve" smooth="yes"/>
      <point x="179.80327868852459" y="0.0" type="line" smooth="yes"/>
      <point x="77.75409836065573" y="0.0"/>
    </contour>
    <contour>
      <point x="150.2622950819672" y="94.34426229508196" type="line" smooth="yes"/>
      <point x="150.2622950819672" y="65.09836065573771"/>
      <point x="178.9344262295082" y="65.09836065573771" type="qcurve" smooth="yes"/>
      <point x="661.9016393442623" y="65.09836065573771" type="line" smooth="yes"/>
      <point x="691.1475409836065" y="65.09836065573771"/>
      <point x="691.1475409836065" y="94.34426229508196" type="qcurve" smooth="yes"/>
      <point x="691.1475409836065" y="595.655737704918" type="line" smooth="yes"/>
      <point x="691.1475409836065" y="624.9016393442623"/>
      <point x="661.9016393442623" y="624.9016393442623" type="qcurve" smooth="yes"/>
      <point x="178.9344262295082" y="624.9016393442623" type="line" smooth="yes"/>
      <point x="150.2622950819672" y="624.9016393442623"/>
      <point x="150.2622950819672" y="595.655737704918" type="qcurve" smooth="yes"/>
    </contour>
    <contour>
      <point x="276.60655737704917" y="152.24590163934425" type="line"/>
      <point x="276.60655737704917" y="537.7540983606557" type="line"/>
      <point x="464.6393442622951" y="537.7540983606557" type="line" smooth="yes"/>
      <point x="571.0983606557377" y="537.7540983606557"/>
      <point x="571.0983606557377" y="431.72131147540983" type="qcurve" smooth="yes"/>
      <point x="571.0983606557377" y="393.44262295081967" type="line" smooth="yes"/>
      <point x="571.0983606557377" y="317.44262295081967"/>
      <point x="514.4754098360655" y="296.9344262295082" type="qcurve"/>
      <point x="578.5573770491803" y="169.49180327868854" type="line"/>
      <point x="569.7213114754098" y="152.24590163934425" type="line"/>
      <point x="503.344262295082" y="152.24590163934425" type="line"/>
      <point x="434.11475409836066" y="287.8360655737705" type="line"/>
      <point x="353.8196721311475" y="287.8360655737705" type="line"/>
      <point x="353.8196721311475" y="152.24590163934425" type="line"/>
    </contour>
    <contour>
      <point x="353.8196721311475" y="357.6393442622951" type="line"/>
      <point x="465.78688524590166" y="357.6393442622951" type="line" smooth="yes"/>
      <point x="493.88524590163934" y="357.6393442622951"/>
      <point x="493.88524590163934" y="385.73770491803276" type="qcurve" smooth="yes"/>
      <point x="493.88524590163934" y="439.8524590163934" type="line" smooth="yes"/>
      <point x="493.88524590163934" y="467.95081967213116"/>
      <point x="465.78688524590166" y="467.95081967213116" type="qcurve" smooth="yes"/>
      <point x="353.8196721311475" y="467.95081967213116" type="line"/>
    </contour>
  </outline>
</glyph>
<glyph name="degree" format="2">
  <advance width="410.7049180327869"/>
  <unicode hex="00B0"/>
  <outline>
    <contour>
      <point x="57.75409836065574" y="472.62295081967216" type="qcurve" smooth="yes"/>
      <point x="57.75409836065574" y="587.3770491803278" type="line" smooth="yes"/>
      <point x="57.75409836065574" y="690.0"/>
      <point x="160.37704918032787" y="690.0" type="qcurve" smooth="yes"/>
      <point x="250.327868852459" y="690.0" type="line" smooth="yes"/>
      <point x="352.95081967213116" y="690.0"/>
      <point x="352.95081967213116" y="587.3770491803278" type="qcurve" smooth="yes"/>
      <point x="352.95081967213116" y="472.62295081967216" type="line" smooth="yes"/>
      <point x="352.95081967213116" y="370.0"/>
      <point x="250.327868852459" y="370.0" type="qcurve" smooth="yes"/>
      <point x="160.37704918032787" y="370.0" type="line" smooth="yes"/>
      <point x="57.75409836065574" y="370.0"/>
    </contour>
    <contour>
      <point x="130.2622950819672" y="465.4918032786885" type="line" smooth="yes"/>
      <point x="130.2622950819672" y="435.0983606557377"/>
      <point x="160.65573770491804" y="435.0983606557377" type="qcurve" smooth="yes"/>
      <point x="250.04918032786884" y="435.0983606557377" type="line" smooth="yes"/>
      <point x="280.44262295081967" y="435.0983606557377"/>
      <point x="280.44262295081967" y="465.4918032786885" type="qcurve" smooth="yes"/>
      <point x="280.44262295081967" y="594.5081967213115" type="line" smooth="yes"/>
      <point x="280.44262295081967" y="624.9016393442623"/>
      <point x="250.04918032786884" y="624.9016393442623" type="qcurve" smooth="yes"/>
      <point x="160.65573770491804" y="624.9016393442623" type="line" smooth="yes"/>
      <point x="130.2622950819672" y="624.9016393442623"/>
      <point x="130.2622950819672" y="594.5081967213115" type="qcurve" smooth="yes"/>
    </contour>
  </outline>
</glyph>
<glyph name="plusminus" format="2">
  <advance width="578.0"/>
  <unicode hex="00B1"/>
  <outline>
    <contour>
      <point x="62.59016393442623" y="0.0" type="line"/>
      <point x="62.59016393442623" y="84.04918032786884" type="line"/>
      <point x="515.4098360655738" y="84.04918032786884" type="line"/>
      <point x="515.4098360655738" y="0.0" type="line"/>
    </contour>
    <contour>
      <point x="62.59016393442623" y="318.59016393442624" type="line"/>
      <point x="62.59016393442623" y="403.21311475409834" type="line"/>
      <point x="244.40983606557376" y="403.21311475409834" type="line"/>
      <point x="244.40983606557376" y="584.4918032786885" type="line"/>
      <point x="333.59016393442624" y="584.4918032786885" type="line"/>
      <point x="333.59016393442624" y="403.21311475409834" type="line"/>
      <point x="515.4098360655738" y="403.21311475409834" type="line"/>
      <point x="515.4098360655738" y="318.59016393442624" type="line"/>
      <point x="333.59016393442624" y="318.59016393442624" type="line"/>
      <point x="333.59016393442624" y="137.31147540983608" type="line"/>
      <point x="244.40983606557376" y="137.31147540983608" type="line"/>
      <point x="244.40983606557376" y="318.59016393442624" type="line"/>
    </contour>
  </outline>
</glyph>
<glyph name="uni00B2" format="2">
  <advance width="361.5409836065574"/>
  <unicode hex="00B2"/>
  <outline>
    <contour>
      <point x="38.459016393442624" y="278.4590163934426" type="line"/>
      <point x="38.459016393442624" y="403.8360655737705" type="line" smooth="yes"/>
      <point x="38.459016393442624" y="488.0655737704918"/>
      <point x="117.67213114754098" y="503.62295081967216" type="qcurve" smooth="yes"/>
      <point x="220.50819672131146" y="523.9344262295082" type="line" smooth="yes"/>
      <point x="246.44262295081967" y="528.9508196721312"/>
      <point x="246.44262295081967" y="555.1639344262295" type="qcurve" smooth="yes"/>
      <point x="246.44262295081967" y="592.0983606557377" type="line" smooth="yes"/>
      <point x="246.44262295081967" y="620.1967213114754"/>
      <point x="218.34426229508196" y="620.1967213114754" type="qcurve" smooth="yes"/>
      <point x="50.459016393442624" y="620.1967213114754" type="line"/>
      <point x="50.459016393442624" y="661.344262295082" type="line"/>
      <point x="87.09836065573771" y="690.0" type="line"/>
      <point x="217.62295081967213" y="690.0" type="line" smooth="yes"/>
      <point x="323.655737704918" y="690.0"/>
      <point x="323.655737704918" y="583.9672131147541" type="qcurve" smooth="yes"/>
      <point x="323.655737704918" y="557.1967213114754" type="line" smooth="yes"/>
      <point x="323.655737704918" y="471.9672131147541"/>
      <point x="244.01639344262296" y="456.40983606557376" type="qcurve" smooth="yes"/>
      <point x="141.60655737704917" y="436.0983606557377" type="line" smooth="yes"/>
      <point x="115.09836065573771" y="431.08196721311475"/>
      <point x="115.09836065573771" y="405.2950819672131" type="qcurve" smooth="yes"/>
      <point x="115.09836065573771" y="348.2622950819672" type="line"/>
      <point x="323.655737704918" y="348.2622950819672" type="line"/>
      <point x="323.655737704918" y="278.4590163934426" type="line"/>
    </contour>
  </outline>
</glyph>
<glyph name="uni00B3" format="2">
  <advance width="361.5409836065574"/>
  <unicode hex="00B3"/>
  <outline>
    <contour>
      <point x="44.459016393442624" y="306.5409836065574" type="line"/>
      <point x="44.459016393442624" y="348.2622950819672" type="line"/>
      <point x="218.34426229508196" y="348.2622950819672" type="line" smooth="yes"/>
      <point x="246.44262295081967" y="348.2622950819672"/>
      <point x="246.44262295081967" y="376.3606557377049" type="qcurve" smooth="yes"/>
      <point x="246.44262295081967" y="426.4590163934426" type="line" smooth="yes"/>
      <point x="246.44262295081967" y="454.55737704918033"/>
      <point x="218.34426229508196" y="454.55737704918033" type="qcurve" smooth="yes"/>
      <point x="88.45901639344262" y="454.55737704918033" type="line"/>
      <point x="88.45901639344262" y="524.360655737705" type="line"/>
      <point x="218.34426229508196" y="524.360655737705" type="line" smooth="yes"/>
      <point x="246.44262295081967" y="524.360655737705"/>
      <point x="246.44262295081967" y="552.4590163934427" type="qcurve" smooth="yes"/>
      <point x="246.44262295081967" y="592.0983606557377" type="line" smooth="yes"/>
      <point x="246.44262295081967" y="620.1967213114754"/>
      <point x="218.34426229508196" y="620.1967213114754" type="qcurve" smooth="yes"/>
      <point x="50.459016393442624" y="620.1967213114754" type="line"/>
      <point x="50.459016393442624" y="661.344262295082" type="line"/>
      <point x="87.09836065573771" y="690.0" type="line"/>
      <point x="217.62295081967213" y="690.0" type="line" smooth="yes"/>
      <point x="323.655737704918" y="690.0"/>
      <point x="323.655737704918" y="583.9672131147541" type="qcurve" smooth="yes"/>
      <point x="323.655737704918" y="557.7540983606557" type="line" smooth="yes"/>
      <point x="323.655737704918" y="530.7540983606557"/>
      <point x="306.655737704918" y="513.7540983606557" type="qcurve" smooth="yes"/>
      <point x="283.655737704918" y="490.75409836065575" type="line"/>
      <point x="306.655737704918" y="467.75409836065575" type="line" smooth="yes"/>
      <point x="323.655737704918" y="450.75409836065575"/>
      <point x="323.655737704918" y="423.75409836065575" type="qcurve" smooth="yes"/>
      <point x="323.655737704918" y="383.91803278688525" type="line" smooth="yes"/>
      <point x="323.655737704918" y="278.4590163934426"/>
      <point x="217.62295081967213" y="278.4590163934426" type="qcurve" smooth="yes"/>
      <point x="81.09836065573771" y="278.4590163934426" type="line"/>
    </contour>
  </outline>
</glyph>
<glyph name="mu" format="2">
  <advance width="588.2459016393443"/>
  <unicode hex="00B5"/>
  <outline>
    <contour>
      <point x="77.75409836065573" y="-200.0" type="line"/>
      <point x="77.75409836065573" y="522.2459016393443" type="line"/>
      <point x="174.75409836065575" y="522.2459016393443" type="line"/>
      <point x="174.75409836065575" y="84.75409836065573" type="line"/>
      <point x="358.59016393442624" y="84.75409836065573" type="line" smooth="yes"/>
      <point x="417.4918032786885" y="84.75409836065573"/>
      <point x="417.4918032786885" y="143.65573770491804" type="qcurve" smooth="yes"/>
      <point x="417.4918032786885" y="522.2459016393443" type="line"/>
      <point x="514.4918032786885" y="522.2459016393443" type="line"/>
      <point x="514.4918032786885" y="153.65573770491804" type="line" smooth="yes"/>
      <point x="514.4918032786885" y="0.0"/>
      <point x="361.40983606557376" y="0.0" type="qcurve" smooth="yes"/>
      <point x="174.75409836065575" y="0.0" type="line"/>
      <point x="174.75409836065575" y="-200.0" type="line"/>
    </contour>
  </outline>
</glyph>
<glyph name="paragraph" format="2">
  <advance width="601.360655737705"/>
  <unicode hex="00B6"/>
  <outline>
    <contour>
      <point x="67.75409836065573" y="381.1475409836066" type="qcurve" smooth="yes"/>
      <point x="67.75409836065573" y="540.0" type="line" smooth="yes"/>
      <point x="67.75409836065573" y="690.0"/>
      <point x="217.75409836065575" y="690.0" type="qcurve" smooth="yes"/>
      <point x="336.60655737704917" y="690.0" type="line"/>
      <point x="336.60655737704917" y="231.14754098360655" type="line"/>
      <point x="217.75409836065575" y="231.14754098360655" type="line" smooth="yes"/>
      <point x="67.75409836065573" y="231.14754098360655"/>
    </contour>
    <contour>
      <point x="406.60655737704917" y="-170.0" type="line"/>
      <point x="406.60655737704917" y="690.0" type="line"/>
      <point x="503.60655737704917" y="690.0" type="line"/>
      <point x="503.60655737704917" y="-170.0" type="line"/>
    </contour>
  </outline>
</glyph>
<glyph name="uni00B9" format="2">
  <advance width="361.5409836065574"/>
  <unicode hex="00B9"/>
  <outline>
    <contour>
      <point x="56.459016393442624" y="278.4590163934426" type="line"/>
      <point x="56.459016393442624" y="348.2622950819672" type="line"/>
      <point x="152.95081967213116" y="348.2622950819672" type="line"/>
      <point x="152.95081967213116" y="620.1967213114754" type="line"/>
      <point x="75.34426229508196" y="620.1967213114754" type="line"/>
      <point x="75.34426229508196" y="661.344262295082" type="line"/>
      <point x="111.98360655737704" y="690.0" type="line"/>
      <point x="230.1639344262295" y="690.0" type="line"/>
      <point x="230.1639344262295" y="348.2622950819672" type="line"/>
      <point x="317.655737704918" y="348.2622950819672" type="line"/>
      <point x="317.655737704918" y="278.4590163934426" type="line"/>
    </contour>
  </outline>
</glyph>
<glyph name="ordmasculine" format="2">
  <advance width="431.40983606557376"/>
  <unicode hex="00BA"/>
  <outline>
    <contour>
      <point x="48.459016393442624" y="404.62295081967216" type="qcurve" smooth="yes"/>
      <point x="48.459016393442624" y="583.9672131147541" type="line" smooth="yes"/>
      <point x="48.459016393442624" y="690.0"/>
      <point x="154.49180327868854" y="690.0" type="qcurve" smooth="yes"/>
      <point x="276.91803278688525" y="690.0" type="line" smooth="yes"/>
      <point x="382.95081967213116" y="690.0"/>
      <point x="382.95081967213116" y="583.9672131147541" type="qcurve" smooth="yes"/>
      <point x="382.95081967213116" y="404.62295081967216" type="line" smooth="yes"/>
      <point x="382.95081967213116" y="298.59016393442624"/>
      <point x="276.91803278688525" y="298.59016393442624" type="qcurve" smooth="yes"/>
      <point x="154.49180327868854" y="298.59016393442624" type="line" smooth="yes"/>
      <point x="48.459016393442624" y="298.59016393442624"/>
    </contour>
    <contour>
      <point x="125.09836065573771" y="396.4918032786885" type="line" smooth="yes"/>
      <point x="125.09836065573771" y="368.39344262295083"/>
      <point x="153.19672131147541" y="368.39344262295083" type="qcurve" smooth="yes"/>
      <point x="277.6393442622951" y="368.39344262295083" type="line" smooth="yes"/>
      <point x="305.7377049180328" y="368.39344262295083"/>
      <point x="305.7377049180328" y="396.4918032786885" type="qcurve" smooth="yes"/>
      <point x="305.7377049180328" y="592.0983606557377" type="line" smooth="yes"/>
      <point x="305.7377049180328" y="620.1967213114754"/>
      <point x="277.6393442622951" y="620.1967213114754" type="qcurve" smooth="yes"/>
      <point x="153.19672131147541" y="620.1967213114754" type="line" smooth="yes"/>
      <point x="125.09836065573771" y="620.1967213114754"/>
      <point x="125.09836065573771" y="592.0983606557377" type="qcurve" smooth="yes"/>
    </contour>
  </outline>
</glyph>
<glyph name="questiondown" format="2">
  <advance width="487.3114754098361"/>
  <unicode hex="00BF"/>
  <outline>
    <contour>
      <point x="50.0" y="-10.114754098360656" type="qcurve" smooth="yes"/>
      <point x="50.0" y="73.65573770491804" type="line" smooth="yes"/>
      <point x="50.0" y="235.55737704918033"/>
      <point x="203.37704918032787" y="235.55737704918033" type="qcurve" smooth="yes"/>
      <point x="240.08196721311475" y="235.55737704918033" type="line"/>
      <point x="240.08196721311475" y="308.59016393442624" type="line"/>
      <point x="342.5081967213115" y="308.59016393442624" type="line"/>
      <point x="342.5081967213115" y="143.39344262295083" type="line"/>
      <point x="208.60655737704917" y="143.39344262295083" type="line" smooth="yes"/>
      <point x="151.70491803278688" y="143.39344262295083"/>
      <point x="151.70491803278688" y="86.49180327868852" type="qcurve" smooth="yes"/>
      <point x="151.70491803278688" y="-18.688524590163937" type="line" smooth="yes"/>
      <point x="151.70491803278688" y="-75.59016393442624"/>
      <point x="208.60655737704917" y="-75.59016393442624" type="qcurve" smooth="yes"/>
      <point x="467.3114754098361" y="-75.59016393442624" type="line"/>
      <point x="467.3114754098361" y="-127.8360655737705" type="line"/>
      <point x="415.7049180327869" y="-167.75409836065575" type="line"/>
      <point x="207.63934426229508" y="-167.75409836065575" type="line" smooth="yes"/>
      <point x="50.0" y="-167.75409836065575"/>
    </contour>
    <contour>
      <point x="235.21311475409837" y="404.8524590163934" type="line"/>
      <point x="235.21311475409837" y="522.2459016393443" type="line"/>
      <point x="348.0983606557377" y="522.2459016393443" type="line"/>
      <point x="348.0983606557377" y="404.8524590163934" type="line"/>
    </contour>
  </outline>
</glyph>
<glyph name="AE" format="2">
  <advance width="901.0983606557377"/>
  <unicode hex="00C6"/>
  <outline>
    <contour>
      <point x="19.295081967213115" y="21.098360655737704" type="line"/>
      <point x="239.54098360655738" y="690.0" type="line"/>
      <point x="851.0983606557377" y="690.0" type="line"/>
      <point x="851.0983606557377" y="597.8360655737705" type="line"/>
      <point x="521.0" y="597.8360655737705" type="line"/>
      <point x="521.0" y="405.9016393442623" type="line"/>
      <point x="821.0983606557377" y="405.9016393442623" type="line"/>
      <point x="821.0983606557377" y="313.7377049180328" type="line"/>
      <point x="521.0" y="313.7377049180328" type="line"/>
      <point x="521.0" y="92.1639344262295" type="line"/>
      <point x="851.0983606557377" y="92.1639344262295" type="line"/>
      <point x="851.0983606557377" y="0.0" type="line"/>
      <point x="419.2950819672131" y="0.0" type="line"/>
      <point x="419.2950819672131" y="163.7377049180328" type="line"/>
      <point x="169.80327868852459" y="163.7377049180328" type="line"/>
      <point x="117.44262295081967" y="0.0" type="line"/>
      <point x="33.40983606557377" y="0.0" type="line"/>
    </contour>
    <contour>
      <point x="199.1639344262295" y="255.9016393442623" type="line"/>
      <point x="419.2950819672131" y="255.9016393442623" type="line"/>
      <point x="419.2950819672131" y="597.8360655737705" type="line"/>
      <point x="309.60655737704917" y="597.8360655737705" type="line"/>
    </contour>
  </outline>
</glyph>
<glyph name="Eth" format="2">
  <advance width="694.360655737705"/>
  <unicode hex="00D0"/>
  <outline>
    <contour>
      <point x="20.0" y="304.6885245901639" type="line"/>
      <point x="20.0" y="385.3114754098361" type="line"/>
      <point x="99.29508196721312" y="385.3114754098361" type="line"/>
      <point x="99.29508196721312" y="690.0" type="line"/>
      <point x="393.75409836065575" y="690.0" type="line" smooth="yes"/>
      <point x="626.6065573770492" y="690.0"/>
      <point x="626.6065573770492" y="457.1475409836066" type="qcurve" smooth="yes"/>
      <point x="626.6065573770492" y="232.85245901639345" type="line" smooth="yes"/>
      <point x="626.6065573770492" y="0.0"/>
      <point x="393.75409836065575" y="0.0" type="qcurve" smooth="yes"/>
      <point x="99.29508196721312" y="0.0" type="line"/>
      <point x="99.29508196721312" y="304.6885245901639" type="line"/>
    </contour>
    <contour>
      <point x="201.0" y="92.1639344262295" type="line"/>
      <point x="393.75409836065575" y="92.1639344262295" type="line" smooth="yes"/>
      <point x="524.9016393442623" y="92.1639344262295"/>
      <point x="524.9016393442623" y="223.31147540983608" type="qcurve" smooth="yes"/>
      <point x="524.9016393442623" y="466.6885245901639" type="line" smooth="yes"/>
      <point x="524.9016393442623" y="597.8360655737705"/>
      <point x="393.75409836065575" y="597.8360655737705" type="qcurve" smooth="yes"/>
      <point x="201.0" y="597.8360655737705" type="line"/>
      <point x="201.0" y="385.3114754098361" type="line"/>
      <point x="362.95081967213116" y="385.3114754098361" type="line"/>
      <point x="362.95081967213116" y="304.6885245901639" type="line"/>
      <point x="201.0" y="304.6885245901639" type="line"/>
    </contour>
  </outline>
</glyph>
<glyph name="multiply" format="2">
  <advance width="578.0"/>
  <unicode hex="00D7"/>
  <outline>
    <contour>
      <point x="78.65573770491804" y="185.34426229508196" type="line"/>
      <point x="228.7377049180328" y="335.0" type="line"/>
      <point x="78.65573770491804" y="484.655737704918" type="line"/>
      <point x="139.34426229508196" y="545.344262295082" type="line"/>
      <point x="289.0" y="395.2622950819672" type="line"/>
      <point x="438.655737704918" y="545.344262295082" type="line"/>
      <point x="499.344262295082" y="484.655737704918" type="line"/>
      <point x="349.2622950819672" y="335.0" type="line"/>
      <point x="499.344262295082" y="185.34426229508196" type="line"/>
      <point x="438.655737704918" y="124.65573770491804" type="line"/>
      <point x="289.0" y="274.7377049180328" type="line"/>
      <point x="139.34426229508196" y="124.65573770491804" type="line"/>
    </contour>
  </outline>
</glyph>
<glyph name="Oslash" format="2">
  <advance width="702.2459016393443"/>
  <unicode hex="00D8"/>
  <outline>
    <contour>
      <point x="77.75409836065573" y="157.63934426229508" type="qcurve" smooth="yes"/>
      <point x="77.75409836065573" y="532.360655737705" type="line" smooth="yes"/>
      <point x="77.75409836065573" y="690.0"/>
      <point x="235.39344262295083" y="690.0" type="qcurve" smooth="yes"/>
      <point x="466.8524590163934" y="690.0" type="line" smooth="yes"/>
      <point x="624.4918032786885" y="690.0"/>
      <point x="624.4918032786885" y="532.360655737705" type="qcurve" smooth="yes"/>
      <point x="624.4918032786885" y="157.63934426229508" type="line" smooth="yes"/>
      <point x="624.4918032786885" y="0.0"/>
      <point x="466.8524590163934" y="0.0" type="qcurve" smooth="yes"/>
      <point x="235.39344262295083" y="0.0" type="line" smooth="yes"/>
      <point x="77.75409836065573" y="0.0"/>
    </contour>
    <contour>
      <point x="179.45901639344262" y="233.70491803278688" type="line"/>
      <point x="522.2131147540983" y="548.9508196721312" type="line"/>
      <point x="519.0655737704918" y="597.8360655737705"/>
      <point x="466.4590163934426" y="597.8360655737705" type="qcurve" smooth="yes"/>
      <point x="236.36065573770492" y="597.8360655737705" type="line" smooth="yes"/>
      <point x="179.45901639344262" y="597.8360655737705"/>
      <point x="179.45901639344262" y="541.5081967213115" type="qcurve" smooth="yes"/>
    </contour>
    <contour>
      <point x="180.0327868852459" y="141.04918032786884" type="line"/>
      <point x="183.18032786885246" y="92.1639344262295"/>
      <point x="236.36065573770492" y="92.1639344262295" type="qcurve" smooth="yes"/>
      <point x="466.4590163934426" y="92.1639344262295" type="line" smooth="yes"/>
      <point x="522.7868852459017" y="92.1639344262295"/>
      <point x="522.7868852459017" y="148.49180327868854" type="qcurve" smooth="yes"/>
      <point x="522.7868852459017" y="456.2950819672131" type="line"/>
    </contour>
  </outline>
</glyph>
<glyph name="Thorn" format="2">
  <advance width="632.2459016393443"/>
  <unicode hex="00DE"/>
  <outline>
    <contour>
      <point x="87.75409836065573" y="0.0" type="line"/>
      <point x="87.75409836065573" y="690.0" type="line"/>
      <point x="189.45901639344262" y="690.0" type="line"/>
      <point x="189.45901639344262" y="575.9016393442623" type="line"/>
      <point x="416.8524590163934" y="575.9016393442623" type="line" smooth="yes"/>
      <point x="574.4918032786885" y="575.9016393442623"/>
      <point x="574.4918032786885" y="418.26229508196724" type="qcurve" smooth="yes"/>
      <point x="574.4918032786885" y="285.73770491803276" type="line" smooth="yes"/>
      <point x="574.4918032786885" y="128.0983606557377"/>
      <point x="416.8524590163934" y="128.0983606557377" type="qcurve" smooth="yes"/>
      <point x="189.45901639344262" y="128.0983606557377" type="line"/>
      <point x="189.45901639344262" y="0.0" type="line"/>
    </contour>
    <contour>
      <point x="189.45901639344262" y="220.2622950819672" type="line"/>
      <point x="416.4590163934426" y="220.2622950819672" type="line" smooth="yes"/>
      <point x="472.78688524590166" y="220.2622950819672"/>
      <point x="472.78688524590166" y="276.59016393442624" type="qcurve" smooth="yes"/>
      <point x="472.78688524590166" y="427.40983606557376" type="line" smooth="yes"/>
      <point x="472.78688524590166" y="483.7377049180328"/>
      <point x="416.4590163934426" y="483.7377049180328" type="qcurve" smooth="yes"/>
      <point x="189.45901639344262" y="483.7377049180328" type="line"/>
    </contour>
  </outline>
</glyph>
<glyph name="germandbls" format="2">
  <advance width="607.1967213114754"/>
  <unicode hex="00DF"/>
  <outline>
    <contour>
      <point x="77.75409836065573" y="0.0" type="line"/>
      <point x="77.75409836065573" y="586.344262295082" type="line" smooth="yes"/>
      <point x="77.75409836065573" y="740.0"/>
      <point x="231.40983606557376" y="740.0" type="qcurve" smooth="yes"/>
      <point x="364.3606557377049" y="740.0" type="line" smooth="yes"/>
      <point x="517.4426229508197" y="740.0"/>
      <point x="517.4426229508197" y="586.344262295082" type="qcurve" smooth="yes"/>
      <point x="517.4426229508197" y="491.0" type="line" smooth="yes"/>
      <point x="517.4426229508197" y="457.0"/>
      <point x="497.44262295081967" y="433.0" type="qcurve" smooth="yes"/>
      <point x="462.44262295081967" y="391.0" type="line"/>
      <point x="504.44262295081967" y="356.0" type="line" smooth="yes"/>
      <point x="537.4426229508197" y="328.0"/>
      <point x="537.4426229508197" y="276.0" type="qcurve" smooth="yes"/>
      <point x="537.4426229508197" y="153.65573770491804" type="line" smooth="yes"/>
      <point x="537.4426229508197" y="0.0"/>
      <point x="384.3606557377049" y="0.0" type="qcurve" smooth="yes"/>
      <point x="302.5081967213115" y="0.0" type="line"/>
      <point x="256.60655737704917" y="34.213114754098356" type="line"/>
      <point x="256.60655737704917" y="84.75409836065573" type="line"/>
      <point x="381.5409836065574" y="84.75409836065573" type="line" smooth="yes"/>
      <point x="440.44262295081967" y="84.75409836065573"/>
      <point x="440.44262295081967" y="143.65573770491804" type="qcurve" smooth="yes"/>
      <point x="440.44262295081967" y="283.9344262295082" type="line" smooth="yes"/>
      <point x="440.44262295081967" y="342.40983606557376"/>
      <point x="381.5409836065574" y="342.40983606557376" type="qcurve" smooth="yes"/>
      <point x="266.60655737704917" y="342.40983606557376" type="line"/>
      <point x="266.60655737704917" y="427.59016393442624" type="line"/>
      <point x="361.5409836065574" y="427.59016393442624" type="line" smooth="yes"/>
      <point x="420.44262295081967" y="427.59016393442624"/>
      <point x="420.44262295081967" y="486.0655737704918" type="qcurve" smooth="yes"/>
      <point x="420.44262295081967" y="596.344262295082" type="line" smooth="yes"/>
      <point x="420.44262295081967" y="655.2459016393443"/>
      <point x="361.5409836065574" y="655.2459016393443" type="qcurve" smooth="yes"/>
      <point x="233.65573770491804" y="655.2459016393443" type="line" smooth="yes"/>
      <point x="174.75409836065575" y="655.2459016393443"/>
      <point x="174.75409836065575" y="596.344262295082" type="qcurve" smooth="yes"/>
      <point x="174.75409836065575" y="0.0" type="line"/>
    </contour>
  </outline>
</glyph>
<glyph name="ae" format="2">
  <advance width="870.344262295082"/>
  <unicode hex="00E6"/>
  <outline>
    <contour>
      <point x="203.98360655737704" y="0.0" type="line" smooth="yes"/>
      <point x="49.75409836065574" y="0.0"/>
      <point x="49.75409836065574" y="306.4918032786885"/>
      <point x="203.98360655737704" y="306.4918032786885" type="qcurve" smooth="yes"/>
      <point x="370.9016393442623" y="306.4918032786885" type="line"/>
      <point x="370.9016393442623" y="378.59016393442624" type="line" smooth="yes"/>
      <point x="370.9016393442623" y="437.4918032786885"/>
      <point x="312.0" y="437.4918032786885" type="qcurve" smooth="yes"/>
      <point x="101.29508196721312" y="437.4918032786885" type="line"/>
      <point x="101.29508196721312" y="488.0327868852459" type="line"/>
      <point x="147.19672131147541" y="522.2459016393443" type="line"/>
      <point x="303.73770491803276" y="522.2459016393443" type="line" smooth="yes"/>
      <point x="382.344262295082" y="522.2459016393443"/>
      <point x="419.4754098360656" y="475.3606557377049" type="qcurve"/>
      <point x="456.60655737704917" y="522.2459016393443"/>
      <point x="536.0655737704918" y="522.2459016393443" type="qcurve" smooth="yes"/>
      <point x="647.5081967213115" y="522.2459016393443" type="line" smooth="yes"/>
      <point x="800.5901639344262" y="522.2459016393443"/>
      <point x="800.5901639344262" y="368.59016393442624" type="qcurve" smooth="yes"/>
      <point x="800.5901639344262" y="224.50819672131146" type="line"/>
      <point x="467.9016393442623" y="224.50819672131146" type="line"/>
      <point x="467.9016393442623" y="143.65573770491804" type="line" smooth="yes"/>
      <point x="467.9016393442623" y="84.75409836065573"/>
      <point x="526.8032786885246" y="84.75409836065573" type="qcurve" smooth="yes"/>
      <point x="780.5901639344262" y="84.75409836065573" type="line"/>
      <point x="780.5901639344262" y="34.213114754098356" type="line"/>
      <point x="734.688524590164" y="0.0" type="line"/>
      <point x="536.0655737704918" y="0.0" type="line" smooth="yes"/>
      <point x="456.60655737704917" y="0.0"/>
      <point x="419.4754098360656" y="46.885245901639344" type="qcurve"/>
      <point x="382.344262295082" y="0.0"/>
      <point x="303.73770491803276" y="0.0" type="qcurve" smooth="yes"/>
    </contour>
    <contour>
      <point x="146.75409836065575" y="143.65573770491804" type="line" smooth="yes"/>
      <point x="146.75409836065575" y="84.75409836065573"/>
      <point x="205.65573770491804" y="84.75409836065573" type="qcurve" smooth="yes"/>
      <point x="312.0" y="84.75409836065573" type="line" smooth="yes"/>
      <point x="370.9016393442623" y="84.75409836065573"/>
      <point x="370.9016393442623" y="143.65573770491804" type="qcurve" smooth="yes"/>
      <point x="370.9016393442623" y="229.8360655737705" type="line"/>
      <point x="205.65573770491804" y="229.8360655737705" type="line" smooth="yes"/>
      <point x="146.75409836065575" y="229.8360655737705"/>
      <point x="146.75409836065575" y="170.9344262295082" type="qcurve" smooth="yes"/>
    </contour>
    <contour>
      <point x="467.9016393442623" y="301.1639344262295" type="line"/>
      <point x="703.5901639344262" y="301.1639344262295" type="line"/>
      <point x="703.5901639344262" y="378.59016393442624" type="line" smooth="yes"/>
      <point x="703.5901639344262" y="437.4918032786885"/>
      <point x="644.688524590164" y="437.4918032786885" type="qcurve" smooth="yes"/>
      <point x="526.8032786885246" y="437.4918032786885" type="line" smooth="yes"/>
      <point x="467.9016393442623" y="437.4918032786885"/>
      <point x="467.9016393442623" y="378.59016393442624" type="qcurve" smooth="yes"/>
    </contour>
  </outline>
</glyph>
<glyph name="eth" format="2">
  <advance width="586.2459016393443"/>
  <unicode hex="00F0"/>
  <outline>
    <contour>
      <point x="69.75409836065573" y="153.65573770491804" type="qcurve" smooth="yes"/>
      <point x="69.75409836065573" y="296.344262295082" type="line" smooth="yes"/>
      <point x="69.75409836065573" y="450.0"/>
      <point x="223.40983606557376" y="450.0" type="qcurve" smooth="yes"/>
      <point x="401.04918032786884" y="450.0" type="line"/>
      <point x="330.655737704918" y="563.8688524590164" type="line"/>
      <point x="222.08196721311475" y="511.8688524590164" type="line"/>
      <point x="190.45901639344262" y="579.2459016393443" type="line"/>
      <point x="291.1967213114754" y="627.5409836065573" type="line"/>
      <point x="242.13114754098362" y="708.6229508196722" type="line"/>
      <point x="321.327868852459" y="754.360655737705" type="line"/>
      <point x="374.24590163934425" y="667.5737704918033" type="line"/>
      <point x="475.04918032786884" y="714.9016393442623" type="line"/>
      <point x="506.24590163934425" y="646.9508196721312" type="line"/>
      <point x="414.7049180327869" y="604.0327868852459" type="line"/>
      <point x="493.9672131147541" y="472.2950819672131" type="line" smooth="yes"/>
      <point x="516.4918032786885" y="433.24590163934425"/>
      <point x="516.4918032786885" y="377.7704918032787" type="qcurve" smooth="yes"/>
      <point x="516.4918032786885" y="153.65573770491804" type="line" smooth="yes"/>
      <point x="516.4918032786885" y="0.0"/>
      <point x="363.40983606557376" y="0.0" type="qcurve" smooth="yes"/>
      <point x="223.40983606557376" y="0.0" type="line" smooth="yes"/>
      <point x="69.75409836065573" y="0.0"/>
    </contour>
    <contour>
      <point x="166.75409836065575" y="143.65573770491804" type="line" smooth="yes"/>
      <point x="166.75409836065575" y="84.75409836065573"/>
      <point x="225.65573770491804" y="84.75409836065573" type="qcurve" smooth="yes"/>
      <point x="360.59016393442624" y="84.75409836065573" type="line" smooth="yes"/>
      <point x="419.4918032786885" y="84.75409836065573"/>
      <point x="419.4918032786885" y="143.65573770491804" type="qcurve" smooth="yes"/>
      <point x="419.4918032786885" y="365.24590163934425" type="line"/>
      <point x="225.65573770491804" y="365.24590163934425" type="line" smooth="yes"/>
      <point x="166.75409836065575" y="365.24590163934425"/>
      <point x="166.75409836065575" y="306.344262295082" type="qcurve" smooth="yes"/>
    </contour>
  </outline>
</glyph>
<glyph name="divide" format="2">
  <advance width="578.0"/>
  <unicode hex="00F7"/>
  <outline>
    <contour>
      <point x="62.59016393442623" y="292.6885245901639" type="line"/>
      <point x="62.59016393442623" y="377.3114754098361" type="line"/>
      <point x="515.4098360655738" y="377.3114754098361" type="line"/>
      <point x="515.4098360655738" y="292.6885245901639" type="line"/>
    </contour>
    <contour>
      <point x="239.78688524590163" y="95.78688524590164" type="line"/>
      <point x="239.78688524590163" y="194.21311475409837" type="line"/>
      <point x="338.21311475409834" y="194.21311475409837" type="line"/>
      <point x="338.21311475409834" y="95.78688524590164" type="line"/>
    </contour>
    <contour>
      <point x="239.78688524590163" y="475.78688524590166" type="line"/>
      <point x="239.78688524590163" y="574.2131147540983" type="line"/>
      <point x="338.21311475409834" y="574.2131147540983" type="line"/>
      <point x="338.21311475409834" y="475.78688524590166" type="line"/>
    </contour>
  </outline>
</glyph>
<glyph name="oslash" format="2">
  <advance width="586.2459016393443"/>
  <unicode hex="00F8"/>
  <outline>
    <contour>
      <point x="69.75409836065573" y="153.65573770491804" type="qcurve" smooth="yes"/>
      <point x="69.75409836065573" y="368.59016393442624" type="line" smooth="yes"/>
      <point x="69.75409836065573" y="522.2459016393443"/>
      <point x="223.40983606557376" y="522.2459016393443" type="qcurve" smooth="yes"/>
      <point x="363.40983606557376" y="522.2459016393443" type="line" smooth="yes"/>
      <point x="516.4918032786885" y="522.2459016393443"/>
      <point x="516.4918032786885" y="368.59016393442624" type="qcurve" smooth="yes"/>
      <point x="516.4918032786885" y="153.65573770491804" type="line" smooth="yes"/>
      <point x="516.4918032786885" y="0.0"/>
      <point x="363.40983606557376" y="0.0" type="qcurve" smooth="yes"/>
      <point x="223.40983606557376" y="0.0" type="line" smooth="yes"/>
      <point x="69.75409836065573" y="0.0"/>
    </contour>
    <contour>
      <point x="166.75409836065575" y="189.68852459016392" type="line"/>
      <point x="414.1967213114754" y="407.672131147541" type="line"/>
      <point x="402.0163934426229" y="437.4918032786885"/>
      <point x="360.59016393442624" y="437.4918032786885" type="qcurve" smooth="yes"/>
      <point x="225.65573770491804" y="437.4918032786885" type="line" smooth="yes"/>
      <point x="166.75409836065575" y="437.4918032786885"/>
      <point x="166.75409836065575" y="378.59016393442624" type="qcurve" smooth="yes"/>
    </contour>
    <contour>
      <point x="172.04918032786884" y="114.57377049180327" type="line"/>
      <point x="184.22950819672133" y="84.75409836065573"/>
      <point x="225.65573770491804" y="84.75409836065573" type="qcurve" smooth="yes"/>
      <point x="360.59016393442624" y="84.75409836065573" type="line" smooth="yes"/>
      <point x="419.4918032786885" y="84.75409836065573"/>
      <point x="419.4918032786885" y="143.65573770491804" type="qcurve" smooth="yes"/>
      <point x="419.4918032786885" y="332.55737704918033" type="line"/>
    </contour>
  </outline>
</glyph>
<glyph name="dotlessi" format="2">
  <advance width="252.50819672131146"/>
  <unicode hex="0131"/>
  <outline>
    <contour>
      <point x="77.75409836065573" y="0.0" type="line"/>
      <point x="77.75409836065573" y="522.2459016393443" type="line"/>
      <point x="174.75409836065575" y="522.2459016393443" type="line"/>
      <point x="174.75409836065575" y="0.0" type="line"/>
    </contour>
  </outline>
</glyph>
<glyph name="Lslash" format="2">
  <advance width="553.8360655737705"/>
  <unicode hex="0141"/>
  <outline>
    <contour>
      <point x="10.0" y="289.04918032786884" type="line"/>
      <point x="102.80327868852459" y="342.1639344262295" type="line"/>
      <point x="102.80327868852459" y="690.0" type="line"/>
      <point x="204.50819672131146" y="690.0" type="line"/>
      <point x="204.50819672131146" y="400.7049180327869" type="line"/>
      <point x="334.75409836065575" y="476.04918032786884" type="line"/>
      <point x="374.21311475409834" y="407.24590163934425" type="line"/>
      <point x="204.50819672131146" y="309.5409836065574" type="line"/>
      <point x="204.50819672131146" y="92.1639344262295" type="line"/>
      <point x="529.8360655737705" y="92.1639344262295" type="line"/>
      <point x="529.8360655737705" y="0.0" type="line"/>
      <point x="102.80327868852459" y="0.0" type="line"/>
      <point x="102.80327868852459" y="250.85245901639345" type="line"/>
      <point x="49.885245901639344" y="219.81967213114754" type="line"/>
    </contour>
  </outline>
</glyph>
<glyph name="lslash" format="2">
  <advance width="293.0"/>
  <unicode hex="0142"/>
  <outline>
    <contour>
      <point x="0.32786885245901676" y="338.5081967213115" type="line"/>
      <point x="86.0" y="388.1967213114754" type="line"/>
      <point x="86.0" y="740.0" type="line"/>
      <point x="183.0" y="740.0" type="line"/>
      <point x="183.0" y="444.0327868852459" type="line"/>
      <point x="253.77049180327867" y="485.4918032786885" type="line"/>
      <point x="290.95081967213116" y="420.24590163934425" type="line"/>
      <point x="183.0" y="358.7049180327869" type="line"/>
      <point x="183.0" y="147.21311475409834" type="line" smooth="yes"/>
      <point x="183.0" y="79.60655737704917"/>
      <point x="251.45901639344262" y="75.47540983606558" type="qcurve"/>
      <point x="251.45901639344262" y="-8.704918032786885" type="line"/>
      <point x="86.0" y="-8.704918032786885"/>
      <point x="86.0" y="156.75409836065575" type="qcurve" smooth="yes"/>
      <point x="86.0" y="302.44262295081967" type="line"/>
      <point x="37.65573770491803" y="273.6885245901639" type="line"/>
    </contour>
  </outline>
</glyph>
<glyph name="OE" format="2">
  <advance width="966.360655737705"/>
  <unicode hex="0152"/>
  <outline>
    <contour>
      <point x="77.75409836065573" y="157.63934426229508" type="qcurve" smooth="yes"/>
      <point x="77.75409836065573" y="532.360655737705" type="line" smooth="yes"/>
      <point x="77.75409836065573" y="690.0"/>
      <point x="235.39344262295083" y="690.0" type="qcurve" smooth="yes"/>
      <point x="916.360655737705" y="690.0" type="line"/>
      <point x="916.360655737705" y="597.8360655737705" type="line"/>
      <point x="586.2622950819672" y="597.8360655737705" type="line"/>
      <point x="586.2622950819672" y="405.9016393442623" type="line"/>
      <point x="886.360655737705" y="405.9016393442623" type="line"/>
      <point x="886.360655737705" y="313.7377049180328" type="line"/>
      <point x="586.2622950819672" y="313.7377049180328" type="line"/>
      <point x="586.2622950819672" y="92.1639344262295" type="line"/>
      <point x="916.360655737705" y="92.1639344262295" type="line"/>
      <point x="916.360655737705" y="0.0" type="line"/>
      <point x="235.39344262295083" y="0.0" type="line" smooth="yes"/>
      <point x="77.75409836065573" y="0.0"/>
    </contour>
    <contour>
      <point x="179.45901639344262" y="148.49180327868854" type="line" smooth="yes"/>
      <point x="179.45901639344262" y="92.1639344262295"/>
      <point x="236.36065573770492" y="92.1639344262295" type="qcurve" smooth="yes"/>
      <point x="484.55737704918033" y="92.1639344262295" type="line"/>
      <point x="484.55737704918033" y="597.8360655737705" type="line"/>
      <point x="236.36065573770492" y="597.8360655737705" type="line" smooth="yes"/>
      <point x="179.45901639344262" y="597.8360655737705"/>
      <point x="179.45901639344262" y="541.5081967213115" type="qcurve" smooth="yes"/>
    </contour>
  </outline>
</glyph>
<glyph name="oe" format="2">
  <advance width="912.4590163934427"/>
  <unicode hex="0153"/>
  <outline>
    <contour>
      <point x="69.75409836065573" y="153.65573770491804" type="qcurve" smooth="yes"/>
      <point x="69.75409836065573" y="368.59016393442624" type="line" smooth="yes"/>
      <point x="69.75409836065573" y="522.2459016393443"/>
      <point x="223.40983606557376" y="522.2459016393443" type="qcurve" smooth="yes"/>
      <point x="345.7049180327869" y="522.2459016393443" type="line" smooth="yes"/>
      <point x="424.3114754098361" y="522.2459016393443"/>
      <point x="461.44262295081967" y="475.3606557377049" type="qcurve"/>
      <point x="498.57377049180326" y="522.2459016393443"/>
      <point x="577.1803278688525" y="522.2459016393443" type="qcurve" smooth="yes"/>
      <point x="689.0491803278688" y="522.2459016393443" type="line" smooth="yes"/>
      <point x="842.7049180327868" y="522.2459016393443"/>
      <point x="842.7049180327868" y="368.59016393442624" type="qcurve" smooth="yes"/>
      <point x="842.7049180327868" y="224.50819672131146" type="line"/>
      <point x="509.44262295081967" y="224.50819672131146" type="line"/>
      <point x="509.44262295081967" y="143.65573770491804" type="line" smooth="yes"/>
      <point x="509.44262295081967" y="84.75409836065573"/>
      <point x="568.344262295082" y="84.75409836065573" type="qcurve" smooth="yes"/>
      <point x="822.7049180327868" y="84.75409836065573" type="line"/>
      <point x="822.7049180327868" y="34.213114754098356" type="line"/>
      <point x="776.8032786885246" y="0.0" type="line"/>
      <point x="577.1803278688525" y="0.0" type="line" smooth="yes"/>
      <point x="498.57377049180326" y="0.0"/>
      <point x="461.44262295081967" y="46.885245901639344" type="qcurve"/>
      <point x="424.3114754098361" y="0.0"/>
      <point x="345.7049180327869" y="0.0" type="qcurve" smooth="yes"/>
      <point x="223.40983606557376" y="0.0" type="line" smooth="yes"/>
      <point x="69.75409836065573" y="0.0"/>
    </contour>
    <contour>
      <point x="166.75409836065575" y="143.65573770491804" type="line" smooth="yes"/>
      <point x="166.75409836065575" y="84.75409836065573"/>
      <point x="225.65573770491804" y="84.75409836065573" type="qcurve" smooth="yes"/>
      <point x="353.5409836065574" y="84.75409836065573" type="line" smooth="yes"/>
      <point x="412.44262295081967" y="84.75409836065573"/>
      <point x="412.44262295081967" y="143.65573770491804" type="qcurve" smooth="yes"/>
      <point x="412.44262295081967" y="378.59016393442624" type="line" smooth="yes"/>
      <point x="412.44262295081967" y="437.4918032786885"/>
      <point x="353.5409836065574" y="437.4918032786885" type="qcurve" smooth="yes"/>
      <point x="225.65573770491804" y="437.4918032786885" type="line" smooth="yes"/>
      <point x="166.75409836065575" y="437.4918032786885"/>
      <point x="166.75409836065575" y="378.59016393442624" type="qcurve" smooth="yes"/>
    </contour>
    <contour>
      <point x="509.44262295081967" y="301.1639344262295" type="line"/>
      <point x="745.7049180327868" y="301.1639344262295" type="line"/>
      <point x="745.7049180327868" y="378.59016393442624" type="line" smooth="yes"/>
      <point x="745.7049180327868" y="437.4918032786885"/>
      <point x="686.8032786885246" y="437.4918032786885" type="qcurve" smooth="yes"/>
      <point x="568.344262295082" y="437.4918032786885" type="line" smooth="yes"/>
      <point x="509.44262295081967" y="437.4918032786885"/>
      <point x="509.44262295081967" y="378.59016393442624" type="qcurve" smooth="yes"/>
    </contour>
  </outline>
</glyph>
<glyph name="florin" format="2">
  <advance width="572.2459016393443"/>
  <unicode hex="0192"/>
  <outline>
    <contour>
      <point x="40.0" y="-61.85245901639344" type="line"/>
      <point x="128.85245901639345" y="-61.85245901639344" type="line" smooth="yes"/>
      <point x="187.75409836065575" y="-61.85245901639344"/>
      <point x="187.75409836065575" y="-2.9508196721311464" type="qcurve" smooth="yes"/>
      <point x="187.75409836065575" y="586.344262295082" type="line" smooth="yes"/>
      <point x="187.75409836065575" y="740.0"/>
      <point x="341.40983606557376" y="740.0" type="qcurve" smooth="yes"/>
      <point x="433.655737704918" y="740.0" type="line"/>
      <point x="479.55737704918033" y="705.7868852459017" type="line"/>
      <point x="479.55737704918033" y="655.2459016393443" type="line"/>
      <point x="343.655737704918" y="655.2459016393443" type="line" smooth="yes"/>
      <point x="284.75409836065575" y="655.2459016393443"/>
      <point x="284.75409836065575" y="596.344262295082" type="qcurve" smooth="yes"/>
      <point x="284.75409836065575" y="522.2459016393443" type="line"/>
      <point x="469.55737704918033" y="522.2459016393443" type="line"/>
      <point x="469.55737704918033" y="437.4918032786885" type="line"/>
      <point x="284.75409836065575" y="437.4918032786885" type="line"/>
      <point x="284.75409836065575" y="7.049180327868854" type="line" smooth="yes"/>
      <point x="284.75409836065575" y="-146.60655737704917"/>
      <point x="131.0983606557377" y="-146.60655737704917" type="qcurve" smooth="yes"/>
      <point x="85.90163934426229" y="-146.60655737704917" type="line"/>
      <point x="40.0" y="-111.9672131147541" type="line"/>
    </contour>
  </outline>
</glyph>
<glyph name="uni0300" format="2">
  <unicode hex="0300"/>
  <outline>
    <contour>
      <point x="-406.4918032786885" y="714.2131147540983" type="line"/>
      <point x="-350.04918032786884" y="768.5245901639345" type="line"/>
      <point x="-218.37704918032787" y="620.4426229508197" type="line"/>
      <point x="-267.26229508196724" y="573.4098360655738" type="line"/>
    </contour>
  </outline>
</glyph>
<glyph name="uni0301" format="2">
  <unicode hex="0301"/>
  <outline>
    <contour>
      <point x="-355.8688524590164" y="620.4426229508197" type="line"/>
      <point x="-224.19672131147541" y="768.5245901639345" type="line"/>
      <point x="-167.75409836065575" y="714.2131147540983" type="line"/>
      <point x="-307.55737704918033" y="573.983606557377" type="line"/>
    </contour>
  </outline>
</glyph>
<glyph name="uni0302" format="2">
  <unicode hex="0302"/>
  <outline>
    <contour>
      <point x="-430.4590163934426" y="629.0491803278688" type="line"/>
      <point x="-287.40983606557376" y="769.0983606557377" type="line"/>
      <point x="-143.78688524590163" y="629.0491803278688" type="line"/>
      <point x="-188.2622950819672" y="581.2950819672132" type="line"/>
      <point x="-287.40983606557376" y="675.4426229508197" type="line"/>
      <point x="-385.9836065573771" y="581.2950819672132" type="line"/>
    </contour>
  </outline>
</glyph>
<glyph name="uni0303" format="2">
  <unicode hex="0303"/>
  <outline>
    <contour>
      <point x="-448.44262295081967" y="642.360655737705" type="line"/>
      <point x="-391.9344262295082" y="698.8688524590164" type="line" smooth="yes"/>
      <point x="-368.78688524590166" y="721.4426229508197"/>
      <point x="-306.55737704918033" y="721.4426229508197"/>
      <point x="-284.55737704918033" y="698.8688524590164" type="qcurve" smooth="yes"/>
      <point x="-250.75409836065575" y="665.0655737704918" type="line" smooth="yes"/>
      <point x="-242.59016393442624" y="656.9016393442623"/>
      <point x="-229.40983606557376" y="656.9016393442623"/>
      <point x="-221.24590163934425" y="665.0655737704918" type="qcurve" smooth="yes"/>
      <point x="-170.70491803278688" y="715.6065573770492" type="line"/>
      <point x="-125.80327868852459" y="670.7049180327868" type="line"/>
      <point x="-182.31147540983608" y="614.1967213114754" type="line" smooth="yes"/>
      <point x="-204.88524590163934" y="591.6229508196722"/>
      <point x="-267.11475409836066" y="591.6229508196722"/>
      <point x="-289.6885245901639" y="614.1967213114754" type="qcurve" smooth="yes"/>
      <point x="-323.4918032786885" y="648.0" type="line" smooth="yes"/>
      <point x="-331.08196721311475" y="656.1639344262295"/>
      <point x="-344.26229508196724" y="656.1639344262295"/>
      <point x="-353.0" y="648.0" type="qcurve" smooth="yes"/>
      <point x="-403.5409836065574" y="597.4590163934427" type="line"/>
    </contour>
  </outline>
</glyph>
<glyph name="uni0304" format="2">
  <unicode hex="0304"/>
  <outline>
    <contour>
      <point x="-421.9016393442623" y="622.6065573770492" type="line"/>
      <point x="-421.9016393442623" y="696.1639344262295" type="line"/>
      <point x="-152.34426229508196" y="696.1639344262295" type="line"/>
      <point x="-152.34426229508196" y="622.6065573770492" type="line"/>
    </contour>
  </outline>
</glyph>
<glyph name="uni0306" format="2">
  <unicode hex="0306"/>
  <outline>
    <contour>
      <point x="-415.91803278688525" y="672.8032786885246" type="qcurve" smooth="yes"/>
      <point x="-415.91803278688525" y="733.1967213114754" type="line"/>
      <point x="-354.327868852459" y="733.1967213114754" type="line"/>
      <point x="-354.327868852459" y="674.7868852459017" type="line" smooth="yes"/>
      <point x="-354.327868852459" y="659.311475409836"/>
      <point x="-338.8524590163934" y="659.311475409836" type="qcurve" smooth="yes"/>
      <point x="-235.39344262295083" y="659.311475409836" type="line" smooth="yes"/>
      <point x="-219.91803278688525" y="659.311475409836"/>
      <point x="-219.91803278688525" y="674.7868852459017" type="qcurve" smooth="yes"/>
      <point x="-219.91803278688525" y="733.1967213114754" type="line"/>
      <point x="-158.327868852459" y="733.1967213114754" type="line"/>
      <point x="-158.327868852459" y="672.8032786885246" type="line" smooth="yes"/>
      <point x="-158.327868852459" y="597.2950819672132"/>
      <point x="-234.40983606557376" y="597.2950819672132" type="qcurve" smooth="yes"/>
      <point x="-340.40983606557376" y="597.2950819672132" type="line" smooth="yes"/>
      <point x="-415.91803278688525" y="597.2950819672132"/>
    </contour>
  </outline>
</glyph>
<glyph name="uni0307" format="2">
  <unicode hex="0307"/>
  <outline>
    <contour>
      <point x="-339.55737704918033" y="616.2950819672132" type="line"/>
      <point x="-339.55737704918033" y="721.9508196721312" type="line"/>
      <point x="-234.68852459016392" y="721.9508196721312" type="line"/>
      <point x="-234.68852459016392" y="616.2950819672132" type="line"/>
    </contour>
  </outline>
</glyph>
<glyph name="uni0308" format="2">
  <unicode hex="0308"/>
  <outline>
    <contour>
      <point x="-425.6885245901639" y="610.6229508196722" type="line"/>
      <point x="-425.6885245901639" y="709.016393442623" type="line"/>
      <point x="-334.4590163934426" y="709.016393442623" type="line"/>
      <point x="-334.4590163934426" y="610.6229508196722" type="line"/>
    </contour>
    <contour>
      <point x="-240.36065573770492" y="610.6229508196722" type="line"/>
      <point x="-240.36065573770492" y="709.016393442623" type="line"/>
      <point x="-149.13114754098362" y="709.016393442623" type="line"/>
      <point x="-149.13114754098362" y="610.6229508196722" type="line"/>
    </contour>
  </outline>
</glyph>
<glyph name="uni030A" format="2">
  <unicode hex="030A"/>
  <outline>
    <contour>
      <point x="-393.1967213114754" y="643.3934426229508" type="qcurve" smooth="yes"/>
      <point x="-393.1967213114754" y="701.672131147541" type="line" smooth="yes"/>
      <point x="-393.1967213114754" y="773.6229508196722"/>
      <point x="-320.8196721311475" y="773.6229508196722" type="qcurve" smooth="yes"/>
      <point x="-253.4262295081967" y="773.6229508196722" type="line" smooth="yes"/>
      <point x="-181.04918032786884" y="773.6229508196722"/>
      <point x="-181.04918032786884" y="701.672131147541" type="qcurve" smooth="yes"/>
      <point x="-181.04918032786884" y="643.3934426229508" type="line" smooth="yes"/>
      <point x="-181.04918032786884" y="571.4426229508197"/>
      <point x="-253.4262295081967" y="571.4426229508197" type="qcurve" smooth="yes"/>
      <point x="-320.8196721311475" y="571.4426229508197" type="line" smooth="yes"/>
      <point x="-393.1967213114754" y="571.4426229508197"/>
    </contour>
    <contour>
      <point x="-333.75409836065575" y="640.8196721311475" type="line" smooth="yes"/>
      <point x="-333.75409836065575" y="623.6229508196722"/>
      <point x="-316.55737704918033" y="623.6229508196722" type="qcurve" smooth="yes"/>
      <point x="-258.26229508196724" y="623.6229508196722" type="line" smooth="yes"/>
      <point x="-240.49180327868854" y="623.6229508196722"/>
      <point x="-240.49180327868854" y="640.8196721311475" type="qcurve" smooth="yes"/>
      <point x="-240.49180327868854" y="704.2459016393443" type="line" smooth="yes"/>
      <point x="-240.49180327868854" y="721.4426229508197"/>
      <point x="-258.26229508196724" y="721.4426229508197" type="qcurve" smooth="yes"/>
      <point x="-316.55737704918033" y="721.4426229508197" type="line" smooth="yes"/>
      <point x="-333.75409836065575" y="721.4426229508197"/>
      <point x="-333.75409836065575" y="704.2459016393443" type="qcurve" smooth="yes"/>
    </contour>
  </outline>
</glyph>
<glyph name="uni030B" format="2">
  <unicode hex="030B"/>
  <outline>
    <contour>
      <point x="-425.8032786885246" y="615.6065573770492" type="line"/>
      <point x="-312.39344262295083" y="769.0983606557377" type="line"/>
      <point x="-251.0983606557377" y="719.9016393442623" type="line"/>
      <point x="-374.3606557377049" y="573.4098360655738" type="line"/>
    </contour>
    <contour>
      <point x="-254.9016393442623" y="615.6065573770492" type="line"/>
      <point x="-141.49180327868854" y="769.0983606557377" type="line"/>
      <point x="-79.77049180327869" y="719.9016393442623" type="line"/>
      <point x="-203.45901639344262" y="573.4098360655738" type="line"/>
    </contour>
  </outline>
</glyph>
<glyph name="uni030C" format="2">
  <unicode hex="030C"/>
  <outline>
    <contour>
      <point x="-430.4590163934426" y="711.9180327868852" type="line"/>
      <point x="-385.9836065573771" y="759.0983606557377" type="line"/>
      <point x="-287.40983606557376" y="665.5245901639345" type="line"/>
      <point x="-188.2622950819672" y="759.0983606557377" type="line"/>
      <point x="-143.78688524590163" y="711.9180327868852" type="line"/>
      <point x="-287.40983606557376" y="571.2950819672132" type="line"/>
    </contour>
  </outline>
</glyph>
<glyph name="uni0326" format="2">
  <unicode hex="0326"/>
  <outline>
    <contour>
      <point x="-362.60655737704917" y="-182.31147540983608" type="line"/>
      <point x="-329.0163934426229" y="-50.0" type="line"/>
      <point x="-251.47540983606558" y="-50.0" type="line"/>
      <point x="-240.78688524590163" y="-65.9672131147541" type="line"/>
      <point x="-294.6393442622951" y="-201.68852459016392" type="line"/>
    </contour>
  </outline>
</glyph>
<glyph name="uni0327" format="2">
  <unicode hex="0327"/>
  <outline>
    <contour>
      <point x="-397.5409836065574" y="-112.44262295081967" type="line"/>
      <point x="-299.40983606557376" y="-112.44262295081967" type="line" smooth="yes"/>
      <point x="-271.3114754098361" y="-112.44262295081967"/>
      <point x="-271.3114754098361" y="-84.34426229508196" type="qcurve" smooth="yes"/>
      <point x="-271.3114754098361" y="42.1639344262295" type="line"/>
      <point x="-194.80327868852459" y="42.1639344262295" type="line"/>
      <point x="-194.80327868852459" y="-75.50819672131148" type="line" smooth="yes"/>
      <point x="-194.80327868852459" y="-181.54098360655738"/>
      <point x="-300.8360655737705" y="-181.54098360655738" type="qcurve" smooth="yes"/>
      <point x="-360.9016393442623" y="-181.54098360655738" type="line"/>
      <point x="-397.5409836065574" y="-153.45901639344262" type="line"/>
    </contour>
  </outline>
</glyph>
<glyph name="uni0328" format="2">
  <unicode hex="0328"/>
  <outline>
    <contour>
      <point x="-367.44262295081967" y="-36.9344262295082" type="line" smooth="yes"/>
      <point x="-367.44262295081967" y="69.09836065573771"/>
      <point x="-261.40983606557376" y="69.09836065573771" type="qcurve" smooth="yes"/>
      <point x="-238.24590163934425" y="69.09836065573771" type="line"/>
      <point x="-238.24590163934425" y="0.0" type="line"/>
      <point x="-264.55737704918033" y="0.0" type="line" smooth="yes"/>
      <point x="-291.5081967213115" y="0.0"/>
      <point x="-291.5081967213115" y="-26.95081967213115" type="qcurve" smooth="yes"/>
      <point x="-291.5081967213115" y="-85.49180327868852" type="line" smooth="yes"/>
      <point x="-291.5081967213115" y="-112.44262295081967"/>
      <point x="-264.55737704918033" y="-112.44262295081967" type="qcurve" smooth="yes"/>
      <point x="-168.70491803278688" y="-112.44262295081967" type="line"/>
      <point x="-168.70491803278688" y="-153.45901639344262" type="line"/>
      <point x="-205.34426229508196" y="-181.54098360655738" type="line"/>
      <point x="-261.40983606557376" y="-181.54098360655738" type="line" smooth="yes"/>
      <point x="-367.44262295081967" y="-181.54098360655738"/>
      <point x="-367.44262295081967" y="-75.50819672131148" type="qcurve" smooth="yes"/>
    </contour>
  </outline>
</glyph>
<glyph name="pi" format="2">
  <advance width="592.2459016393443"/>
  <unicode hex="03C0"/>
  <outline>
    <contour>
      <point x="77.75409836065573" y="0.0" type="line"/>
      <point x="77.75409836065573" y="522.2459016393443" type="line"/>
      <point x="514.4918032786885" y="522.2459016393443" type="line"/>
      <point x="514.4918032786885" y="0.0" type="line"/>
      <point x="417.4918032786885" y="0.0" type="line"/>
      <point x="417.4918032786885" y="437.4918032786885" type="line"/>
      <point x="174.75409836065575" y="437.4918032786885" type="line"/>
      <point x="174.75409836065575" y="0.0" type="line"/>
    </contour>
  </outline>
</glyph>
<glyph name="uni1E9E" format="2">
  <advance width="689.1967213114754"/>
  <unicode hex="1E9E"/>
  <outline>
    <contour>
      <point x="81.75409836065573" y="0.0" type="line"/>
      <point x="81.75409836065573" y="532.360655737705" type="line" smooth="yes"/>
      <point x="81.75409836065573" y="690.0"/>
      <point x="239.39344262295083" y="690.0" type="qcurve" smooth="yes"/>
      <point x="568.4918032786885" y="690.0" type="line"/>
      <point x="568.4918032786885" y="609.9344262295082" type="line"/>
      <point x="414.37704918032784" y="405.9016393442623" type="line"/>
      <point x="479.7704918032787" y="405.9016393442623" type="line" smooth="yes"/>
      <point x="631.4426229508197" y="405.9016393442623"/>
      <point x="631.4426229508197" y="244.0" type="qcurve" smooth="yes"/>
      <point x="631.4426229508197" y="157.63934426229508" type="line" smooth="yes"/>
      <point x="631.4426229508197" y="0.0"/>
      <point x="474.2295081967213" y="0.0" type="qcurve" smooth="yes"/>
      <point x="329.39344262295083" y="0.0" type="line"/>
      <point x="278.3606557377049" y="39.91803278688525" type="line"/>
      <point x="278.3606557377049" y="92.1639344262295" type="line"/>
      <point x="473.40983606557376" y="92.1639344262295" type="line" smooth="yes"/>
      <point x="529.7377049180328" y="92.1639344262295"/>
      <point x="529.7377049180328" y="148.49180327868854" type="qcurve" smooth="yes"/>
      <point x="529.7377049180328" y="257.40983606557376" type="line" smooth="yes"/>
      <point x="529.7377049180328" y="313.7377049180328"/>
      <point x="473.40983606557376" y="313.7377049180328" type="qcurve" smooth="yes"/>
      <point x="295.40983606557376" y="313.7377049180328" type="line"/>
      <point x="295.40983606557376" y="394.2295081967213" type="line"/>
      <point x="449.5245901639344" y="597.8360655737705" type="line"/>
      <point x="240.36065573770492" y="597.8360655737705" type="line" smooth="yes"/>
      <point x="183.45901639344262" y="597.8360655737705"/>
      <point x="183.45901639344262" y="541.5081967213115" type="qcurve" smooth="yes"/>
      <point x="183.45901639344262" y="0.0" type="line"/>
    </contour>
  </outline>
</glyph>
<glyph name="endash" format="2">
  <advance width="580.0"/>
  <unicode hex="2013"/>
  <outline>
    <contour>
      <point x="40.0" y="262.6885245901639" type="line"/>
      <point x="40.0" y="347.3114754098361" type="line"/>
      <point x="540.0" y="347.3114754098361" type="line"/>
      <point x="540.0" y="262.6885245901639" type="line"/>
    </contour>
  </outline>
</glyph>
<glyph name="emdash" format="2">
  <advance width="1000.0"/>
  <unicode hex="2014"/>
  <outline>
    <contour>
      <point x="40.0" y="262.6885245901639" type="line"/>
      <point x="40.0" y="347.3114754098361" type="line"/>
      <point x="960.0" y="347.3114754098361" type="line"/>
      <point x="960.0" y="262.6885245901639" type="line"/>
    </contour>
  </outline>
</glyph>
<glyph name="quoteleft" format="2">
  <advance width="265.1967213114754"/>
  <unicode hex="2018"/>
  <outline>
    <contour>
      <point x="54.98360655737705" y="508.42622950819674" type="line"/>
      <point x="147.04918032786884" y="752.9508196721312" type="line"/>
      <point x="219.55737704918033" y="735.1475409836065" type="line"/>
      <point x="154.1639344262295" y="492.0327868852459" type="line"/>
      <point x="65.24590163934427" y="492.0327868852459" type="line"/>
    </contour>
  </outline>
</glyph>
<glyph name="quoteright" format="2">
  <advance width="265.1967213114754"/>
  <unicode hex="2019"/>
  <outline>
    <contour>
      <point x="48.68852459016394" y="497.88524590163934" type="line"/>
      <point x="114.08196721311475" y="740.0" type="line"/>
      <point x="203.0" y="740.0" type="line"/>
      <point x="213.2622950819672" y="724.0327868852459" type="line"/>
      <point x="121.19672131147541" y="479.08196721311475" type="line"/>
    </contour>
  </outline>
</glyph>
<glyph name="quotesinglbase" format="2">
  <advance width="265.1967213114754"/>
  <unicode hex="201A"/>
  <outline>
    <contour>
      <point x="29.049180327868854" y="-125.14754098360656" type="line"/>
      <point x="94.44262295081967" y="117.96721311475409" type="line"/>
      <point x="182.36065573770492" y="117.96721311475409" type="line"/>
      <point x="193.04918032786884" y="101.57377049180327" type="line"/>
      <point x="101.55737704918033" y="-142.95081967213116" type="line"/>
    </contour>
  </outline>
</glyph>
<glyph name="dagger" format="2">
  <advance width="492.24590163934425"/>
  <unicode hex="2020"/>
  <outline>
    <contour>
      <point x="50.0" y="412.6885245901639" type="line"/>
      <point x="50.0" y="497.3114754098361" type="line"/>
      <point x="201.81967213114754" y="497.3114754098361" type="line"/>
      <point x="201.81967213114754" y="690.0" type="line"/>
      <point x="291.0" y="690.0" type="line"/>
      <point x="291.0" y="497.3114754098361" type="line"/>
      <point x="442.24590163934425" y="497.3114754098361" type="line"/>
      <point x="442.24590163934425" y="412.6885245901639" type="line"/>
      <point x="291.0" y="412.6885245901639" type="line"/>
      <point x="291.0" y="-100.0" type="line"/>
      <point x="201.81967213114754" y="-100.0" type="line"/>
      <point x="201.81967213114754" y="412.6885245901639" type="line"/>
    </contour>
  </outline>
</glyph>
<glyph name="daggerdbl" format="2">
  <advance width="492.24590163934425"/>
  <unicode hex="2021"/>
  <outline>
    <contour>
      <point x="50.0" y="92.68852459016394" type="line"/>
      <point x="50.0" y="177.31147540983608" type="line"/>
      <point x="201.81967213114754" y="177.31147540983608" type="line"/>
      <point x="201.81967213114754" y="412.6885245901639" type="line"/>
      <point x="50.0" y="412.6885245901639" type="line"/>
      <point x="50.0" y="497.3114754098361" type="line"/>
      <point x="201.81967213114754" y="497.3114754098361" type="line"/>
      <point x="201.81967213114754" y="690.0" type="line"/>
      <point x="291.0" y="690.0" type="line"/>
      <point x="291.0" y="497.3114754098361" type="line"/>
      <point x="442.24590163934425" y="497.3114754098361" type="line"/>
      <point x="442.24590163934425" y="412.6885245901639" type="line"/>
      <point x="291.0" y="412.6885245901639" type="line"/>
      <point x="291.0" y="177.31147540983608" type="line"/>
      <point x="442.24590163934425" y="177.31147540983608" type="line"/>
      <point x="442.24590163934425" y="92.68852459016394" type="line"/>
      <point x="291.0" y="92.68852459016394" type="line"/>
      <point x="291.0" y="-100.0" type="line"/>
      <point x="201.81967213114754" y="-100.0" type="line"/>
      <point x="201.81967213114754" y="92.68852459016394" type="line"/>
    </contour>
  </outline>
</glyph>
<glyph name="bullet" format="2">
  <advance width="362.24590163934425"/>
  <unicode hex="2022"/>
  <outline>
    <contour>
      <point x="80.09836065573771" y="256.39344262295083" type="line"/>
      <point x="80.09836065573771" y="463.60655737704917" type="line"/>
      <point x="282.72131147540983" y="463.60655737704917" type="line"/>
      <point x="282.72131147540983" y="256.39344262295083" type="line"/>
    </contour>
  </outline>
</glyph>
<glyph name="guilsinglleft" format="2">
  <advance width="313.4918032786885"/>
  <unicode hex="2039"/>
  <outline>
    <contour>
      <point x="30.0" y="315.0" type="line"/>
      <point x="212.2295081967213" y="544.360655737705" type="line"/>
      <point x="273.4918032786885" y="493.6393442622951" type="line"/>
      <point x="135.29508196721312" y="315.0" type="line"/>
      <point x="273.4918032786885" y="136.36065573770492" type="line"/>
      <point x="212.2295081967213" y="85.63934426229508" type="line"/>
    </contour>
  </outline>
</glyph>
<glyph name="guilsinglright" format="2">
  <advance width="313.4918032786885"/>
  <unicode hex="203A"/>
  <outline>
    <contour>
      <point x="40.0" y="136.36065573770492" type="line"/>
      <point x="177.7704918032787" y="315.0" type="line"/>
      <point x="40.0" y="493.6393442622951" type="line"/>
      <point x="101.26229508196721" y="544.360655737705" type="line"/>
      <point x="283.4918032786885" y="315.0" type="line"/>
      <point x="101.26229508196721" y="85.63934426229508" type="line"/>
    </contour>
  </outline>
</glyph>
<glyph name="fraction" format="2">
  <advance width="142.95081967213116"/>
  <unicode hex="2044"/>
  <outline>
    <contour>
      <point x="-129.63934426229508" y="32.950819672131146" type="line"/>
      <point x="200.36065573770492" y="692.9508196721312" type="line"/>
      <point x="272.1639344262295" y="657.0491803278688" type="line"/>
      <point x="-57.8360655737705" y="-2.9508196721311464" type="line"/>
    </contour>
  </outline>
</glyph>
<glyph name="uni2070" format="2">
  <advance width="361.5409836065574"/>
  <unicode hex="2070"/>
  <outline>
    <contour>
      <point x="38.459016393442624" y="384.4918032786885" type="qcurve" smooth="yes"/>
      <point x="38.459016393442624" y="583.9672131147541" type="line" smooth="yes"/>
      <point x="38.459016393442624" y="690.0"/>
      <point x="144.49180327868854" y="690.0" type="qcurve" smooth="yes"/>
      <point x="217.62295081967213" y="690.0" type="line" smooth="yes"/>
      <point x="323.655737704918" y="690.0"/>
      <point x="323.655737704918" y="583.9672131147541" type="qcurve" smooth="yes"/>
      <point x="323.655737704918" y="384.4918032786885" type="line" smooth="yes"/>
      <point x="323.655737704918" y="278.4590163934426"/>
      <point x="217.62295081967213" y="278.4590163934426" type="qcurve" smooth="yes"/>
      <point x="144.49180327868854" y="278.4590163934426" type="line" smooth="yes"/>
      <point x="38.459016393442624" y="278.4590163934426"/>
    </contour>
    <contour>
      <point x="115.09836065573771" y="376.3606557377049" type="line" smooth="yes"/>
      <point x="115.09836065573771" y="348.2622950819672"/>
      <point x="143.19672131147541" y="348.2622950819672" type="qcurve" smooth="yes"/>
      <point x="218.34426229508196" y="348.2622950819672" type="line" smooth="yes"/>
      <point x="246.44262295081967" y="348.2622950819672"/>
      <point x="246.44262295081967" y="376.3606557377049" type="qcurve" smooth="yes"/>
      <point x="246.44262295081967" y="592.0983606557377" type="line" smooth="yes"/>
      <point x="246.44262295081967" y="620.1967213114754"/>
      <point x="218.34426229508196" y="620.1967213114754" type="qcurve" smooth="yes"/>
      <point x="143.19672131147541" y="620.1967213114754" type="line" smooth="yes"/>
      <point x="115.09836065573771" y="620.1967213114754"/>
      <point x="115.09836065573771" y="592.0983606557377" type="qcurve" smooth="yes"/>
    </contour>
  </outline>
</glyph>
<glyph name="uni2074" format="2">
  <advance width="361.5409836065574"/>
  <unicode hex="2074"/>
  <outline>
    <contour>
      <point x="38.459016393442624" y="344.55737704918033" type="line"/>
      <point x="38.459016393442624" y="408.2295081967213" type="line"/>
      <point x="159.85245901639345" y="690.0" type="line"/>
      <point x="225.52459016393442" y="690.0" type="line"/>
      <point x="234.9344262295082" y="674.0327868852459" type="line"/>
      <point x="125.65573770491804" y="414.3606557377049" type="line"/>
      <point x="246.44262295081967" y="414.3606557377049" type="line"/>
      <point x="246.44262295081967" y="531.2459016393443" type="line"/>
      <point x="323.655737704918" y="531.2459016393443" type="line"/>
      <point x="323.655737704918" y="278.4590163934426" type="line"/>
      <point x="246.44262295081967" y="278.4590163934426" type="line"/>
      <point x="246.44262295081967" y="344.55737704918033" type="line"/>
    </contour>
  </outline>
</glyph>
